<svg xmlns="http://www.w3.org/2000/svg" width="369.936" height="332.967" viewBox="0 0 369.936 332.967"><defs><style>.a{fill:#fff;}.b{fill:#d1d3d4;}.c{fill:#231f20;}.d{fill:#e6e7e8;}.e{fill:#686efd;}</style></defs><rect class="a" width="357.697" height="75.365" transform="translate(6.119 237.824)"/><path class="b" d="M430.161,277.137H72.464a.644.644,0,0,1-.644-.644V201.184a.644.644,0,0,1,.644-.644h357.7a.644.644,0,0,1,.644.644v75.379A.644.644,0,0,1,430.161,277.137ZM73.08,275.849H429.517V201.758H73.108Z" transform="translate(-66.345 36.71)"/><rect class="a" width="368.648" height="12.155" rx="3.96" transform="translate(0.644 237.824)"/><path class="b" d="M431.657,213.933H74.1a6.189,6.189,0,0,1-6.189-6.189v-1.05a6.2,6.2,0,0,1,6.189-6.2H431.657a6.2,6.2,0,0,1,6.189,6.2v1.05A6.189,6.189,0,0,1,431.657,213.933ZM74.1,201.778a4.915,4.915,0,0,0-4.9,4.915v1.05a4.9,4.9,0,0,0,4.9,4.9H431.657a4.9,4.9,0,0,0,4.9-4.9v-1.05a4.915,4.915,0,0,0-4.9-4.915Z" transform="translate(-67.91 36.69)"/><rect class="c" width="112.011" height="18.722" transform="translate(31.073 218.444)"/><path class="c" d="M202.292,206.625H90.266a.616.616,0,0,1-.616-.616V187.286a.616.616,0,0,1,.616-.616H202.292a.616.616,0,0,1,.616.616v18.722A.616.616,0,0,1,202.292,206.625ZM90.9,205.336H201.675V187.9H90.9Z" transform="translate(-59.207 31.157)"/><rect class="a" width="61.04" height="18.722" transform="translate(82.031 218.444)"/><path class="c" d="M187.724,206.657H126.67a.644.644,0,0,1-.63-.644V187.29a.63.63,0,0,1,.63-.63h61.054a.63.63,0,0,1,.63.63v18.722A.644.644,0,0,1,187.724,206.657Zm-60.34-1.316H187.15V187.934H127.384Z" transform="translate(-44.64 31.153)"/><rect class="c" width="90.699" height="13.877" transform="translate(50.762 204.888)"/><path class="c" d="M195.035,192.1h-90.7a.616.616,0,0,1-.616-.616V177.606a.616.616,0,0,1,.616-.616h90.7a.63.63,0,0,1,.63.616v13.877a.616.616,0,0,1-.63.616Zm-90.082-1.232h89.466v-12.6H104.952Z" transform="translate(-53.575 27.282)"/><rect class="a" width="38.719" height="13.877" transform="translate(102.741 204.888)"/><path class="c" d="M180.183,192.135H141.464a.644.644,0,0,1-.644-.644V177.614a.658.658,0,0,1,.644-.644h38.719a.644.644,0,0,1,.644.644v13.877a.63.63,0,0,1-.644.644Zm-38.075-1.274h37.445v-12.6H142.108Z" transform="translate(-38.723 27.274)"/><rect class="c" width="90.699" height="13.877" transform="translate(37.963 191.403)"/><path class="c" d="M185.917,182.469H95.176a.616.616,0,0,1-.616-.616V167.976a.616.616,0,0,1,.616-.616h90.741a.616.616,0,0,1,.616.616v13.877A.616.616,0,0,1,185.917,182.469Zm-90.1-1.232H185.3v-12.6H95.82Z" transform="translate(-57.242 23.427)"/><rect class="a" width="38.719" height="13.877" transform="translate(89.942 191.403)"/><path class="c" d="M171.053,182.505H132.32a.63.63,0,0,1-.63-.644V167.984a.644.644,0,0,1,.63-.644h38.733a.644.644,0,0,1,.63.644v13.877a.63.63,0,0,1-.63.644Zm-38.089-1.274h37.445v-12.6H132.964Z" transform="translate(-42.378 23.419)"/><ellipse class="a" cx="2.927" cy="2.927" rx="2.927" ry="2.927" transform="translate(80.112 195.548)"/><path class="c" d="M128.231,177.442a3.571,3.571,0,1,1,3.571-3.571A3.571,3.571,0,0,1,128.231,177.442Zm0-5.853a2.283,2.283,0,1,0,2.283,2.283,2.283,2.283,0,0,0-2.283-2.283Z" transform="translate(-45.192 24.604)"/><path class="a" d="M110.664,189.154a.658.658,0,0,1-.644-.644v-9.326a.644.644,0,0,1,.644-.644.63.63,0,0,1,.644.644v9.4a.644.644,0,0,1-.644.574Z" transform="translate(-51.053 27.903)"/><path class="a" d="M119.334,203.906a.644.644,0,0,1-.644-.644V188.6a.658.658,0,0,1,1.3,0v14.661a.644.644,0,0,1-.658.644Z" transform="translate(-47.582 31.705)"/><path class="d" d="M131.36,53.51l4.887-3.781,20.6,8.584L198.7,44.17l3.781,5.783L158.694,75.061Z" transform="translate(-42.51 -25.888)"/><path class="a" d="M147.138,120.415,130.25,51.281l26.914,11.581,48.591-17.6,12.5,69.82-44.768,15.431Z" transform="translate(-42.954 -25.452)"/><path class="c" d="M173.677,131.344a.63.63,0,0,1-.224,0l-26.354-10.1a.658.658,0,0,1-.392-.448L129.8,51.624a.63.63,0,0,1,.21-.63.616.616,0,0,1,.672-.1l26.606,11.469L205.7,44.846a.644.644,0,0,1,.532,0,.63.63,0,0,1,.308.448L219.075,115.1a.63.63,0,0,1-.42.714l-44.81,15.4Zm-25.808-11.2,25.822,9.9,44.04-15.179L205.45,46.331,157.559,63.667a.658.658,0,0,1-.462,0L131.359,52.6Z" transform="translate(-43.139 -25.64)"/><line class="a" x2="12.421" y2="63.995" transform="translate(114.21 37.41)"/><path class="c" d="M162.082,122.666a.658.658,0,0,1-.63-.518L149,58.126a.634.634,0,1,1,1.246-.238L162.685,121.9a.63.63,0,0,1-.5.742Z" transform="translate(-35.452 -20.603)"/><path class="a" d="M178.413,125.034s-4.929-7.758-4.2-9.8a35.168,35.168,0,0,0,1.148-6.189L170.1,110.3s-5.433-13.583-5.979-18.3-10.684-.364-11.049,3.263-.546,13.051,2.353,18.484,11.049,18.47,11.049,18.47" transform="translate(-33.9 -7.567)"/><path class="c" d="M166.636,133.092a.658.658,0,0,1-.546-.308c-.084-.126-8.192-13.121-11.062-18.512s-2.8-14.675-2.437-18.834c.294-2.9,5.433-5.881,8.906-5.909h0a2.983,2.983,0,0,1,3.375,2.633c.476,4.061,4.747,15.109,5.741,17.616l4.733-1.12a.588.588,0,0,1,.56.14.672.672,0,0,1,.224.546,37.041,37.041,0,0,1-1.19,6.343c-.378,1.036,1.862,5.6,4.2,9.172a.644.644,0,0,1-1.078.686c-.854-1.33-5.055-8.122-4.271-10.306a28.092,28.092,0,0,0,1.008-5.125l-4.383,1.05a.658.658,0,0,1-.742-.392c-.224-.56-5.461-13.723-6.021-18.47,0-.364-.168-1.484-2.087-1.484h0c-3.081,0-7.436,2.8-7.646,4.747-.392,4.019-.448,12.995,2.283,18.106,2.8,5.349,10.95,18.316,11.035,18.442a.644.644,0,0,1-.21.882A.588.588,0,0,1,166.636,133.092Z" transform="translate(-34.082 -7.742)"/><path class="c" d="M314.321,156.325a.63.63,0,0,1-.588-.868,39.531,39.531,0,0,0-7.814-40.483q-.756-.8-1.554-1.6c-3.221-3.249-6.862-7-6.637-11.679a15.262,15.262,0,0,1,.5-2.913,19.005,19.005,0,0,0,.434-2.381c.462-5.083-3.739-9.312-7.338-11.959-.868-.644-1.778-1.26-2.675-1.89-3.375-2.325-6.862-4.719-8.962-8.318-2.507-4.2-2.8-9.144-3.179-13.877-.308-4.2-.616-8.64-2.493-12.519a27.208,27.208,0,0,0-41.3-9.662,23.805,23.805,0,0,0-7.548,9.578,40.385,40.385,0,0,0-2.339,13.471c-.49,9.564-1.4,18.792-6.638,26.606a61.157,61.157,0,0,1-5.363,6.5c-3.585,3.977-7,7.73-8.052,12.6a14.493,14.493,0,0,0,5.181,14.213.63.63,0,0,1,.112.9.644.644,0,0,1-.9.112,15.8,15.8,0,0,1-5.6-15.488c1.134-5.265,4.8-9.326,8.4-13.247a59.4,59.4,0,0,0,5.237-6.371c5.1-7.506,5.951-16.538,6.413-25.906a41.548,41.548,0,0,1,2.451-13.905,25.205,25.205,0,0,1,7.884-10.124,28.482,28.482,0,0,1,43.144,10.11c1.988,4.089,2.311,8.612,2.619,12.981.336,4.789.658,9.312,3.011,13.317,1.96,3.347,5.321,5.671,8.57,7.912.924.63,1.834,1.26,2.717,1.9,3.865,2.8,8.4,7.422,7.856,13.107a16.908,16.908,0,0,1-.476,2.563,15.41,15.41,0,0,0-.462,2.689c-.2,4.2,3.095,7.492,6.273,10.712.532.546,1.064,1.078,1.568,1.61a40.287,40.287,0,0,1,8.136,41.912A.644.644,0,0,1,314.321,156.325Z" transform="translate(-14.527 -31.114)"/><path class="e" d="M231.981,92.17l-26.354,57.735-25.654-28.721L158.59,131.267s47.219,71.262,60.214,64.779,31.619-64.009,31.619-64.009Z" transform="translate(-31.609 -6.673)"/><path class="e" d="M246.9,81.414s-28.566,3.137-35.288,16.958-5.2,77.914-5.2,77.914l105.4,11.3s-2.675-52.694-7.646-76.079S284,72.7,246.9,81.414Z" transform="translate(-12.525 -11.964)"/><path class="c" d="M229.24,87.265l10.614,57.175L254.53,81.79Z" transform="translate(-3.327 -10.828)"/><path class="c" d="M240.033,145.273h0a.644.644,0,0,1-.588-.5L228.8,87.552a.63.63,0,0,1,.476-.714l25.3-5.475a.609.609,0,0,1,.728.742l-14.675,62.65a.6.6,0,0,1-.6.518Zm-9.9-57.413,9.97,53.688,13.779-58.813Z" transform="translate(-3.505 -11.003)"/><path class="a" d="M232.49,85.99l-.1,16.664s1.68,9.326,11.819,6.483a21,21,0,0,0,13.471-11.959l-1.148-28.861c0-1.218-4.971-5.839-4.775-16.44a25.682,25.682,0,0,1-18.9-8.528s-4.2,6.357-6.077,8.4a25.025,25.025,0,0,0-3.809,5.027c-1.722,3.207-1.652,7.212-1.568,10.768a69.824,69.824,0,0,0,1.26,12.6C224.285,87.922,232.49,85.99,232.49,85.99Z" transform="translate(-6.479 -26.216)"/><path class="c" d="M240.8,110.5a8.556,8.556,0,0,1-4.677-1.274,10.082,10.082,0,0,1-4.2-6.273l.084-16.02a9.886,9.886,0,0,1-6.4-1.2,7.926,7.926,0,0,1-3.417-5.349,69.067,69.067,0,0,1-1.274-12.6c-.07-3.431-.168-7.688,1.638-11.091a25.848,25.848,0,0,1,3.935-5.237c1.792-1.946,5.979-8.234,6.021-8.29a.6.6,0,0,1,.5-.28.546.546,0,0,1,.518.238,25.374,25.374,0,0,0,18.428,8.332.6.6,0,0,1,.448.2.588.588,0,0,1,.182.448,25.079,25.079,0,0,0,3.921,14.549,4.817,4.817,0,0,1,.854,1.862h0s0,.644,1.148,28.861a.715.715,0,0,1,0,.238,21.411,21.411,0,0,1-13.905,12.351,13.807,13.807,0,0,1-3.809.546Zm-7.59-7.66a9.1,9.1,0,0,0,3.6,5.307,8.99,8.99,0,0,0,7.422.56,20.543,20.543,0,0,0,12.995-11.441c-.084-2.128-1.134-28.51-1.148-28.735a6.413,6.413,0,0,0-.672-1.232,26.3,26.3,0,0,1-4.1-14.605,26.466,26.466,0,0,1-18.2-8.108,91.874,91.874,0,0,1-5.671,7.758,25.2,25.2,0,0,0-3.711,4.887c-1.652,3.109-1.568,7-1.484,10.446a69.426,69.426,0,0,0,1.232,12.449,6.736,6.736,0,0,0,2.8,4.523,9.1,9.1,0,0,0,6.231.9.6.6,0,0,1,.532.126.658.658,0,0,1,.252.5l-.112,16.664Z" transform="translate(-6.67 -26.405)"/><path class="c" d="M229.392,83.431s6.764.308,11.119-4.2a11.679,11.679,0,0,0,3.753-9.06s-7.31,4.915-14.913,5.083Z" transform="translate(-3.283 -15.48)"/><path class="c" d="M229.878,84.224h-.322a.6.6,0,0,1-.588-.6l-.1-8.192a.616.616,0,0,1,.6-.616c7.324-.168,14.521-4.929,14.591-4.971a.588.588,0,0,1,.588,0,.616.616,0,0,1,.364.476c0,.2.63,4.9-3.879,9.564A16.258,16.258,0,0,1,229.878,84.224ZM230.1,76l.084,7a15.138,15.138,0,0,0,10.068-4.047,11.889,11.889,0,0,0,3.543-7.464A32.348,32.348,0,0,1,230.1,76Z" transform="translate(-3.475 -15.642)"/><path class="a" d="M231.875,56.32s-5.363,7.954-4.089,9.354,4.845.476,4.845.476" transform="translate(-3.987 -21.024)"/><path class="c" d="M230.436,67.267A3.977,3.977,0,0,1,227.5,66.3c-1.4-1.526,1.932-7,4.033-10.166a.616.616,0,1,1,1.022.686c-2.647,3.963-4.579,8-4.131,8.64.826.91,3.389.5,4.2.294a.616.616,0,0,1,.308,1.19A11.033,11.033,0,0,1,230.436,67.267Z" transform="translate(-4.159 -21.216)"/><path class="a" d="M226.57,66.24s4.8,7.114,13.261.266" transform="translate(-4.396 -17.053)"/><path class="c" d="M232.971,70.284a8.4,8.4,0,0,1-1.19-.084,8.7,8.7,0,0,1-5.6-3.445.616.616,0,0,1,.168-.854.6.6,0,0,1,.854.168,7.618,7.618,0,0,0,4.747,2.9c2.353.35,4.929-.588,7.618-2.8a.616.616,0,0,1,.868.1.6.6,0,0,1-.084.868A12.029,12.029,0,0,1,232.971,70.284Z" transform="translate(-4.593 -17.232)"/><path class="c" d="M215.478,167.184h0a.63.63,0,0,1-.588-.658l3.977-66.151a.588.588,0,0,1,.644-.574.6.6,0,0,1,.588.658L216.123,166.6a.616.616,0,0,1-.644.588Z" transform="translate(-9.071 -3.619)"/><path class="c" d="M306.673,155.882c.49,1.4,16.328,47.191-1.834,63.546-19.366,17.42-117.319,8.248-117.319,8.248l-10.7-33.006c-1.19-11.721-1.792-19.983,21.117-22.125l32.067-6.567.9-18.5Z" transform="translate(-24.495 15.469)"/><path class="c" d="M241.282,230.895h-2.227c-26.606-.112-51.21-2.395-51.448-2.409a.616.616,0,0,1-.532-.434l-10.684-32.991c-.644-6.147-1.232-11.833,2.185-15.992,3.109-3.795,9.3-5.993,19.45-7l31.535-6.455.868-18.036a.6.6,0,0,1,.224-.434.56.56,0,0,1,.462-.14l75.771,8.4a.616.616,0,0,1,.518.42l-.588.2.616-.1c1.652,4.887,15.628,48.2-2.03,64.093C297.463,227.254,275.87,230.895,241.282,230.895Zm-53.114-3.613c6.876.616,98.12,8.4,116.45-8.122,16.8-15.123,3.753-56.587,1.778-62.524L231.676,148.4l-.854,17.84a.63.63,0,0,1-.5.574l-32.067,6.568c-9.872.924-15.8,3-18.68,6.511-3.095,3.753-2.535,9.2-1.946,14.955Z" transform="translate(-24.681 15.275)"/><path class="a" d="M204.043,189.1s-5.083-24.492-23.567-18.946,22.643,96.622,22.643,102.6-15.712,24.029-15.712,24.029a133.131,133.131,0,0,0,13.4-1.4c4.859-.924,18.2-20.333,18.722-22.405S210.288,206.674,204.043,189.1Z" transform="translate(-24.76 24.218)"/><path class="c" d="M187.588,297.618a.64.64,0,0,1-.476-1.064c4.327-4.971,15.558-18.876,15.558-23.609,0-1.4-2.675-8.472-6.063-17.462-9.8-26.046-26.242-69.652-19.969-82.339a6.287,6.287,0,0,1,3.837-3.417,15.711,15.711,0,0,1,13.009,1.246c8.4,5,11.2,17.182,11.357,18.2,5.993,16.9,16.1,81.47,15.5,84.187-.434,1.946-14,21.9-19.226,22.909a132.915,132.915,0,0,1-13.485,1.4Zm-1.708-127.429a17.281,17.281,0,0,0-5.041.784,4.985,4.985,0,0,0-3.053,2.8c-6.035,12.183,10.908,57.161,20.025,81.316,4.033,10.712,6.133,16.37,6.133,17.91,0,5.335-11.385,19.17-14.885,23.3,2.675-.182,8.276-.616,11.819-1.288,4.467-.854,17.77-19.941,18.2-21.929s-9.116-65.689-15.4-83.515v-.084c0-.084-2.7-12.6-10.782-17.364a13.346,13.346,0,0,0-7.016-1.946Z" transform="translate(-24.941 24.029)"/><path class="c" d="M185.188,265.615a7.464,7.464,0,0,0-6.007,4.313c-1.694,4,5.6,6.316,12.323,6.624A54.459,54.459,0,0,0,208.91,274.4a17.687,17.687,0,0,0,5.853-4.621s0,4.929,1.694,4.775a65.4,65.4,0,0,0,7.24-.77c.616-.308-2-19.408-5.461-30.429,0,0-14,19.8-18.414,20.725S185.188,265.615,185.188,265.615Z" transform="translate(-23.466 53.847)"/><path class="c" d="M193.628,277.373H191.64c-4.691-.21-10.824-1.484-12.6-4.355a3.249,3.249,0,0,1-.21-3.123,8,8,0,0,1,6.525-4.691h0c.1,0,10.166-.63,14.535-1.526,3.473-.728,14.2-15.025,18.036-20.473a.588.588,0,0,1,.6-.252.6.6,0,0,1,.49.42,158.011,158.011,0,0,1,4.257,19.254c1.848,11.357,1.232,11.665.868,11.847a28.929,28.929,0,0,1-5.909.714l-1.554.126a1.4,1.4,0,0,1-1.106-.392,5.937,5.937,0,0,1-1.176-3.487,15.53,15.53,0,0,1-5.1,3.683A54.611,54.611,0,0,1,193.628,277.373Zm-8.234-10.978a6.764,6.764,0,0,0-5.475,3.935,2,2,0,0,0,.126,1.988c1.246,1.974,6.035,3.529,11.651,3.781a53.6,53.6,0,0,0,17.168-2.128,17.1,17.1,0,0,0,5.6-4.425.616.616,0,0,1,1.092.392c0,1.4.266,3.557.854,4.089a.224.224,0,0,0,.168.07l1.568-.126c1.4-.112,4.271-.336,5.209-.518.112-2.493-2.142-18.274-5.167-28.552-3.137,4.369-14,19.086-18.064,19.94A147.359,147.359,0,0,1,185.394,266.394Z" transform="translate(-23.629 53.684)"/><path class="a" d="M238.891,274.027s-8.024-79.188-11.721-93.975-24.954-19.408-31.423-1.54,25.57,88.122,23.105,95.516-11.707,21.831-11.707,21.831,9.8,4.929,16.944,0S238.891,274.027,238.891,274.027Z" transform="translate(-17.081 23.254)"/><path class="c" d="M216.715,298.917a24.114,24.114,0,0,1-9.662-2.268.636.636,0,0,1-.252-.924c.084-.14,9.228-14.493,11.637-21.733.882-2.647-3.613-15.782-8.4-29.673-8.4-24.365-18.764-54.612-14.717-65.815,2.8-7.884,8.976-12.379,16.356-11.987a17.966,17.966,0,0,1,16.3,13.583c3.669,14.661,11.637,93.275,11.721,94.059a.714.714,0,0,1,0,.336c-.322.7-7.856,17.154-15.011,22.125A13.569,13.569,0,0,1,216.715,298.917Zm-8.4-3.123c2.269.952,9.97,3.7,15.642-.252,6.511-4.523,13.709-19.744,14.507-21.453-.42-4.2-8.122-79.468-11.679-93.709a16.678,16.678,0,0,0-15.123-12.6c-6.75-.364-12.421,3.823-15.081,11.2-3.893,10.74,6.862,42.094,14.717,64.989,6.021,17.518,9.368,27.586,8.4,30.5-2.241,6.525-9.606,18.428-11.427,21.327Z" transform="translate(-17.268 23.08)"/><path class="c" d="M206.7,265.221a26.256,26.256,0,0,0-7.548,5.307c-2.535,3.011-4.845,4.4-1.4,6.708s25.206.686,28.188-.238,8.094-8.08,8.094-8.08-.238,8.08.686,8.318a33.606,33.606,0,0,0,6.091-.812,124.768,124.768,0,0,0-2.31-32.963s-7.492,16.944-16.93,20.361S206.7,265.221,206.7,265.221Z" transform="translate(-16.631 53.891)"/><path class="c" d="M207.809,279.263c-4.691,0-8.78-.336-10.208-1.274a3.851,3.851,0,0,1-2.016-2.535c-.154-1.288.84-2.395,2.114-3.781l1.162-1.3a26.114,26.114,0,0,1,7.758-5.475.63.63,0,0,1,.476,0s5.335,1.932,14.437-1.4,16.44-19.983,16.51-20.151a.622.622,0,0,1,1.176.126,126.546,126.546,0,0,1,2.311,33.145.588.588,0,0,1-.476.546,28.217,28.217,0,0,1-6.287.924c-.42-.112-1.26-.322-1.2-7-1.708,2.212-4.957,6.063-7.254,6.778A109,109,0,0,1,207.809,279.263Zm-.9-13.149a24.9,24.9,0,0,0-7.114,5.055c-.406.476-.812.924-1.176,1.33-1.064,1.162-1.9,2.072-1.806,2.8,0,.49.532,1.036,1.4,1.652,3.109,2.072,24.3.728,27.656-.308,2.311-.7,6.385-5.909,7.772-7.856a.616.616,0,0,1,1.12.378,34.574,34.574,0,0,0,.378,7.716,34.8,34.8,0,0,0,5.125-.84,126.124,126.124,0,0,0-1.974-30.485c-2.17,4.481-8.514,16.2-16.412,19.086C213.425,267.766,208.131,266.492,206.913,266.114Z" transform="translate(-16.806 53.699)"/><path class="a" d="M272.38,177.584c.966,1.4,4.047,31.689,4.047,31.689s34.336,3.109,34.826.7-17.5-8.528-17.5-8.528l-5.6-24.015" transform="translate(13.943 27.458)"/><path class="c" d="M304.508,211.712c-2.577,0-6.035-.1-10.7-.364-8.556-.462-17.168-1.232-17.252-1.246a.644.644,0,0,1-.588-.574c-1.162-11.441-3.263-30.107-3.949-31.423a.63.63,0,0,1,.182-.882.658.658,0,0,1,.9.2c.952,1.4,3.3,23.805,4.089,31.451,15.277,1.4,31.633,2.114,33.608,1.064-.6-1.4-9.2-5.041-17.056-7.7a.6.6,0,0,1-.406-.448l-5.6-24.029a.644.644,0,0,1,.476-.77.658.658,0,0,1,.77.49l5.6,23.665c7,2.367,18.092,6.6,17.588,9.13C311.944,210.885,311.776,211.712,304.508,211.712Z" transform="translate(13.756 27.275)"/><path class="e" d="M281.431,101l23.427,114.2-32.305.84s-11.2-60.466-11.889-69.54S281.431,101,281.431,101Z" transform="translate(9.247 -3.138)"/><ellipse class="a" cx="7.296" cy="7.296" rx="7.296" ry="7.296" transform="translate(211.77 26.488)"/><path class="c" d="M226.632,65.44h-.322a7.926,7.926,0,1,1,8.22-7.618h0a7.94,7.94,0,0,1-7.912,7.618Zm0-14.591a7.212,7.212,0,1,0,.266,0Z" transform="translate(-7.552 -23.717)"/><ellipse class="a" cx="7.296" cy="7.296" rx="7.296" ry="7.296" transform="translate(227.846 27.132)"/><path class="c" d="M238.087,65.9h-.322a7.938,7.938,0,1,1,8.276-7.618h0a7.926,7.926,0,0,1-7.926,7.618Zm0-14.591a6.653,6.653,0,0,0-.252,13.3,6.483,6.483,0,0,0,4.775-1.764,6.6,6.6,0,0,0,2.128-4.621h0a6.637,6.637,0,0,0-6.414-6.834Z" transform="translate(-2.946 -23.543)"/><path class="c" d="M208.187,152.087a.6.6,0,0,1-.462-.21l-31.171-35.932a.616.616,0,0,1,.07-.882.6.6,0,0,1,.868,0l31.171,35.932a.6.6,0,0,1-.07.868.574.574,0,0,1-.406.224Z" transform="translate(-24.479 2.418)"/><path class="d" d="M157.87,69,187.431,57.66l2.661,13.555-29.785,9.564Z" transform="translate(-31.897 -20.488)"/><ellipse class="c" cx="1.722" cy="0.924" rx="1.722" ry="0.924" transform="matrix(0.039, -0.999, 0.999, 0.039, 217.793, 34.655)"/><ellipse class="c" cx="1.722" cy="0.924" rx="1.722" ry="0.924" transform="matrix(0.039, -0.999, 0.999, 0.039, 234.261, 35.644)"/><path class="c" d="M255.769,61.506a.644.644,0,0,1-.63-.588c-.322-3.837-10.11-3.949-13.863-3.669a.63.63,0,0,1-.686-.588.644.644,0,0,1,.574-.63c1.512-.112,14.745-.952,15.235,4.831a.644.644,0,0,1-.588.7Z" transform="translate(1.217 -21.182)"/><path class="a" d="M242.23,61.669a5.867,5.867,0,0,1,1.862-3.193,10.376,10.376,0,0,1,3.067-1.68,4.607,4.607,0,0,1,1.862-.406,3.57,3.57,0,0,1,1.288.42,4.509,4.509,0,0,1,2.227,2.185,5.335,5.335,0,0,1,.21,2.535,10.683,10.683,0,0,1-.588,2.731,7,7,0,0,1-9.214,4.019" transform="translate(1.873 -20.996)"/><path class="c" d="M245.7,69.5a7.59,7.59,0,0,1-2.8-.546.56.56,0,1,1,.42-1.036,6.5,6.5,0,0,0,8.528-3.7,9.719,9.719,0,0,0,.546-2.591,4.8,4.8,0,0,0-.168-2.283,3.963,3.963,0,0,0-1.96-1.876,2.955,2.955,0,0,0-1.078-.364,3.837,3.837,0,0,0-1.61.364,10.181,10.181,0,0,0-2.913,1.582,5.294,5.294,0,0,0-1.68,2.885.574.574,0,0,1-.658.434.56.56,0,0,1-.434-.658,6.4,6.4,0,0,1,2.044-3.5,10.823,10.823,0,0,1,3.221-1.778A4.761,4.761,0,0,1,249.287,56a3.865,3.865,0,0,1,1.484.476,4.957,4.957,0,0,1,2.479,2.465,5.685,5.685,0,0,1,.238,2.8,10.811,10.811,0,0,1-.616,2.885,7.73,7.73,0,0,1-4.061,4.2A7.646,7.646,0,0,1,245.7,69.5Z" transform="translate(1.734 -21.153)"/><line class="a" x1="19.016" y1="116.086" transform="translate(262.322 94.053)"/><path class="c" d="M274.439,215.194a.644.644,0,0,1-.63-.532l-19.016-116.1a.639.639,0,0,1,1.26-.21l19.016,116.1a.63.63,0,0,1-.532.728Z" transform="translate(6.899 -4.41)"/><path class="a" d="M233.269,162.639a.715.715,0,0,1-.28,0c-7.324-3.277-17.84-.77-17.952-.756a.686.686,0,0,1-.84-.5.7.7,0,0,1,.518-.854c.448-.112,11.09-2.647,18.848.84a.7.7,0,0,1,.35.924A.714.714,0,0,1,233.269,162.639Z" transform="translate(-9.358 20.293)"/><line class="a" x2="15.768" y2="9.2" transform="translate(248.626 150.43)"/><path class="c" d="M261.411,148.568a.546.546,0,0,1-.322-.1l-15.768-9.2a.644.644,0,0,1-.238-.868.658.658,0,0,1,.882-.238l15.838,9.2a.658.658,0,0,1,.238.882.672.672,0,0,1-.63.322Z" transform="translate(2.983 11.707)"/><line class="a" x1="9.466" y2="7.632" transform="translate(213.142 146.481)"/><path class="c" d="M220.305,144.181a.616.616,0,0,1-.5-.238.63.63,0,0,1,.1-.9l9.466-7.618a.644.644,0,1,1,.8.994l-9.466,7.618a.588.588,0,0,1-.392.14Z" transform="translate(-7.163 10.563)"/><path class="a" d="M140.883,235.629a39.292,39.292,0,0,1,10.04-6.54c.308,10.741-4.047,20.613-8.08,27.376H129.75" transform="translate(-43.154 48.139)"/><path class="c" d="M143.051,257.385H129.958a.728.728,0,0,1,0-1.456h12.687c3.627-6.175,7.772-15.4,7.786-25.528a40.609,40.609,0,0,0-8.864,5.965.714.714,0,0,1-1.008,0,.728.728,0,0,1,0-1.022,39.321,39.321,0,0,1,10.25-6.68.728.728,0,0,1,.994.644c.308,11.077-4.285,21.215-8.192,27.768A.714.714,0,0,1,143.051,257.385Z" transform="translate(-43.363 47.948)"/><path class="a" d="M124.3,243.652c3.221-16.8,16.37-27.362,16.37-27.362a60.844,60.844,0,0,1,2.395,24.464,90.575,90.575,0,0,1-4.523,20.837h-14.1" transform="translate(-45.336 43.015)"/><path class="c" d="M138.748,262.524h-14.1a.714.714,0,0,1-.714-.728.728.728,0,0,1,.714-.728H138.23a90.085,90.085,0,0,0,4.327-20.165,60.62,60.62,0,0,0-2.03-23.133c-2.885,2.6-12.6,12.295-15.32,26.214a.714.714,0,1,1-1.4-.266c3.235-16.8,16.51-27.67,16.636-27.782a.7.7,0,0,1,.658-.126.714.714,0,0,1,.476.462,61.333,61.333,0,0,1,2.437,24.758,91.019,91.019,0,0,1-4.579,21A.7.7,0,0,1,138.748,262.524Z" transform="translate(-45.543 42.809)"/><path class="a" d="M121.507,257.227h12.477c.112-3.7-.728-9.284-4.733-16.538-.266-.49-.532-.952-.8-1.4-7.226-12.239-13.835-12.1-13.835-12.1C111.83,240.059,117.726,251.542,121.507,257.227Z" transform="translate(-49.502 47.378)"/><path class="c" d="M134.187,258.163H121.711a.714.714,0,0,1-.6-.322c-3.837-5.783-9.8-17.448-7-30.6a.7.7,0,0,1,.686-.574c.322,0,7.114,0,14.479,12.463.266.462.532.924.8,1.4,4.2,7.59,4.929,13.387,4.817,16.916A.728.728,0,0,1,134.187,258.163Zm-12.085-1.4h11.371c0-3.4-.882-8.668-4.649-15.4l-.784-1.4c-5.727-9.69-10.965-11.385-12.6-11.679-2.409,12.029,3.011,22.839,6.666,28.44Z" transform="translate(-49.706 47.17)"/><path class="c" d="M122.075,268.422h24.464l3.949-19.772H118.14Z" transform="translate(-47.802 55.969)"/></svg>