<svg xmlns="http://www.w3.org/2000/svg" width="680.454" height="603.809" viewBox="0 0 680.454 603.809"><defs><style>.a{fill:#d1d3d4;}.b{fill:#fff;}.c{fill:#231f20;}.d{fill:#686efd;}</style></defs><g transform="translate(-122.045 -33.27)"><path class="a" d="M355.543,112.439H284.229a1.4,1.4,0,1,1,0-2.8h71.313a1.4,1.4,0,0,1,1.4,1.4A1.427,1.427,0,0,1,355.543,112.439Z" transform="translate(400.693 137.374)"/><path class="a" d="M341.3,112.439h-24.21a1.427,1.427,0,0,1-1.4-1.4,1.4,1.4,0,0,1,1.4-1.4H341.3a1.4,1.4,0,0,1,1.4,1.4,1.427,1.427,0,0,1-1.4,1.4Z" transform="translate(459.801 137.374)"/><path class="a" d="M339.336,119.429H284.2a1.4,1.4,0,0,1,0-2.8h55.136a1.4,1.4,0,1,1,0,2.8Z" transform="translate(400.639 149.948)"/><path class="a" d="M338.612,119.429H317.089a1.4,1.4,0,0,1-1.4-1.4,1.427,1.427,0,0,1,1.4-1.4h21.523a1.427,1.427,0,0,1,1.4,1.4A1.4,1.4,0,0,1,338.612,119.429Z" transform="translate(459.801 149.948)"/><path class="a" d="M347.4,126.429H284.229a1.4,1.4,0,1,1,0-2.8H347.4a1.427,1.427,0,0,1,1.4,1.4A1.4,1.4,0,0,1,347.4,126.429Z" transform="translate(400.693 162.539)"/><path class="a" d="M341.3,126.429h-24.21a1.4,1.4,0,0,1-1.4-1.4,1.427,1.427,0,0,1,1.4-1.4H341.3a1.427,1.427,0,0,1,1.4,1.4,1.4,1.4,0,0,1-1.4,1.4Z" transform="translate(459.801 162.539)"/><path class="a" d="M339.336,133.429H284.2a1.4,1.4,0,0,1,0-2.8h55.136a1.4,1.4,0,1,1,0,2.8Z" transform="translate(400.639 175.131)"/><path class="a" d="M337.269,133.429H317.089a1.4,1.4,0,0,1-1.4-1.4,1.427,1.427,0,0,1,1.4-1.4h20.179a1.427,1.427,0,0,1,1.4,1.4,1.4,1.4,0,0,1-1.4,1.4Z" transform="translate(459.801 175.131)"/><path class="a" d="M355.543,140.429H284.229a1.4,1.4,0,1,1,0-2.8h71.313a1.427,1.427,0,0,1,1.4,1.4,1.4,1.4,0,0,1-1.4,1.4Z" transform="translate(400.693 187.722)"/><path class="a" d="M341.3,140.429h-24.21a1.4,1.4,0,0,1-1.4-1.4,1.427,1.427,0,0,1,1.4-1.4H341.3a1.427,1.427,0,0,1,1.4,1.4,1.4,1.4,0,0,1-1.4,1.4Z" transform="translate(459.801 187.722)"/><path class="a" d="M331.473,147.429H284.229a1.4,1.4,0,1,1,0-2.8h47.243a1.4,1.4,0,1,1,0,2.8Z" transform="translate(400.693 200.314)"/><path class="a" d="M341.3,147.429h-24.21a1.4,1.4,0,0,1-1.4-1.4,1.427,1.427,0,0,1,1.4-1.4H341.3a1.427,1.427,0,0,1,1.4,1.4,1.4,1.4,0,0,1-1.4,1.4Z" transform="translate(459.801 200.314)"/><path class="b" d="M230.491,209.272c0-2.491-9.768-12.007-11.335-13.994-3.666-4.59-10.048-7.865-11.419-13.8-1.175-4.982,2.8-14.89,2.3-19.983a49.906,49.906,0,0,0-2.8-11.2,14.61,14.61,0,0,0-6.717-8.788,3.89,3.89,0,0,0-4.562.448,5.01,5.01,0,0,0-.756,3.443,69.213,69.213,0,0,1-.616,15.785c-6.325,32.186-42.793-1.231-55.976-10.859-10.076-7.277-20.515-15.225-32.858-16.653a8.4,8.4,0,0,0-5.6.812,6.521,6.521,0,0,0-1.931,7.529,19,19,0,0,0,4.87,6.717,19.593,19.593,0,0,0-6.465-4.254A6.717,6.717,0,0,0,89.46,146.1a6.633,6.633,0,0,0,0,7.445,19.171,19.171,0,0,0,5.766,5.346,12.007,12.007,0,0,0-11.2-4.534c-3.3,5.038,1.008,11.5,5.346,15.673a83.572,83.572,0,0,0,26.253,18.416c9.6,3.806,18.808,7.165,27.2,13.6,19.592,15.085,36.72,33.809,52.225,53.177a168.158,168.158,0,0,1,18.248-26.868C217.589,223.1,230.491,215.682,230.491,209.272Z" transform="translate(40.994 180.312)"/><path class="c" d="M196.069,257.4a1.287,1.287,0,0,1-1.008-.476c-18.584-23.146-35.181-39.939-52.169-52.981a96.671,96.671,0,0,0-24.545-12.483L116,190.535a86.26,86.26,0,0,1-26.672-18.724c-2.435-2.323-9.992-10.439-5.6-17.268a1.231,1.231,0,0,1,.868-.56,12.79,12.79,0,0,1,4,0,7.7,7.7,0,0,1,.588-7.809,7.921,7.921,0,0,1,8.4-2.043h.392a9.565,9.565,0,0,1-.364-.952,7.753,7.753,0,0,1,2.435-9.012,9.74,9.74,0,0,1,6.465-1.008c12.063,1.4,22.194,8.732,31.99,15.841l1.455,1.036c1.623,1.175,3.582,2.8,5.821,4.422,11.2,8.676,29.863,23.2,40.442,19.2,3.918-1.455,6.549-5.6,7.809-11.951a66.608,66.608,0,0,0,.644-14.75v-.784a5.989,5.989,0,0,1,1.036-4.282,5.15,5.15,0,0,1,6.073-.812,15.394,15.394,0,0,1,7.389,9.516,52.674,52.674,0,0,1,2.8,11.559,34.2,34.2,0,0,1-1.231,9.656A28.856,28.856,0,0,0,209.615,182a18.136,18.136,0,0,0,6.577,8.676,39.972,39.972,0,0,1,4.618,4.618c.392.5,1.315,1.483,2.463,2.8,6.073,6.437,9.152,10.076,9.152,12.063h0c0,4.786-5.6,9.46-11.055,13.994a49.119,49.119,0,0,0-6.381,5.878,168.588,168.588,0,0,0-18.108,26.644,1.231,1.231,0,0,1-1.008.672ZM85.741,156.446c-2.8,5.094,3.443,11.615,5.43,13.546a83.741,83.741,0,0,0,25.861,18.164l2.323.924A99.047,99.047,0,0,1,144.543,201.9c16.793,12.79,33,29.3,51.218,51.917a177.5,177.5,0,0,1,17.464-25.189,48.931,48.931,0,0,1,6.745-6.241c4.506-3.75,10.1-8.4,10.132-12.007-.2-1.567-6.185-7.949-8.4-10.328-1.231-1.315-2.211-2.351-2.631-2.8a36.867,36.867,0,0,0-4.31-4.31,20.375,20.375,0,0,1-7.361-9.992,29.751,29.751,0,0,1,1.12-11.2,33.135,33.135,0,0,0,1.175-8.844,49.681,49.681,0,0,0-2.6-10.971,13.155,13.155,0,0,0-6.045-8.061c-1.064-.476-2.463-.588-3.051.14a3.946,3.946,0,0,0-.448,2.547v.448a66.947,66.947,0,0,1-.672,15.309c-1.455,7.417-4.618,12.091-9.432,13.994-11.951,4.478-30.591-9.992-42.905-19.591-2.211-1.707-4.142-3.219-5.765-4.394L137.35,151.3c-9.544-6.913-19.4-13.994-30.787-15.365a7.333,7.333,0,0,0-4.758.588,5.346,5.346,0,0,0-1.427,6.045,18.248,18.248,0,0,0,4.59,6.241,1.287,1.287,0,0,1-1.763,1.847,18.613,18.613,0,0,0-6.017-3.974,4.618,4.618,0,0,0-5.6,7.165,9.6,9.6,0,0,0,1.12,1.511,12.371,12.371,0,0,1,4.562,3.75,1.259,1.259,0,0,1,0,1.651,1.315,1.315,0,0,1-1.679.168,30.786,30.786,0,0,1-4.338-3.5,10.355,10.355,0,0,0-5.514-.98Z" transform="translate(40.124 179.374)"/><path class="b" d="M333.279,87.39c-1.483-.952-2.575-1.623-2.6-1.707-2.8-15.365-16.933-23.4-31.43-23.762-17.38-.476-34.173,2.155-49.678-7.109-6.325-3.806-13.1-7.949-20.459-7.445-8.4.588-15.309,7.361-18.584,15.113-8.872,20.991,2.323,49.567,18.22,64.372a147.158,147.158,0,0,0,21.439,15.589l15.841,10.1c16.177,10.355,38.735,20.151,58.327,12.93,15-5.6,21.97-23.174,23.65-37.84a59.111,59.111,0,0,0-2.071-24.433,34.287,34.287,0,0,0-4.618-10.132,56.872,56.872,0,0,0-8.033-5.682Z" transform="translate(264.993 25.283)"/><path class="c" d="M310.71,170.207c-16.149,0-32.494-7.921-44.557-15.617l-15.841-10.132A148.143,148.143,0,0,1,228.677,128.7C212.64,113.812,201,84.368,210.121,62.79c3.862-9.124,11.615-15.365,19.787-15.953,7.613-.5,14.666,3.694,20.879,7.417l.392.224C263.243,61.726,276,61.586,289.5,61.446h10.663c13.994.364,29.527,8.033,32.69,24.377L334.7,87l-.532,1.315.728-1.2a44.948,44.948,0,0,1,8.4,5.933A35.372,35.372,0,0,1,348.13,103.6a60.2,60.2,0,0,1,2.127,24.993c-1.763,15.114-9.124,33.306-24.545,39.015a43.55,43.55,0,0,1-15,2.6ZM231.224,49.579h-1.148c-7.109.5-13.994,6.1-17.409,14.246-8.648,20.459,2.547,48.5,17.884,62.777a146.41,146.41,0,0,0,21.383,15.505l15.841,10.1c15.169,9.908,37.5,19.955,56.927,12.707,14.246-5.262,21.075-22.39,22.726-36.692a57.068,57.068,0,0,0-2.015-23.846,33.026,33.026,0,0,0-4.366-9.684,67.368,67.368,0,0,0-7.7-5.262h0l.756-1.175L333.1,89.35c-2.8-1.819-2.8-1.819-3.023-2.519-2.659-15.141-17.017-22.39-30.115-22.614H289.411c-13.994,0-27.036.28-39.771-7.361l-.392-.224C243.539,53.19,237.578,49.579,231.224,49.579Z" transform="translate(264.136 24.33)"/><path class="d" d="M439.259,252.041l54.828-24.517c-1.987-3.778-33.949-77.974-63.253-96.614-25.189-20.935-75.707-23.006-132.942-25.189,0,0-26.225,2.323-54.436,5.318-30.787,3.247-60.006,32.8-60.006,32.8l9.656,116.849s-5.234,94.6-14.386,213.8L313.9,506.755l131.186-32.267S437.72,269.085,439.259,252.041Z" transform="translate(213.421 130.323)"/><path class="b" d="M216.71,122.583l17.94,204.843L290.766,116.37Z" transform="translate(281.757 149.48)"/><circle class="c" cx="12.231" cy="12.231" r="12.231" transform="translate(561.943 341.473)"/><path class="c" d="M252.448,169.911a13.49,13.49,0,1,1,13.462-13.462,13.49,13.49,0,0,1-13.462,13.462Zm0-24.489a11.027,11.027,0,1,0,11,11.027,11.027,11.027,0,0,0-11-11.027Z" transform="translate(321.726 197.256)"/><circle class="c" cx="9.74" cy="9.74" r="9.74" transform="translate(569.976 340.354)"/><path class="c" d="M252.791,164.492a10.971,10.971,0,1,1,10.971-10.971A10.971,10.971,0,0,1,252.791,164.492Zm0-19.592a8.345,8.345,0,1,1,0,.112Z" transform="translate(326.925 196.572)"/><path class="c" d="M211.289,187.246h-.14A1.259,1.259,0,0,1,210,185.9c.308-2.967,8.033-72.6,40.3-79.178a1.24,1.24,0,0,1,.476,2.435c-30.479,6.185-38.259,76.295-38.315,76.995a1.259,1.259,0,0,1-1.175,1.092Z" transform="translate(269.685 132.089)"/><path class="c" d="M247.027,213.792h-.14a1.4,1.4,0,0,1-1.231-1.567c8.228-72.992-2.155-101.6-2.267-101.876a1.4,1.4,0,1,1,2.6-.98c.448,1.147,10.775,29.331,2.435,103.163A1.4,1.4,0,0,1,247.027,213.792Z" transform="translate(329.47 134.986)"/><path class="c" d="M251.161,216.992a1.4,1.4,0,0,1,0-2.8,7.809,7.809,0,0,0,7.781-7.781V163.423a26.113,26.113,0,0,0-26.085-26.085h-4.674A26.113,26.113,0,0,0,202.1,163.424v42.961a7.809,7.809,0,0,0,7.781,7.781,1.4,1.4,0,0,1,0,2.8A10.579,10.579,0,0,1,199.3,206.385V163.423a28.912,28.912,0,0,1,28.884-28.883h4.674a28.911,28.911,0,0,1,28.883,28.883v42.961a10.579,10.579,0,0,1-10.579,10.607Z" transform="translate(250.44 182.164)"/><rect class="c" width="4.702" height="13.686" rx="0.84" transform="translate(460.991 391.04)"/><path class="c" d="M206.462,176.809a3.611,3.611,0,0,1-3.582-3.582v-8.984a3.582,3.582,0,1,1,7.165,0v8.984a3.583,3.583,0,0,1-3.582,3.582Zm0-13.686a1.119,1.119,0,0,0-1.119,1.119v8.984a1.12,1.12,0,1,0,2.239,0v-8.984a1.119,1.119,0,0,0-1.119-1.119Z" transform="translate(256.88 229.148)"/><rect class="c" width="4.702" height="13.686" rx="0.84" transform="translate(498.271 391.04)"/><path class="c" d="M219.782,176.809a3.582,3.582,0,0,1-3.582-3.582v-8.984a3.582,3.582,0,0,1,7.165,0v8.984A3.582,3.582,0,0,1,219.782,176.809Zm0-13.686a1.119,1.119,0,0,0-1.119,1.119v8.984a1.12,1.12,0,0,0,2.239,0v-8.984a1.119,1.119,0,0,0-1.12-1.119Z" transform="translate(280.84 229.148)"/><path class="b" d="M252.91,162.28h-.2c-5.206-.756-8.592-2.8-10.1-5.961-2.491-5.234,1.231-11.5,1.4-11.755a1.343,1.343,0,0,1,1.9-.476,1.4,1.4,0,0,1,.476,1.9s-3.107,5.262-1.259,9.152c1.092,2.3,3.778,3.778,7.977,4.394a1.4,1.4,0,1,1-.2,2.8Z" transform="translate(326.806 198.952)"/><path class="b" d="M232.366,164.5l-3.806,46.208s4.2,25.777,32.914,21.579A57.8,57.8,0,0,0,302.532,204.3l7.025-79.206s-19.787-13.042-9.46-57.711a139.744,139.744,0,0,1-73.972,3.359s-17.3,47.887-15.925,69.97A24.713,24.713,0,0,0,232.366,164.5Z" transform="translate(269.907 61.357)"/><path class="c" d="M256.329,235.018c-24.154,0-28.184-22.978-28.24-23.23a.673.673,0,0,1,0-.336l3.666-44.781A25.889,25.889,0,0,1,209.7,141.763c-1.371-22.11,15.309-68.542,16.009-70.529a1.4,1.4,0,0,1,1.623-.868,139.436,139.436,0,0,0,73.16-3.331,1.4,1.4,0,0,1,1.847,1.623c-9.936,43.017,8.7,55.976,8.9,56.228a1.427,1.427,0,0,1,.616,1.315l-7.025,79.29a1.678,1.678,0,0,1-.168.532,58.774,58.774,0,0,1-41.982,28.66A46.1,46.1,0,0,1,256.329,235.018Zm-25.441-23.538c.42,2.295,5.15,24.07,31.29,20.291a56.956,56.956,0,0,0,39.883-26.952L309,126.453c-3.5-2.8-18.22-17.213-9.908-56.228a145.537,145.537,0,0,1-71.145,2.8c-2.6,7.417-16.653,48.587-15.449,68.234a23.062,23.062,0,0,0,20.879,22.39,1.371,1.371,0,0,1,1.259,1.511Z" transform="translate(269.006 60.583)"/><path class="c" d="M217.23,133a81.64,81.64,0,0,0,28.324-14.442c13.49-10.775,13.07-17.8,13.07-17.8s-20.991,9.1-39.183,3.694Z" transform="translate(282.692 121.401)"/><path class="c" d="M218.131,135.291a1.316,1.316,0,0,1-.9-.336,1.427,1.427,0,0,1-.5-1.175l2.351-28.52a1.316,1.316,0,0,1,.616-1.036,1.344,1.344,0,0,1,1.176-.2c17.38,5.206,37.9-3.526,38.092-3.61a1.315,1.315,0,0,1,1.287,0,1.371,1.371,0,0,1,.672,1.092c0,.336.308,7.865-13.574,18.976a82.928,82.928,0,0,1-28.883,14.694Zm3.582-27.988L219.7,132.156a82.145,82.145,0,0,0,25.889-13.6c8.4-6.661,11.2-11.783,12.063-14.5-5.877,2.015-21.439,6.689-35.936,3.107Z" transform="translate(281.791 120.483)"/><path class="d" d="M299.13,119.37,233.974,256.063,162.521,214.5,114.41,265.635s88.134,115.618,135.321,91.156,86.147-106.914,86.147-106.914Z" transform="translate(97.741 154.876)"/><path class="c" d="M180.974,373.887h0a1.4,1.4,0,0,1-1.343-1.455c3.331-79.877,20.627-236.134,20.823-237.7a1.344,1.344,0,0,1,1.539-1.231,1.4,1.4,0,0,1,1.231,1.539c-.2,1.567-17.492,157.712-20.823,237.533a1.371,1.371,0,0,1-1.427,1.315Z" transform="translate(215.057 180.266)"/><path class="b" d="M323.055,180.55l52.2,175.708-146.125-.42-50.8-171.762Z" transform="translate(212.719 264.926)"/><path class="c" d="M376.069,358.373h0l-146.125-.448a1.259,1.259,0,0,1-1.231-.9l-50.77-171.762a1.232,1.232,0,0,1,.168-1.12,1.315,1.315,0,0,1,1.008-.5l144.641-3.554h0a1.287,1.287,0,0,1,1.232.924l52.2,175.708a1.315,1.315,0,0,1-1.231,1.651ZM230.9,355.378l143.466.42L322.92,182.637l-142.066,3.471Z" transform="translate(211.904 264.099)"/><path class="b" d="M358.282,249.854c-19.2,2.379-40.638-1.036-58.775,5.066-19,6.353-39.883,11.671-59.642,5.6-9.292-2.8-24.881-39.687-9.908-41.982,9.88-1.567,29.555-2.071,29.555-2.071l-5.794-22.194s12.679,12.651,27.008,13.07,62.637-1.539,62.637-1.539" transform="translate(294.398 289.606)"/><path class="c" d="M259.436,265.392a64.373,64.373,0,0,1-19.172-2.8c-7.669-2.407-17.828-23.51-16.961-35.293.476-6.8,4.2-8.788,7.249-9.264,8.4-1.315,23.2-1.875,27.988-2.043l-5.206-20.627a1.288,1.288,0,0,1,.616-1.427,1.231,1.231,0,0,1,1.539.2s12.483,12.287,26.113,12.678c13.994.42,62.077-1.511,62.553-1.511a1.2,1.2,0,0,1,1.343,1.2,1.287,1.287,0,0,1-1.232,1.343c-.476,0-48.531,1.931-62.749,1.511-10.439-.28-19.9-6.745-24.657-10.579l4.73,18.136a1.287,1.287,0,0,1-.2,1.092,1.4,1.4,0,0,1-1.008.5c-.2,0-19.592.532-29.387,2.043-3.135.5-4.786,2.8-5.094,6.941-.812,11.2,9.124,30.787,15.2,32.634,19.256,6.017,39.659.924,58.775-5.6,11.531-3.862,24.377-3.974,36.8-4.114a196.377,196.377,0,0,0,22.39-1.036,1.316,1.316,0,0,1,1.4,1.12,1.259,1.259,0,0,1-1.092,1.427,208.842,208.842,0,0,1-22.614,1.064c-12.231,0-24.881.224-36.021,3.946C287.312,261.614,273.318,265.392,259.436,265.392Z" transform="translate(293.524 288.677)"/><path class="c" d="M193.54,180.709l9.6,22.782,61.965-2.351-8.62-22.39Z" transform="translate(240.079 261.688)"/><path class="c" d="M203.969,205.485a1.259,1.259,0,0,1-1.147-.756l-9.6-22.782a1.231,1.231,0,0,1,1.12-1.707l62.945-1.959a1.231,1.231,0,0,1,1.2.784l8.592,22.39a1.232,1.232,0,0,1,0,1.119,1.287,1.287,0,0,1-.979.56Zm-7.753-22.838,8.536,20.347,59.418-2.267L256.5,180.772Z" transform="translate(239.334 260.842)"/><path class="c" d="M214.482,175.724a10.719,10.719,0,0,0-7.361-.2,10.412,10.412,0,0,0-6.437,8.088,12.372,12.372,0,0,0,1.008,6.157,13.8,13.8,0,0,0,3.3,5.29c5.15,4.674,17.772,4.17,18.612-5.933a14.666,14.666,0,0,0-1.847-7.585,11.951,11.951,0,0,0-7.277-5.821Z" transform="translate(252.834 254.89)"/><path class="c" d="M214.019,199.939a13.686,13.686,0,0,1-9.068-3.191,15,15,0,0,1-3.638-5.738,13.8,13.8,0,0,1-1.064-6.745,11.531,11.531,0,0,1,7.249-9.1,11.923,11.923,0,0,1,8.228.2,13.21,13.21,0,0,1,7.949,6.409A16.009,16.009,0,0,1,225.634,190a10.132,10.132,0,0,1-6.577,9.012A13.993,13.993,0,0,1,214.019,199.939Zm-2.8-22.95a8.73,8.73,0,0,0-2.8.476,9.152,9.152,0,0,0-5.6,7.109,11.027,11.027,0,0,0,.924,5.6,10.523,10.523,0,0,0,14.526,6.605,7.613,7.613,0,0,0,4.9-6.941,13.463,13.463,0,0,0-1.735-6.941,10.468,10.468,0,0,0-6.577-5.178h0a10.691,10.691,0,0,0-3.666-.728Z" transform="translate(252.038 254.101)"/><path class="b" d="M85.85,110.127l7.809,115.758c.56,8.116,23.314,13.21,50.854,11.335s49.4-9.936,48.867-18.052L185.571,103.41Z" transform="translate(46.368 126.168)"/><path class="c" d="M182.968,106.377l7.613,112.959c0,2.015-3.554,5.43-12.091,8.592a127.628,127.628,0,0,1-34.173,6.521c-3.694.252-7.389.364-10.971.364-23.678,0-36.636-5.29-36.888-9.124L88.845,112.73l94.123-6.353m2.6-2.967L85.85,110.127l7.809,115.758c.476,7,17.408,11.727,39.687,11.727a109.585,109.585,0,0,0,11.2-.392c27.54-1.847,49.4-9.936,48.867-18.052L185.6,103.41Z" transform="translate(46.368 126.168)"/><ellipse class="c" cx="49.958" cy="14.75" rx="49.958" ry="14.75" transform="translate(131.226 221.611) rotate(-3.85)"/><path class="c" d="M145.908,102.009h0c23.678,0,36.664,5.29,36.916,9.124s-15.365,13.042-46.264,15.113c-3.722.252-7.417.364-11,.364-23.678,0-36.636-5.29-36.888-9.124,0-2.015,3.554-5.43,12.091-8.592a127.823,127.823,0,0,1,34.173-6.521c3.694-.252,7.389-.364,10.971-.364m0-2.8c-3.582,0-7.333.14-11.2.392-27.512,1.847-49.4,9.936-48.867,18.08.448,7,17.436,11.727,39.631,11.727a109.313,109.313,0,0,0,11.2-.392c27.54-1.847,49.427-9.936,48.867-18.052-.476-7-17.408-11.755-39.687-11.755Z" transform="translate(46.344 118.613)"/><path class="b" d="M186.223,113.38l4.2,61.993c.532,8.116-21.355,16.233-48.867,18.08S91.176,190.207,90.7,182.09L86.53,120.1c.532,8.116,23.314,13.21,50.854,11.363S186.783,121.5,186.223,113.38Z" transform="translate(47.591 144.102)"/><path class="c" d="M183.976,121.888l3.61,53.681c0,1.987-3.554,5.43-12.091,8.564a127.767,127.767,0,0,1-34.173,6.549c-3.694.224-7.389.364-10.971.364-23.678,0-36.636-5.318-36.888-9.124l-3.638-53.709c8.172,4.618,23.09,6.409,36.384,6.409a110.922,110.922,0,0,0,11.363-.392c18.892-1.259,37.728-5.6,46.46-12.343m2.211-8.4c.56,8.117-21.327,16.2-48.839,18.08-3.834.252-7.585.364-11.2.364-22.39,0-39.183-4.73-39.659-11.727l4.058,61.881c.476,7,17.408,11.755,39.687,11.755a109.308,109.308,0,0,0,11.2-.392c27.512-1.847,49.4-9.964,48.867-18.08l-4.2-61.993Z" transform="translate(47.627 144.102)"/><path class="d" d="M135.976,134.9l-9.992.672-.672-9.992a3.582,3.582,0,0,0-3.806-3.331l-7,.476a3.526,3.526,0,0,0-3.3,3.806l.672,9.992-9.992.672A3.554,3.554,0,0,0,98.556,141l.476,6.969a3.527,3.527,0,0,0,3.806,3.331l9.992-.672.672,9.992a3.555,3.555,0,0,0,3.806,3.331l6.969-.476a3.582,3.582,0,0,0,3.331-3.806l-.672-9.992,9.992-.672a3.583,3.583,0,0,0,3.331-3.806l-.476-6.969A3.582,3.582,0,0,0,135.976,134.9Z" transform="translate(69.206 160.034)"/><path class="a" d="M114.689,141.732a1.4,1.4,0,0,1,0-2.8,38.792,38.792,0,0,0,18.052-5.738,1.406,1.406,0,1,1,1.623,2.3,40.638,40.638,0,0,1-19.591,6.241Z" transform="translate(95.726 179.282)"/><path class="c" d="M218.156,107.637a11.363,11.363,0,0,1-11.2-10.579l-.644-9.656a11.363,11.363,0,0,1,10.355-12.091l21.159-1.427a11.419,11.419,0,0,1,12.091,10.579l.644,9.656a11.363,11.363,0,0,1-10.579,12.063l-21.159,1.427Zm20.515-30.955h-.56L216.952,78.11a8.564,8.564,0,0,0-7.977,9.1l.644,9.656a8.564,8.564,0,0,0,9.124,7.949l21.131-1.4h0a8.564,8.564,0,0,0,7.977-9.124l-.644-9.628a8.564,8.564,0,0,0-8.536-7.977Z" transform="translate(263.015 73.017)"/><path class="c" d="M235.264,106.434a11.363,11.363,0,0,1-11.2-10.579l-.644-9.656A11.391,11.391,0,0,1,234,74.108l21.131-1.4a11.391,11.391,0,0,1,11.923,10.551l.644,9.656a11.363,11.363,0,0,1-10.551,12.091l-21.159,1.4Zm20.6-30.955h-.588l-21.159,1.4a8.536,8.536,0,0,0-7.949,9.1l.644,9.656a8.4,8.4,0,0,0,9.1,7.949l21.159-1.4h0a8.564,8.564,0,0,0,7.893-9.04l-.7-9.684A8.4,8.4,0,0,0,255.863,75.48Z" transform="translate(293.794 70.918)"/><path class="c" d="M222.389,81.453a1.4,1.4,0,1,1,0-2.8l5.6-.392a1.4,1.4,0,1,1,.2,2.8l-5.6.392Z" transform="translate(289.456 80.926)"/><path class="b" d="M86.689,89.772a7.473,7.473,0,0,0-.616,10.607L110.562,128a7.5,7.5,0,0,0,11.2-9.964L97.24,90.416a7.529,7.529,0,0,0-10.551-.644Z" transform="translate(43.318 98.299)"/><path class="c" d="M93.434,89.709a7.473,7.473,0,0,1,5.6,2.519l24.517,27.624a7.5,7.5,0,0,1-11.2,9.964L87.865,102.191a7.473,7.473,0,0,1,5.6-12.483m0-2.8a10.244,10.244,0,0,0-6.829,2.6,10.048,10.048,0,0,0-3.442,7.081,10.243,10.243,0,0,0,2.547,7.361l24.489,27.6a10.309,10.309,0,1,0,15.421-13.686L101.159,90.38a10.3,10.3,0,0,0-7.725-3.47Z" transform="translate(41.554 96.488)"/><path class="d" d="M100.461,93.74s0,2.8-4.142,6.409a11.643,11.643,0,0,1-7.109,3.582l12.259,13.8a7.5,7.5,0,0,0,11.2-9.964Z" transform="translate(52.412 108.773)"/><path class="b" d="M129.569,64.207a7.5,7.5,0,0,0-9.852,3.974l-14.33,33.977a7.5,7.5,0,0,0,3.974,9.852,7.417,7.417,0,0,0,5.737,0,7.529,7.529,0,0,0,4.114-4.03L133.655,74a7.529,7.529,0,0,0-4.086-9.8Z" transform="translate(80.427 54.567)"/><path class="c" d="M128.551,65.4a7.277,7.277,0,0,1,2.8.616,7.529,7.529,0,0,1,3.974,9.852l-14.3,33.977a7.529,7.529,0,0,1-4.114,4.03,8,8,0,0,1-2.8.532,7.753,7.753,0,0,1-2.939-.588,7.5,7.5,0,0,1-3.862-9.852L121.75,69.989a7.529,7.529,0,0,1,6.913-4.59m0-2.8a10.356,10.356,0,0,0-9.488,6.269L104.509,102.9a10.3,10.3,0,0,0,5.6,13.49,10.468,10.468,0,0,0,4.03.812,10.215,10.215,0,0,0,3.862-.756,10.356,10.356,0,0,0,5.6-5.6l14.5-33.893a10.327,10.327,0,0,0-5.6-13.518,9.992,9.992,0,0,0-4.03-.84Z" transform="translate(78.506 52.759)"/><path class="d" d="M126.322,77.187a10.272,10.272,0,0,1-7.557-1.008,11.475,11.475,0,0,1-6.269-4.87L105.387,88.3a7.5,7.5,0,0,0,3.974,9.852,7.417,7.417,0,0,0,5.737,0,7.529,7.529,0,0,0,4.114-4.03Z" transform="translate(80.427 68.427)"/><path class="b" d="M125.023,89.388a7.5,7.5,0,0,1-10.439-2.043l-20.6-30.787a7.529,7.529,0,0,1,7.725-11.419,7.417,7.417,0,0,1,4.758,3.191l20.6,30.647a7.473,7.473,0,0,1-2.043,10.411Z" transform="translate(58.916 21.129)"/><path class="c" d="M102,46.8a8.536,8.536,0,0,1,1.455.14,7.417,7.417,0,0,1,4.786,3.219l20.6,30.647A7.529,7.529,0,0,1,122.6,92.5a8.225,8.225,0,0,1-1.427,0,7.585,7.585,0,0,1-4.814-3.191L95.76,58.526a7.529,7.529,0,0,1,2.127-10.412A7.333,7.333,0,0,1,102,46.8m0-2.8h0a10.3,10.3,0,0,0-8.4,16.065l20.571,30.787a10.3,10.3,0,0,0,6.577,4.366,9.571,9.571,0,0,0,1.987.2A10.328,10.328,0,0,0,131.3,79.349l-20.6-30.787a10.188,10.188,0,0,0-6.577-4.366,11.671,11.671,0,0,0-1.987-.2Z" transform="translate(57.141 19.302)"/><path class="d" d="M116.833,63.652a10.132,10.132,0,0,0-7.221,2.407,11.587,11.587,0,0,0-5.262,5.989l-10.3-15.337a7.529,7.529,0,0,1,7.725-11.559,7.417,7.417,0,0,1,4.758,3.191Z" transform="translate(58.849 21.117)"/><path class="b" d="M85.162,70.83l-1.875,6.633c-1.064,3.694,6.1,8.928,15.953,11.727s18.668,2.1,19.592-1.567l1.875-6.661Z" transform="translate(41.57 67.563)"/><path class="c" d="M86.9,72.63l35.685,10.132L120.8,89.423c-.616,2.155-3.918,3.275-8.4,3.275a42.264,42.264,0,0,1-11.2-1.707c-9.852-2.8-17.017-8.033-15.953-11.727l1.875-6.633m0-2.8a2.8,2.8,0,0,0-2.8,2.043l-1.9,6.633c-.588,2.1-.224,5.43,4.926,9.208a41.535,41.535,0,0,0,12.958,5.961A44.361,44.361,0,0,0,112.287,95.5c8.4,0,10.663-3.331,11.2-5.318l1.875-6.633a2.829,2.829,0,0,0-1.931-3.47L87.658,69.943a2.35,2.35,0,0,0-.756,0Z" transform="translate(39.83 65.763)"/><ellipse class="b" cx="6.913" cy="18.556" rx="6.913" ry="18.556" transform="matrix(0.273, -0.962, 0.962, 0.273, 124.826, 145.06)"/><path class="c" d="M94.255,71.459a41.142,41.142,0,0,1,11.2,1.707c9.852,2.8,16.989,8.033,15.953,11.7-.616,2.155-3.918,3.3-8.4,3.3a42.262,42.262,0,0,1-11.2-1.707c-9.852-2.8-16.989-8.061-15.953-11.727.616-2.155,3.918-3.275,8.4-3.275m0-2.8h0c-8.4,0-10.663,3.331-11.2,5.318s-.224,5.4,4.926,9.208a42.514,42.514,0,0,0,12.93,6.017,45.145,45.145,0,0,0,11.951,1.819c8.4,0,10.663-3.331,11.2-5.318s.224-5.43-4.926-9.208a41.225,41.225,0,0,0-12.958-5.961,44.025,44.025,0,0,0-11.951-1.819Z" transform="translate(41.013 63.66)"/><path class="c" d="M86.1,79.871a1.371,1.371,0,0,1-1.343-1.063A1.4,1.4,0,0,1,85.766,77.1L110.7,70.858a1.371,1.371,0,0,1,1.679,1.008,1.4,1.4,0,0,1-1.008,1.707L86.438,79.731Z" transform="translate(44.324 67.535)"/><path class="b" d="M118.57,83.657l1.623-6.717c.9-3.694,9.712-4.758,19.592-2.351s17.324,7.389,16.4,11.2L154.562,92.5Z" transform="translate(105.224 72.005)"/><path class="c" d="M131.586,75.069a43.942,43.942,0,0,1,10.048,1.287c9.964,2.407,17.324,7.389,16.4,11.2l-1.623,6.717-36.048-8.76,1.623-6.717c.588-2.351,4.366-3.638,9.6-3.638m0-2.8h0c-7.053,0-11.419,2.043-12.315,5.793l-1.623,6.717a2.8,2.8,0,0,0,2.071,3.359l36.048,8.732h.644a2.819,2.819,0,0,0,2.743-2.155l1.623-6.689c1.567-6.493-8.4-12.035-18.472-14.47a46.712,46.712,0,0,0-10.719-1.371Z" transform="translate(103.432 70.153)"/><ellipse class="c" cx="6.913" cy="18.556" rx="6.913" ry="18.556" transform="translate(222.187 162.322) rotate(-76.39)"/><path class="c" d="M129.995,77.469a43.968,43.968,0,0,1,10.076,1.287c9.964,2.407,17.3,7.361,16.4,11.2-.56,2.351-4.338,3.638-9.572,3.638A44.166,44.166,0,0,1,136.824,92.3c-9.936-2.407-17.3-7.361-16.4-11.2.588-2.351,4.338-3.638,9.572-3.638m0-2.8c-7.025,0-11.391,2.043-12.287,5.793-.5,2.127,0,5.4,5.29,8.984a40.834,40.834,0,0,0,13.182,5.6A46.515,46.515,0,0,0,146.9,96.417c7.025,0,11.391-2.043,12.315-5.793.5-2.127,0-5.4-5.29-8.984a41.981,41.981,0,0,0-13.182-5.6A46.74,46.74,0,0,0,129.994,74.67Z" transform="translate(103.399 74.47)"/><path class="c" d="M140.578,95.242a1.427,1.427,0,0,1-.98-.364L120.986,77.162a1.4,1.4,0,0,1,0-1.987,1.371,1.371,0,0,1,1.959,0l18.64,17.716a1.4,1.4,0,0,1-.952,2.407Z" transform="translate(108.825 74.638)"/><path class="b" d="M103.68,114.291l3.163,6.129c1.763,3.415,10.551,2.351,19.592-2.323s15.057-11.2,13.322-14.638l-3.163-6.129Z" transform="translate(78.44 115.231)"/><path class="c" d="M138.467,99.129l3.163,6.129c1.735,3.387-4.226,9.936-13.322,14.638a35.041,35.041,0,0,1-14.694,4.338c-2.491,0-4.282-.672-4.982-2.015l-3.163-6.129,33-16.961m0-2.8a2.8,2.8,0,0,0-1.287.308L104.21,113.6a2.778,2.778,0,0,0-1.2,3.778l3.135,6.129a7.557,7.557,0,0,0,7.473,3.526,37.644,37.644,0,0,0,15.953-4.646,41.981,41.981,0,0,0,11.531-8.4c4.31-4.73,4.03-8.033,3.023-9.992l-3.163-6.129a2.8,2.8,0,0,0-1.623-1.4,3.079,3.079,0,0,0-.868,0Z" transform="translate(76.651 113.432)"/><ellipse class="b" cx="18.556" cy="6.913" rx="18.556" ry="6.913" transform="matrix(0.889, -0.458, 0.458, 0.889, 178.962, 223.381)"/><path class="c" d="M133.688,98.419c2.491,0,4.282.644,4.982,1.987,1.735,3.387-4.226,9.936-13.322,14.61a35.041,35.041,0,0,1-14.694,4.338c-2.491,0-4.282-.644-4.982-1.987-1.735-3.387,4.226-9.936,13.35-14.638a34.845,34.845,0,0,1,14.666-4.31m0-2.8h0a37.671,37.671,0,0,0-15.953,4.618c-9.152,4.73-17.576,12.483-14.526,18.416.812,1.6,2.8,3.5,7.445,3.5a37.252,37.252,0,0,0,15.953-4.646c9.152-4.7,17.6-12.455,14.554-18.388C140.349,97.523,138.362,95.62,133.688,95.62Z" transform="translate(76.448 112.155)"/><path class="c" d="M107.413,120.684a1.343,1.343,0,0,1-.784-.224,1.4,1.4,0,0,1-.392-1.931l13.994-21.607a1.4,1.4,0,0,1,1.931-.42,1.427,1.427,0,0,1,.42,1.959L108.589,120.04a1.427,1.427,0,0,1-1.176.644Z" transform="translate(82.627 113.344)"/><path class="b" d="M115.922,38,107.05,62.265c-2.659,7.221,15.085,20.375,39.631,29.387s46.572,10.411,49.231,3.163l8.872-24.238Z" transform="translate(84.027 8.509)"/><path class="c" d="M117.6,41.56l83.6,30.619L193.28,93.786c-.476,1.287-3.415,2.8-10.188,2.8a111.559,111.559,0,0,1-35.461-7.613A120.346,120.346,0,0,1,118.329,74c-7.837-5.822-9.124-9.544-8.648-10.831L117.6,41.56m-1.679-3.61L107.05,62.215c-2.659,7.221,15.085,20.375,39.631,29.387a114.36,114.36,0,0,0,36.384,7.781c6.969,0,11.671-1.511,12.818-4.618l8.872-24.237L115.922,38.09Z" transform="translate(84.027 8.419)"/><ellipse class="b" cx="13.966" cy="47.328" rx="13.966" ry="47.328" transform="translate(195.142 59.497) rotate(-69.88)"/><path class="c" d="M123.054,39.135a111.56,111.56,0,0,1,35.461,7.557,121.356,121.356,0,0,1,29.3,14.974c7.837,5.821,9.124,9.544,8.648,10.831s-3.415,2.8-10.188,2.8a111.728,111.728,0,0,1-35.461-7.613,122.362,122.362,0,0,1-29.3-14.973c-7.837-5.821-9.124-9.544-8.648-10.831s3.415-2.8,10.188-2.8m0-2.8c-6.969,0-11.671,1.511-12.818,4.618-2.8,7.249,15.085,20.4,39.631,29.415a114.358,114.358,0,0,0,36.384,7.781c6.969,0,11.7-1.511,12.818-4.618,2.659-7.249-15.085-20.4-39.631-29.415a114.358,114.358,0,0,0-36.384-7.781Z" transform="translate(89.713 5.415)"/><path class="a" d="M111.31,61.846a1.427,1.427,0,0,1-.476,0,1.4,1.4,0,0,1-.868-1.763l5.6-16.149a1.4,1.4,0,0,1,1.791-.84,1.343,1.343,0,0,1,.84,1.763l-5.6,16.149a1.427,1.427,0,0,1-1.287.84Z" transform="translate(89.618 17.521)"/><path class="a" d="M114.366,64.351a1.092,1.092,0,0,1-.5,0,1.371,1.371,0,0,1-.812-1.791l6.3-16.317a1.371,1.371,0,0,1,1.791-.812,1.4,1.4,0,0,1,.812,1.819l-6.3,16.317a1.343,1.343,0,0,1-1.287.784Z" transform="translate(95.126 21.705)"/><path class="a" d="M118.181,66.294h-.5a1.4,1.4,0,0,1-.784-1.819l6.269-16.317a1.4,1.4,0,1,1,2.6,1.008L119.5,65.482A1.427,1.427,0,0,1,118.181,66.294Z" transform="translate(102.03 24.996)"/><path class="a" d="M122.1,67.854a1.6,1.6,0,0,1-.5,0,1.427,1.427,0,0,1-.812-1.819l6.353-16.457a1.4,1.4,0,1,1,2.6,1.008L123.474,66.9a1.427,1.427,0,0,1-1.371.952Z" transform="translate(109.053 27.718)"/><path class="a" d="M126.377,69.238a1.6,1.6,0,0,1-.5,0,1.4,1.4,0,0,1-.812-1.819L131.331,51.1a1.409,1.409,0,0,1,2.631,1.008l-6.3,16.317A1.343,1.343,0,0,1,126.377,69.238Z" transform="translate(116.729 30.448)"/><path class="a" d="M130.537,70.374a1.6,1.6,0,0,1-.5,0,1.4,1.4,0,0,1-.812-1.819l6.269-16.317a1.427,1.427,0,0,1,1.819-.812,1.4,1.4,0,0,1,.812,1.819l-6.3,16.317a1.344,1.344,0,0,1-1.287.812Z" transform="translate(124.211 32.502)"/><path class="a" d="M134.937,70.775a1.6,1.6,0,0,1-.5,0,1.427,1.427,0,0,1-.784-1.819l6.269-16.373a1.4,1.4,0,0,1,1.819-.812,1.427,1.427,0,0,1,.812,1.819l-6.3,16.317a1.427,1.427,0,0,1-1.315.868Z" transform="translate(132.183 33.109)"/><path class="c" d="M228.758,212.146a1.651,1.651,0,0,1-.7-.2l-92.528-54.3a1.371,1.371,0,0,1-.5-1.9,1.4,1.4,0,0,1,1.9-.476l92.556,54.241a1.4,1.4,0,0,1,.476,1.9,1.343,1.343,0,0,1-1.2.728Z" transform="translate(134.472 219.113)"/><ellipse class="c" cx="5.15" cy="3.666" rx="5.15" ry="3.666" transform="matrix(0.043, -0.999, 0.999, 0.043, 541.484, 165.063)"/><ellipse class="c" cx="3.666" cy="5.15" rx="3.666" ry="5.15" transform="translate(495.868 157.074) rotate(-6.03)"/><path class="c" d="M239.174,100.66a62.638,62.638,0,0,1-24.154-5.6,1.427,1.427,0,0,1-.644-1.875,1.4,1.4,0,0,1,1.875-.644c.252,0,25.189,11.867,40.359-.14a1.4,1.4,0,0,1,1.959.224,1.455,1.455,0,0,1-.224,1.987,30.339,30.339,0,0,1-19.172,6.045Z" transform="translate(277.317 105.828)"/><path class="b" d="M227.935,80.25s-10.411,17.6-7.417,21.859,13.07,2.995,13.07,2.995" transform="translate(287.633 84.508)"/><path class="c" d="M231.107,107.579c-3.526,0-8.62-.588-10.859-3.778-3.247-4.618,4.814-19.06,7.361-23.37a1.4,1.4,0,1,1,2.407,1.428c-4.786,8.088-9.012,18.164-7.473,20.347,2.043,2.8,9.18,2.8,11.755,2.407a1.455,1.455,0,0,1,1.567,1.2,1.4,1.4,0,0,1-1.231,1.567,27.989,27.989,0,0,1-3.526.2Z" transform="translate(286.755 83.599)"/><path class="c" d="M265.928,94.15a1.456,1.456,0,0,1-.588,0L239.06,82.172a1.4,1.4,0,1,1,1.176-2.547L266.488,91.6a1.318,1.318,0,0,1-.56,2.547Z" transform="translate(320.505 83.146)"/><path class="b" d="M241.612,93.706a18.668,18.668,0,0,1,7.137-9.236,23.706,23.706,0,0,1,16.793-4.282c5.6,1.12,9.068,7.3,9.544,12.762a21.383,21.383,0,0,1-4.282,14.19c-6.941,9.544-18.976,13.63-29.723,7.613" transform="translate(325.594 84.066)"/><path class="c" d="M252.5,119.988a22.783,22.783,0,0,1-11.2-2.967,1.4,1.4,0,0,1,1.371-2.435c9.46,5.29,20.935,2.323,27.988-7.221A19.787,19.787,0,0,0,274.7,94.1c-.42-4.982-3.47-10.523-8.4-11.5a22.194,22.194,0,0,0-16.009,4.03,17.073,17.073,0,0,0-6.605,8.4,1.4,1.4,0,0,1-1.763.868,1.427,1.427,0,0,1-.868-1.791,19.843,19.843,0,0,1,7.669-9.936,24.713,24.713,0,0,1,17.912-4.506c6.325,1.259,10.16,8,10.691,13.994a22.614,22.614,0,0,1-4.562,15.365A25.189,25.189,0,0,1,252.5,119.988Z" transform="translate(324.836 83.029)"/><path class="d" d="M359.97,149.27s83.376,144.529,62.889,165.8S275.5,344.122,275.5,344.122L253.28,275.048l71.985-6.8L281.94,170.093Z" transform="translate(347.539 208.66)"/><path class="c" d="M254.179,278.14a1.4,1.4,0,1,1,0-2.8l69.8-6.633-60.23-118.333a1.4,1.4,0,0,1,2.491-1.287l61.042,120.348a1.455,1.455,0,0,1,0,1.316,1.344,1.344,0,0,1-1.092.7l-71.845,6.829Z" transform="translate(346.639 206.967)"/><path class="c" d="M262.119,231.913a1.4,1.4,0,1,1,0-2.8c.924,0,92.64-4.394,119.48-16.541a1.4,1.4,0,1,1,1.148,2.547c-27.316,12.371-116.71,16.6-120.488,16.793Z" transform="translate(360.922 322.24)"/></g></svg>