<svg xmlns="http://www.w3.org/2000/svg" width="456.835" height="349.792" viewBox="0 0 456.835 349.792"><defs><style>.a{fill:#686efd;}.b{fill:#231f20;}.c{fill:#fff;}.d{fill:#d1d3d4;}.e{fill:#e6e7e8;}</style></defs><g transform="translate(-53.364 -37.68)"><path class="a" d="M334.88,108.227c0,32.469-20.727,47.5-46.3,47.5s-46.313-15.028-46.313-47.5S263,38.15,288.583,38.15,334.88,75.742,334.88,108.227Z" transform="translate(105.27 0.262)"/><path class="b" d="M288.829,156.686c-13.486,0-24.916-4.064-33.232-11.757-9.017-8.409-13.8-21.023-13.8-36.44a94.028,94.028,0,0,1,13.673-47.605c9.343-14.965,21.163-23.2,33.356-23.2s24.029,8.238,33.341,23.2a93.87,93.87,0,0,1,13.673,47.605c0,15.417-4.781,28.031-13.8,36.44C313.745,152.621,302.331,156.686,288.829,156.686Zm0-117.589c-25.259,0-45.6,37.966-45.6,69.391,0,22.611,11.975,46.718,45.6,46.718s45.581-24.169,45.581-46.718C334.426,77.11,314.088,39.1,288.829,39.1Z" transform="translate(105.008)"/><path class="c" d="M275.927,57.01l4.859,127.337H267.86Z" transform="translate(119.53 10.772)"/><path class="b" d="M281.042,185.309H268.1a.732.732,0,0,1-.514-.218.779.779,0,0,1-.187-.545L275.483,57.24a.7.7,0,0,1,.7-.67h0a.716.716,0,0,1,.7.685l4.843,127.353a.7.7,0,0,1-.187.514A.732.732,0,0,1,281.042,185.309Zm-12.178-1.417h11.43L276.012,71.255Z" transform="translate(119.273 10.527)"/><path class="a" d="M280.071,102.26a33.684,33.684,0,0,1-.81,9.25,34.259,34.259,0,0,1-6.681,15.246c-3.628,4.345-7.568,5.388-12.645,6.961-4.672,1.417-9.048,3.675-13.844,4.859a73.565,73.565,0,0,1-32.8.4c-9.53-2.087-18.687-7.413-23.655-15.806s-4.89-20.011,1.557-27.345c2.772-3.115,6.93-8.456,11.337-8.518-.42-2.881-1.557-5.731-1.059-8.752a7.49,7.49,0,0,1,5-6.338c1.09-.28,2.538-.452,2.772-1.557a2.9,2.9,0,0,0-.171-1.308c-1.277-4.672,1.682-9.344,4.765-13.174a26.692,26.692,0,0,1,6.7-6.229c6.992-4.173,20.244-4.516,26.738.327a19.123,19.123,0,0,1,7.615,13.891c-.187-2.725,11.2,3.8,12.178,5.964a26.146,26.146,0,0,1,.249,18.454c5.014-.4,9.639,3.442,11.508,8.113A18.872,18.872,0,0,1,280.071,102.26Z" transform="translate(73.978 5.045)"/><path class="b" d="M229.12,141.607a73.6,73.6,0,0,1-15.728-1.666c-10.621-2.3-19.4-8.191-24.106-16.133-5.388-9.11-4.672-20.961,1.557-28.171l.794-.9c2.663-3.115,6.229-7.226,10.262-7.786-.109-.607-.249-1.215-.374-1.822a18.142,18.142,0,0,1-.576-6.385,8.222,8.222,0,0,1,5.544-6.914l.452-.109c.981-.234,1.7-.436,1.791-.919a2.009,2.009,0,0,0-.109-.81v-.156c-1.433-5.279,2.118-10.418,4.905-13.813a27.75,27.75,0,0,1,6.914-6.463c6.914-4.111,20.447-4.859,27.532.374a19.871,19.871,0,0,1,7.786,13.112C258.536,62.95,267.07,68,268,70.067a26.847,26.847,0,0,1,.623,18.017c5.139.14,9.437,4.282,11.15,8.58a19.669,19.669,0,0,1,1.293,5.824,34.136,34.136,0,0,1-.81,9.437,34.773,34.773,0,0,1-6.836,15.573c-3.582,4.267-7.381,5.45-12.209,6.93l-.779.234c-1.915.592-3.862,1.355-5.746,2.1a64,64,0,0,1-8.129,2.772,72.459,72.459,0,0,1-17.441,2.071Zm5.341-93.918A27.283,27.283,0,0,0,221.178,50.8a26.473,26.473,0,0,0-6.525,6.12c-2.585,3.115-5.886,7.9-4.672,12.458a3.5,3.5,0,0,1,.187,1.557c-.3,1.4-1.791,1.76-2.865,2.009l-.436.109a6.743,6.743,0,0,0-4.469,5.731,16.522,16.522,0,0,0,.545,5.886c.187.888.389,1.775.514,2.663a.716.716,0,0,1-.171.576.747.747,0,0,1-.529.249c-3.691,0-7.35,4.282-10.013,7.366l-.794.9c-5.933,6.759-6.556,17.908-1.464,26.473,4.485,7.615,12.941,13.252,23.188,15.479a73.192,73.192,0,0,0,32.469-.389,66.3,66.3,0,0,0,7.942-2.725c1.915-.748,3.878-1.557,5.855-2.133l.779-.234c4.672-1.417,8.238-2.538,11.539-6.494a33.372,33.372,0,0,0,6.54-14.934,33.216,33.216,0,0,0,.779-9.048h0a17.83,17.83,0,0,0-1.2-5.4c-1.635-4.111-5.871-8.067-10.792-7.677a.716.716,0,0,1-.623-.28.732.732,0,0,1-.093-.67,25.368,25.368,0,0,0-.234-17.908c-.779-1.729-9.188-6.54-10.9-6.229a.716.716,0,0,1-1.417,0A18.314,18.314,0,0,0,247,50.9a21.8,21.8,0,0,0-12.536-3.208Z" transform="translate(73.726 4.77)"/><path class="c" d="M250.856,80.339l-21.4,14.171-1.09-35.63L226.3,66.651l-.467,39.305L202.3,85.135l-.28,2.258L225.6,110.176l-2.912,54.27h8.923l-1.947-63.474,19.217-15.837Z" transform="translate(82.84 11.814)"/><path class="b" d="M231.83,165.421h-8.923a.685.685,0,0,1-.42-.2.748.748,0,0,1-.2-.529l2.85-53.975L201.775,88.166a.732.732,0,0,1-.2-.607l.28-2.258a.709.709,0,0,1,1.184-.436l22.347,19.777.452-37.748a.562.562,0,0,1,0-.171l2.056-7.786a.716.716,0,0,1,.779-.514.685.685,0,0,1,.623.685L230.35,93.46l20.338-13.47a.732.732,0,0,1,.841,0,.7.7,0,0,1,.2.825l-1.978,4.8a.591.591,0,0,1-.2.28L230.6,101.465l1.947,63.131a.716.716,0,0,1-.2.514A.732.732,0,0,1,231.83,165.421ZM223.654,164H231.1l-1.931-62.742a.748.748,0,0,1,.265-.576l19.076-15.728,1.028-2.492L230.07,95.36a.732.732,0,0,1-.716,0,.747.747,0,0,1-.389-.623l-.9-30.74-.794,2.99L226.8,106.2a.763.763,0,0,1-.436.654.7.7,0,0,1-.747-.125L203.1,86.8l-.078.576,23.359,22.534a.67.67,0,0,1,.218.545Z" transform="translate(82.587 11.556)"/><path class="b" d="M169.84,161.9s3.115-23.188,65.919-35.4S365.136,141.157,388.37,163.13,416.4,205.846,416.4,205.846s-89.714,71.4-131.215,57.369S169.84,161.9,169.84,161.9Z" transform="translate(64.907 47.795)"/><path class="b" d="M297.746,265.981a38.682,38.682,0,0,1-12.458-1.884c-41.283-13.922-114.957-100.614-115.72-101.5a.67.67,0,0,1-.156-.529c.125-.981,3.831-23.826,66.448-35.988,61.917-12.022,128.739,13.642,153.172,36.8,23.079,21.8,28.218,42.84,28.264,43.058a.67.67,0,0,1-.234.685C413.731,209.281,341.925,265.981,297.746,265.981ZM170.829,161.925c4.454,5.232,75.075,87.409,114.817,100.848,39.367,13.315,124.02-52.137,130.218-56.98-.856-3.037-6.805-22.1-27.766-41.953-24.231-22.954-90.508-48.384-151.973-36.44C178.4,138.644,171.483,159.309,170.829,161.925Z" transform="translate(64.665 47.552)"/><path class="c" d="M156.856,316.25s49.505-61.029,56.139-62.851,66.557,35.4,139.748,22.58,151.957-61.636,151.35-74.453-12.458-23.2-23.515-23.2-113.82,34.182-113.82,34.182-77.318-73.44-167.826-71.4C144.616,142.32,64.059,263.163,62.844,264.378S156.856,316.25,156.856,316.25Z" transform="translate(5.276 57.611)"/><path class="b" d="M157.094,317.169a.716.716,0,0,1-.327,0c-42.887-22.814-94.074-50.424-94.354-52.355a.763.763,0,0,1,.218-.638l1.557-2.165c25.4-36.128,89.418-120.3,135.045-121.326,86.879-1.978,162.516,66.23,168.013,71.307,8-2.663,102.888-34.088,113.68-34.088s23.577,10.216,24.231,23.888c.67,14.015-80.027,62.6-151.942,75.184-55.345,9.671-103.106-9.141-126.138-18.189-6.805-2.678-12.193-4.8-13.626-4.407C208.125,255.829,171.4,300.07,157.67,317a.716.716,0,0,1-.576.171ZM64.032,264.581c4.937,3.784,57.385,32.111,92.875,51,4.905-6.027,49.521-60.827,56.061-62.633,1.806-.5,5.762,1.012,14.529,4.454,22.829,9,70.326,27.719,125.3,18.111,73.456-12.863,151.319-61.979,150.758-73.721C502.93,188.9,491,179.274,480.739,179.274c-10.745,0-112.543,33.793-113.571,34.135a.685.685,0,0,1-.716-.156c-.763-.732-78.143-73.191-167.312-71.2-44.974,1.012-108.634,84.762-133.924,120.719Z" transform="translate(5.039 57.377)"/><path class="c" d="M182.527,159.51s30.507,15.261,51.872,15.868,69.563.607,83.609,6.712,21.35,26.847,14.638,33.559-108.619,12.816-159.276,4.89" transform="translate(66.874 67.891)"/><path class="b" d="M236.89,225.3c-23.2,0-46.188-1.09-63.365-3.784a.709.709,0,1,1,.218-1.4c52.246,8.176,152.72,1.261,158.669-4.672,2.118-2.118,2.819-6.073,1.915-10.9-1.433-7.6-7.163-17.6-16.336-21.584-11.866-5.155-48.275-5.918-72.475-6.416-4.064-.078-7.786-.156-10.9-.249-21.272-.607-51.872-15.791-52.184-15.931a.732.732,0,0,1-.311-.965.716.716,0,0,1,.95-.311c.311.156,30.631,15.2,51.576,15.791,3.115.093,6.805.171,10.9.249,24.247.5,60.889,1.261,73,6.525,9.655,4.189,15.666,14.669,17.13,22.627,1.012,5.295.187,9.593-2.3,12.084C328.768,221.081,282.409,225.3,236.89,225.3Z" transform="translate(66.626 67.614)"/><path class="a" d="M300.307,131.929c0,28.654-17.208,41.906-38.449,41.906s-38.449-13.252-38.449-41.906S240.633,70.09,261.859,70.09,300.307,103.291,300.307,131.929Z" transform="translate(94.76 18.061)"/><path class="b" d="M262.087,174.818C233.216,174.818,223,152.752,223,132.2A86.723,86.723,0,0,1,234.352,90.15c7.786-13.237,17.628-20.54,27.8-20.54s20.026,7.335,27.813,20.571a86.739,86.739,0,0,1,11.368,42.046C301.252,152.752,290.959,174.818,262.087,174.818Zm0-103.745c-20.9,0-37.732,33.434-37.732,61.122,0,25.414,14.451,41.189,37.732,41.189S299.82,157.611,299.82,132.2c0-27.719-16.834-61.122-37.732-61.122Z" transform="translate(94.531 17.793)"/><path class="a" d="M195.623,137.7,175.97,159.563h65.389L221.722,137.7h13.828l-16.507-23.11h10.963L208.672,76.95l-21.334,37.639H198.3L181.779,137.7Z" transform="translate(68.323 21.884)"/><path class="b" d="M241.658,160.506h-65.4a.67.67,0,0,1-.638-.42.685.685,0,0,1,.109-.763l18.594-20.665h-12.3a.764.764,0,0,1-.623-1.137l15.713-21.989h-9.577a.7.7,0,0,1-.623-.343.732.732,0,0,1,0-.716L208.24,76.85a.748.748,0,0,1,1.246,0l21.334,37.623a.716.716,0,0,1-.623,1.059H220.62l15.713,21.988a.732.732,0,0,1-.592,1.137H223.5l18.578,20.665a.716.716,0,0,1,.125.763A.7.7,0,0,1,241.658,160.506Zm-63.848-1.417h62.2l-18.594-20.665a.747.747,0,0,1-.125-.779.716.716,0,0,1,.654-.42H234.4l-15.713-21.989a.7.7,0,0,1,0-.732.732.732,0,0,1,.638-.389h9.748L208.956,78.64l-20.12,35.474h9.748a.7.7,0,0,1,.576,1.121L183.4,137.225h12.458a.716.716,0,0,1,.529,1.2Z" transform="translate(68.087 21.641)"/><path class="c" d="M200.42,177.247H194.3l4.158-91.037Z" transform="translate(78.538 27.044)"/><path class="b" d="M200.66,178.188h-6.12a.685.685,0,0,1-.467-.187.716.716,0,0,1-.2-.514l4.158-91.037a.716.716,0,0,1,.716-.67h0a.716.716,0,0,1,.716.685l1.962,91.037a.716.716,0,0,1-.2.514A.763.763,0,0,1,200.66,178.188Zm-5.373-1.417h4.672L198.4,107.6Z" transform="translate(78.298 26.804)"/><path class="a" d="M348.046,135.334a15.713,15.713,0,0,1,.2,12.692c-3.255,7.49-11.679,13.517-17.846,18.485-12.131,9.748-29.588,10.184-43.089,2.943a59.627,59.627,0,0,1-14.015-11.1,31.145,31.145,0,0,1-6.229-8.082,18.22,18.22,0,0,1,2.741-19.419c.825-.934,3.239-2.056,3.722-3.037.934-1.869-.28-1.557-.358-3.566-.14-3.442-.67-5.9.779-9.344a13.174,13.174,0,0,1,4.672-6.229c2.118-1.308,6.042.311,7.272-.592,1.479-1.075,1.292-6.494,3.333-8.487a9.889,9.889,0,0,1,9.063-2.46c-2.18-5.248,2.647-11.43,8.253-12.318s11.181,2.087,15.4,5.9c4.843,4.391,8.721,11.072,6.681,17.286.732-2.227,11.4,5.482,12.193,6.4,4.22,4.859,3.442,9.748,1.261,15.573a10.091,10.091,0,0,1,5.964,5.357Z" transform="translate(118.172 26.179)"/><path class="b" d="M307.295,175.37a42.529,42.529,0,0,1-20.073-5.061,61.774,61.774,0,0,1-14.14-11.228,32.39,32.39,0,0,1-6.385-8.269,18.952,18.952,0,0,1,2.85-20.244,10.7,10.7,0,0,1,1.791-1.386,6.664,6.664,0,0,0,1.822-1.557c.389-.779.311-.919.093-1.339a4.142,4.142,0,0,1-.529-1.884,10.922,10.922,0,0,0-.093-1.775,15.37,15.37,0,0,1,.934-7.786,13.455,13.455,0,0,1,5.03-6.54,7.786,7.786,0,0,1,4.828-.529,5.311,5.311,0,0,0,2.4,0,7.507,7.507,0,0,0,1.106-3.115,8.861,8.861,0,0,1,10.683-8.129,8.674,8.674,0,0,1,1.028-6.307,11.726,11.726,0,0,1,8.144-5.809c6.868-1.09,12.956,3.333,15.978,6.073,4.469,4.049,8.534,10.434,7.241,16.741,3.333.436,11.2,6.431,11.7,7.008,4.2,4.827,3.769,9.748,1.651,15.573a10.9,10.9,0,0,1,5.591,5.482h0a16.553,16.553,0,0,1,.218,13.283c-2.959,6.805-10.122,12.458-15.868,17.021l-2.2,1.744a37.873,37.873,0,0,1-23.795,8.036Zm-25.9-66.246a4.049,4.049,0,0,0-2.056.436,12.3,12.3,0,0,0-4.469,5.886,14.109,14.109,0,0,0-.825,7.195c0,.576.078,1.184.109,1.806a2.616,2.616,0,0,0,.358,1.293,2.383,2.383,0,0,1-.078,2.632,6.882,6.882,0,0,1-2.3,2.024,9.609,9.609,0,0,0-1.557,1.152,17.441,17.441,0,0,0-2.632,18.687,31.378,31.378,0,0,0,6.12,7.9,60.219,60.219,0,0,0,13.813,10.979c13.906,7.444,30.912,6.229,42.3-2.881l2.2-1.744c5.933-4.672,12.629-10,15.448-16.46a15.074,15.074,0,0,0-.187-12.1,9.25,9.25,0,0,0-5.45-5,.716.716,0,0,1-.42-.374.779.779,0,0,1,0-.561c2.211-5.793,2.788-10.293-1.137-14.794-2.445-2.8-10.512-6.712-11.057-6.54a.638.638,0,0,1-.856.4.748.748,0,0,1-.4-.95h0c1.978-6.058-2.056-12.458-6.494-16.538C318.974,89,313.29,84.862,307,85.843a10.418,10.418,0,0,0-7.132,5.108,7.085,7.085,0,0,0-.576,6.229.732.732,0,0,1-.109.747.748.748,0,0,1-.716.218,9.188,9.188,0,0,0-8.394,2.289,10.122,10.122,0,0,0-1.7,4.516c-.4,1.791-.747,3.333-1.651,3.987a5.155,5.155,0,0,1-3.379.311,18.824,18.824,0,0,0-1.947-.125Z" transform="translate(117.921 25.947)"/><path class="c" d="M321.432,119.135l-19.808,13.112L300.611,99.28l-1.9,7.179-.436,36.378L276.5,123.573l-.265,2.087,21.817,21.085-2.694,50.237h8.254l-1.806-58.74,17.8-14.669Z" transform="translate(124.2 34.327)"/><path class="b" d="M303.87,197.91h-8.253a.685.685,0,0,1-.514-.218.67.67,0,0,1-.2-.529l2.694-49.832-21.6-20.867a.7.7,0,0,1-.2-.592l.265-2.1a.7.7,0,0,1,1.168-.436l20.6,18.235.42-34.82a.56.56,0,0,1,0-.171l1.9-7.195a.716.716,0,0,1,1.4.171l.981,31.69,18.687-12.458a.7.7,0,0,1,.841,0,.67.67,0,0,1,.2.81l-1.822,4.438a.716.716,0,0,1-.2.28l-17.519,14.451,1.869,58.413a.67.67,0,0,1-.2.514.7.7,0,0,1-.514.218Zm-7.506-1.417h6.774l-1.775-58.008a.685.685,0,0,1,.249-.576l17.659-14.545.872-2.133-17.862,11.835a.685.685,0,0,1-.732,0,.716.716,0,0,1-.374-.607l-.872-28.124-.638,2.414-.42,36.284a.716.716,0,0,1-.436.638.7.7,0,0,1-.747-.125l-20.774-18.313v.389l21.568,20.836a.716.716,0,0,1,.218.561Z" transform="translate(123.947 34.1)"/><path class="c" d="M250,81.54l2.367,110.3H246.09Z" transform="translate(107.398 24.441)"/><path class="b" d="M252.6,192.813h-6.229a.7.7,0,0,1-.514-.218.732.732,0,0,1-.2-.529l3.924-110.3a.716.716,0,0,1,.7-.685h0a.7.7,0,0,1,.7.7l2.351,110.3a.716.716,0,0,1-.2.514A.685.685,0,0,1,252.6,192.813Zm-5.528-1.433h4.812l-1.806-84.544Z" transform="translate(107.153 24.185)"/><path class="b" d="M200.354,258.25,102.4,185.37,53.8,245.714l101.1,58.771Z" transform="translate(0.243 82.302)"/><path class="b" d="M155.14,305.414a.684.684,0,0,1-.343-.078L53.7,246.55a.685.685,0,0,1-.327-.467.732.732,0,0,1,.14-.561L102.1,185.194a.685.685,0,0,1,.95-.125L201,257.949a.685.685,0,0,1,.093,1.028l-45.519,46.235a.685.685,0,0,1-.436.2ZM55.086,245.771l99.945,58.1,44.522-45.3-96.8-71.977Z" transform="translate(0 82.057)"/><circle class="d" cx="42.326" cy="42.326" r="42.326" transform="translate(127.717 70.414)"/><path class="e" d="M143.7,144.41a43.1,43.1,0,1,1,43.152-43.1,43.1,43.1,0,0,1-43.152,43.1Zm0-84.637A41.548,41.548,0,1,0,185.293,101.3,41.548,41.548,0,0,0,143.7,59.773Z" transform="translate(26.345 11.435)"/></g></svg>