<svg xmlns="http://www.w3.org/2000/svg" width="526.876" height="511.106" viewBox="0 0 526.876 511.106"><defs><style>.a{fill:#fff;}.b{fill:#231f20;}.c{fill:#686efd;}.d{fill:#d1d3d4;}</style></defs><g transform="translate(-74.05 -23.157)"><path class="a" d="M303.865,183.761s7.918-14.727,6.044-18.575-6.326-12.088-7.817-16.3,3.667-21.557,8.522-24.821c3.042-2.015,7.9,1.632,7.313,5.782s-2.679,13.4-2.679,13.4,7.756-14.324,8.059-17.89-7.253-19.5-5.923-25.909c.685-3.385,7.555-4.815,10.234-1.249s5.923,22.463,5.943,22.524a15.213,15.213,0,0,1,.725-3.727c.383-1.773,1.148-3.445,1.531-5.238a27.2,27.2,0,0,0,0-10.9c-.363-1.813-.907-3.606-1.37-5.4a4.209,4.209,0,0,1-.141-2.015,3,3,0,0,1,2.2-1.894,6.386,6.386,0,0,1,5.52,1.249,11.826,11.826,0,0,1,3.465,4.654,20.952,20.952,0,0,1,1.854,11.121c-.222,2.015-.443,7.112-2.015,8.522.121-.121,6.245-5.923,8.582-1.813a25.687,25.687,0,0,1,2.377,10.678s11.564-6.527,12.088,2.659-12.209,40.172-16.661,44.323-8.582,7.7-8.582,7.7l-10.073,21.537" transform="translate(231.12 69.215)"/><path class="b" d="M333.807,203.626a1.007,1.007,0,0,1-.423,0,1.028,1.028,0,0,1-.5-1.33l10.073-21.557a.806.806,0,0,1,.262-.322s4.17-3.586,8.542-7.676,16.923-34.491,16.339-43.517a4.029,4.029,0,0,0-1.733-3.526c-2.478-1.35-7.273.745-8.925,1.672a.967.967,0,0,1-.987,0,1.007,1.007,0,0,1-.5-.866,24.962,24.962,0,0,0-2.236-10.073,1.712,1.712,0,0,0-1.249-.947c-1.672-.222-4.372,1.652-5.782,2.982a1.007,1.007,0,1,1-1.39-1.451c.987-.947,1.37-5.037,1.531-6.789a3.643,3.643,0,0,1,.1-1.108,19.885,19.885,0,0,0-1.753-10.6,10.86,10.86,0,0,0-3.163-4.271,5.46,5.46,0,0,0-4.634-1.088,2.116,2.116,0,0,0-1.511,1.189,3.244,3.244,0,0,0,.161,1.531c.141.625.322,1.249.484,1.874.322,1.189.645,2.377.886,3.586a25.808,25.808,0,0,1-.866,14.1,21.139,21.139,0,0,0-.745,2.458,4.73,4.73,0,0,1-.222.947,11.162,11.162,0,0,0-.484,2.4h0a1.024,1.024,0,1,1-2.015.363h0c-.826-4.835-3.667-19.3-5.742-22.161a5.279,5.279,0,0,0-5.339-1.511,3.788,3.788,0,0,0-3.123,2.357c-.745,3.606,1.672,10.879,3.626,16.722,1.531,4.614,2.458,7.535,2.337,9.066-.3,3.667-7.353,16.8-8.059,18.293a1.007,1.007,0,0,1-1.229.463,1.028,1.028,0,0,1-.786-1.35c0-.1,2.015-9.247,2.659-13.317a4.835,4.835,0,0,0-2.337-4.573,3.082,3.082,0,0,0-3.4-.222c-4.694,3.143-9.409,20.147-8.059,23.632.947,2.639,3.183,7.011,5.137,10.879,1.068,2.015,2.015,4.029,2.659,5.339,1.894,4.029-4.795,16.943-6.165,19.462a.987.987,0,0,1-1.35.423,1.007,1.007,0,0,1-.423-1.37c2.962-5.52,7.253-15.211,6.044-17.669-.625-1.35-1.571-3.223-2.619-5.278a118.4,118.4,0,0,1-5.238-11.1c-1.672-4.694,3.868-22.6,8.9-25.989a5,5,0,0,1,5.6.2,6.789,6.789,0,0,1,3.264,6.568c-.222,1.571-.645,3.848-1.108,6.044a51.438,51.438,0,0,0,4.493-10.758,38.277,38.277,0,0,0-2.236-8.28c-2.136-6.386-4.533-13.619-3.667-17.769a5.641,5.641,0,0,1,4.634-3.908,7.233,7.233,0,0,1,7.394,2.277c1.894,2.538,4.029,12.088,5.178,17.951l.483-1.451a25.646,25.646,0,0,0,.745-2.538,26.312,26.312,0,0,0,0-10.5c-.222-1.169-.544-2.317-.866-3.465l-.5-1.894a5.037,5.037,0,0,1-.121-2.579,4.029,4.029,0,0,1,3.062-2.5,7.394,7.394,0,0,1,6.386,1.41,12.894,12.894,0,0,1,3.788,5.037,22.161,22.161,0,0,1,2.015,11.665,4.374,4.374,0,0,1-.1,1.068c-.141,1.511-.3,3.022-.564,4.352a7.213,7.213,0,0,1,4.473-1.269,3.747,3.747,0,0,1,2.72,2.015,24.338,24.338,0,0,1,2.438,9.59c2.216-1.007,6.528-2.559,9.429-.987a5.8,5.8,0,0,1,2.78,5.178c.625,9.67-12.43,40.857-16.983,45.108-3.908,3.646-7.636,6.89-8.441,7.6L334.774,203.2A.987.987,0,0,1,333.807,203.626Z" transform="translate(230.632 68.731)"/><rect class="a" width="12.894" height="62.172" transform="matrix(-0.927, -0.374, 0.374, -0.927, 566.068, 160.763)"/><path class="b" d="M324.77,124.446a1.15,1.15,0,0,1-.363,0l-11.947-4.835a1.007,1.007,0,0,1-.564-1.31l23.269-57.66a1.027,1.027,0,0,1,.544-.544,1.008,1.008,0,0,1,.766,0l11.967,4.714a1.007,1.007,0,0,1,.564,1.31l-23.29,57.66a1.027,1.027,0,0,1-.544.544A.907.907,0,0,1,324.77,124.446Zm-10.577-6.427,10.073,4.029,22.5-55.786L336.7,62.234Z" transform="translate(241.261 37.406)"/><rect class="b" width="12.894" height="2.901" transform="matrix(-0.927, -0.374, 0.374, -0.927, 573.21, 142.89)"/><path class="b" d="M328.324,87.86a1.27,1.27,0,0,1-.383,0l-11.947-4.835a.987.987,0,0,1-.544-1.31l1.068-2.679a1.027,1.027,0,0,1,.544-.544.967.967,0,0,1,.786,0L329.8,83.327a.987.987,0,0,1,.544,1.31l-1.068,2.679a1.028,1.028,0,0,1-.544.544.967.967,0,0,1-.4,0Zm-10.637-6.386L327.76,85.5l.322-.806-10.073-4.029Z" transform="translate(244.858 56.062)"/><line class="a" x1="7.515" y1="3.022" transform="translate(569.435 130.767)"/><path class="b" d="M327.965,81.143a1.269,1.269,0,0,1-.383,0l-7.515-3.163a1.012,1.012,0,1,1,.766-1.874l7.515,3.042a.987.987,0,0,1,.544,1.31A1.007,1.007,0,0,1,327.965,81.143Z" transform="translate(248.985 53.652)"/><line class="a" x1="5.581" y1="2.256" transform="translate(573.384 126.556)"/><path class="b" d="M327.99,78.2a.826.826,0,0,1-.383,0l-5.581-2.216a1.012,1.012,0,0,1,.766-1.874l5.56,2.256a1.007,1.007,0,0,1,.564,1.31,1.028,1.028,0,0,1-.927.524Z" transform="translate(250.974 51.622)"/><line class="a" x1="5.56" y1="2.256" transform="translate(575.399 121.58)"/><path class="b" d="M328.971,75.735a1.168,1.168,0,0,1-.363,0l-5.581-2.256a1.027,1.027,0,0,1-.564-1.31,1.048,1.048,0,0,1,1.33-.544l5.561,2.236a1.025,1.025,0,0,1-.383,2.015Z" transform="translate(251.989 49.108)"/><line class="a" x1="7.515" y1="3.022" transform="translate(575.459 115.818)"/><path class="b" d="M331,73.675h-.383L323.1,70.633a1.007,1.007,0,1,1,.766-1.854L331.38,71.8a.987.987,0,0,1,.544,1.31A.947.947,0,0,1,331,73.675Z" transform="translate(251.977 46.172)"/><line class="a" x1="5.581" y1="2.236" transform="translate(579.408 111.627)"/><path class="b" d="M330.973,70.8a1.269,1.269,0,0,1-.383,0L325.03,68.54a1.008,1.008,0,0,1,.745-1.874l5.581,2.256a.987.987,0,0,1,.544,1.31A1.007,1.007,0,0,1,330.973,70.8Z" transform="translate(254.015 44.075)"/><line class="a" x1="5.581" y1="2.256" transform="translate(581.423 106.631)"/><path class="b" d="M331.98,68.318a.826.826,0,0,1-.383,0l-5.581-2.236a1.012,1.012,0,0,1,.766-1.874l5.56,2.256a1.007,1.007,0,0,1,.564,1.31,1.027,1.027,0,0,1-.927.544Z" transform="translate(255.023 41.577)"/><rect class="a" width="8.723" height="8.723" transform="matrix(-0.927, -0.374, 0.374, -0.927, 587.347, 102.317)"/><path class="b" d="M333.36,69.682a1.148,1.148,0,0,1-.363,0l-8.059-3.264a1.028,1.028,0,0,1-.544-.544,1.109,1.109,0,0,1,0-.766l3.284-8.059a1.007,1.007,0,0,1,1.31-.564l8.059,3.264a1.007,1.007,0,0,1,.564,1.33l-3.264,8.059A1.007,1.007,0,0,1,333.36,69.682Zm-6.769-4.815,6.225,2.5,2.518-6.225-6.225-2.5Z" transform="translate(253.946 33.745)"/><path class="a" d="M332.368,62.229l-5.238-2.115L331.1,54.15l2.559,1.027Z" transform="translate(256.791 31.448)"/><path class="b" d="M332.879,63.759a1.269,1.269,0,0,1-.383,0l-5.238-2.115a1.028,1.028,0,0,1-.463-1.511l4.029-6.044a1.027,1.027,0,0,1,1.229-.383l2.539,1.027a1.028,1.028,0,0,1,.625,1.128l-1.289,7.051a.987.987,0,0,1-.987.826Zm-3.727-3.586,2.962,1.189.907-5.037-1.027-.423Z" transform="translate(256.28 30.925)"/><path class="a" d="M339.563,42.61,329.53,66.2l.886.363Z" transform="translate(259.226 19.739)"/><path class="b" d="M330.959,67.983a1.168,1.168,0,0,1-.383,0l-.886-.363a1.027,1.027,0,0,1-.544-.544.887.887,0,0,1,0-.786L339.22,42.719a1.007,1.007,0,0,1,1.853.745L331.926,67.4a1.007,1.007,0,0,1-.524.584A1.431,1.431,0,0,1,330.959,67.983Z" transform="translate(258.743 19.328)"/><ellipse class="a" cx="2.76" cy="14.385" rx="2.76" ry="14.385" transform="matrix(0.374, -0.927, 0.927, 0.374, 546.231, 155.819)"/><path class="b" d="M334.392,100.875a16.861,16.861,0,0,1-3.1-.363,57.1,57.1,0,0,1-9.932-3.123c-2.377-.967-14.2-5.923-12.854-9.247.5-1.269,2.277-1.531,5.762-.846a56.852,56.852,0,0,1,9.932,3.1,57.554,57.554,0,0,1,9.288,4.734c2.982,2.015,4.029,3.344,3.566,4.614C336.729,100.472,335.8,100.875,334.392,100.875ZM310.559,88.968c.806,1.068,4.553,3.727,11.564,6.548s11.544,3.526,12.874,3.3c-.806-1.068-4.553-3.727-11.564-6.548S311.888,88.766,310.559,88.968Zm-1.128-.463Z" transform="translate(237.783 64.705)"/><path class="a" d="M307.12,122.574l6.366,2.559,13.136-32.577s-.322-1.169-2.861-2.2S320.256,90,320.256,90Z" transform="translate(236.487 67.605)"/><path class="b" d="M314,126.618a1.167,1.167,0,0,1-.383,0l-6.366-2.579a1.007,1.007,0,0,1-.564-1.31l13.156-32.577a.988.988,0,0,1,.363-.443c.222-.161,1.531-.927,4.452.242s3.385,2.6,3.445,2.881a1.007,1.007,0,0,1,0,.645l-13.156,32.577a1.028,1.028,0,0,1-.544.544A.867.867,0,0,1,314,126.618Zm-5.057-4.029,4.493,1.813,12.592-31.187a5.338,5.338,0,0,0-2.136-1.35,5.1,5.1,0,0,0-2.357-.484Z" transform="translate(235.974 67.127)"/><ellipse class="a" cx="1.511" cy="7.837" rx="1.511" ry="7.837" transform="matrix(0.374, -0.927, 0.927, 0.374, 539.441, 190.147)"/><path class="b" d="M319.288,113.15a23.029,23.029,0,0,1-7.132-1.894c-3.062-1.229-8.059-3.606-7.253-5.641h0c.483-1.189,2.2-1.027,3.647-.725a31.411,31.411,0,0,1,5.48,1.712,32.23,32.23,0,0,1,5.158,2.559c1.229.806,2.6,1.874,2.115,3.082C321,112.908,320.255,113.15,319.288,113.15ZM307.8,106.783a33.705,33.705,0,0,0,10.6,4.291A33.705,33.705,0,0,0,307.8,106.783Z" transform="translate(234.151 82.711)"/><path class="b" d="M336.328,136.823a4.371,4.371,0,0,1-1.531-.262,5.8,5.8,0,0,1-3.3-3.284,12.269,12.269,0,0,1-.443-7.636c-.887,1.027-1.854,2.015-2.9,3.042a10.8,10.8,0,0,1-4.029,2.72,4.936,4.936,0,0,1-5.178-1.068c-1.753-1.914-1.108-4.734-.483-6.709a57.337,57.337,0,0,1,10.255-19.844,1,1,0,1,1,1.531,1.289,55.749,55.749,0,0,0-9.872,19.18c-.745,2.357-.725,3.848,0,4.714a2.982,2.982,0,0,0,3.042.524,8.885,8.885,0,0,0,3.244-2.256,32.092,32.092,0,0,0,7.212-9.731h0a.987.987,0,0,1,1.33-.484,1.007,1.007,0,0,1,.5,1.33h0c-1.451,3.143-4.452,9.691-2.5,14.1a3.289,3.289,0,0,0,5.822,1.088,13.859,13.859,0,0,0,2.639-4.029l3.445-7.051a1.007,1.007,0,0,1,1.35-.443.987.987,0,0,1,.463,1.33L343.48,130.4a15.7,15.7,0,0,1-3.082,4.674,6.386,6.386,0,0,1-4.07,1.753Z" transform="translate(247.331 81.441)"/><path class="a" d="M308.53,117.12s20.247,8.059,22.6,18.676" transform="translate(237.918 95.341)"/><path class="b" d="M331.637,137.313a.987.987,0,0,1-.987-.786c-2.216-10.073-21.779-17.89-21.98-17.971a1.007,1.007,0,0,1-.564-1.31,1.027,1.027,0,0,1,1.309-.564c.846.342,20.751,8.341,23.189,19.4a1.007,1.007,0,0,1-.766,1.209Z" transform="translate(237.415 94.831)"/><path class="b" d="M161.883,226.91s-27.52,69.949-23.974,99.6H347.051s-6.789-71.138-16.379-96.7Z" transform="translate(64.476 206.741)"/><path class="b" d="M347.554,328.03H138.412a1.007,1.007,0,0,1-.987-.886c-3.546-29.555,22.907-97.228,24.035-100.088a1.128,1.128,0,0,1,.947-.645l168.788,2.962a1.007,1.007,0,0,1,.927.665c9.529,25.324,16.359,96.16,16.44,96.885a1.048,1.048,0,0,1-.262.765,1.007,1.007,0,0,1-.745.343Zm-208.235-2.015H346.426c-.907-9.046-7.313-70.8-15.976-94.689l-167.358-2.881C160.351,235.516,136.619,298.112,139.318,326.015Z" transform="translate(63.973 206.233)"/><path class="c" d="M312.477,347.9C303.854,291.166,266.7,115.79,266.7,115.79c-31.852,9.247-52.724,1.894-52.724,1.894s-57.74,184.3-67.37,230.215Z" transform="translate(73.624 93.992)"/><path class="a" d="M472.228,146.609l-46.821,78.149L351.49,134.1c-9.952-17.125-57.257-17.125-57.257-17.125s-73.172-4.956-87.879-.161c0,0-57.72,17.648-69.183,30.22s20.731,70.594,22.3,131.437-24.639,122.25-24.639,122.25l76.819,21.859s14.626-98.356,14.626-145.438c0-96.442-.222-158.332-.222-158.332l52.24,1.672s-1.712,91.667-4.372,161.959c-3.445,91.687,16.5,140.14,16.5,140.14l69.828-18.414S337.427,321.22,337.73,277.24a291.33,291.33,0,0,1,3.727-39.064c23.39,28.729,66.141,93.077,99.967,79.619C467.252,307.5,515.1,177.514,515.1,177.514Z" transform="translate(61.548 92.908)"/><path class="b" d="M290.908,424.121a1.007,1.007,0,0,1-.927-.625c-.2-.483-19.985-49.7-16.581-140.563,2.478-65.577,4.17-150.8,4.352-160.951l-50.185-1.612c0,8.542.2,68.7.2,157.3,0,46.619-14.485,144.612-14.647,145.6a1.007,1.007,0,0,1-1.269.806l-76.819-21.859a1.027,1.027,0,0,1-.645-1.37c.262-.6,26.191-61.87,24.559-121.806-.786-30.7-9.348-60.44-16.238-84.495s-11.786-41.079-5.742-47.727c11.5-12.692,67.27-29.837,69.647-30.562,14.687-4.795,85.22,0,88.222.121h0c2.4,0,47.949.3,58.042,17.628L425.89,223.6l46.035-76.92a.987.987,0,0,1,.665-.463.967.967,0,0,1,.806.181l42.852,30.965a1.007,1.007,0,0,1,.363,1.148c-2.015,5.339-48.352,130.53-74.24,140.865a26.572,26.572,0,0,1-9.912,1.894c-27.7,0-58.989-40.414-80.586-68.176-3.284-4.251-6.407-8.3-9.267-11.846a274.928,274.928,0,0,0-3.344,36.506c-.3,43.436,22.262,125.916,22.484,126.742a.987.987,0,0,1,0,.786.947.947,0,0,1-.6.463L291.17,424.121A.643.643,0,0,1,290.908,424.121Zm-64.368-305.7h0l52.24,1.672a.987.987,0,0,1,.967,1.027c0,.907-1.753,92.473-4.372,161.959-3.143,84.011,13.579,132.162,16.117,138.911l67.914-18.011c-2.559-9.489-22.564-85.18-22.282-126.319a287.223,287.223,0,0,1,3.828-38.883,1.047,1.047,0,0,1,.725-.826,1.027,1.027,0,0,1,1.048.342c3.244,4.029,6.89,8.683,10.738,13.659,23.753,30.663,59.614,77,88.081,65.658,24.176-9.61,68.942-128.556,72.83-139.012l-41.361-29.857-46.2,77.182a1.047,1.047,0,0,1-.806.484.987.987,0,0,1-.846-.363l-73.9-90.66c-9.65-16.581-56.028-16.762-56.41-16.762-.806,0-73.213-4.9-87.557-.2-.6.181-57.619,17.709-68.76,29.978-5.278,5.822-.222,23.471,6.185,45.813,6.91,24.176,15.513,54.053,16.319,85,1.471,56.048-20.852,113.184-24.277,121.6l74.542,21.235c1.612-11.1,14.445-100.411,14.445-144.149,0-95.334-.2-157.728-.222-158.332a1.354,1.354,0,0,1,1.007-1.148Z" transform="translate(61.065 92.312)"/><path class="a" d="M168.577,95.658c-.322,5.8,1.027,11.564,1.39,17.346s-.423,12.088-4.271,16.42c-4.311,4.916-11.645,6.225-18.132,4.936s-12.088-4.734-17.729-8.059c-.282,9.771,5.6,19.139,13.861,24.357,14.365,9.066,42.429,7.736,57.74,1.773,11.705-4.553,21.859-13.982,25.385-26.05,3.425-11.665.443-24.3-4.291-35.5-5.258-12.41-15.251-23.813-29.857-23.652C179.7,67.291,169.222,84.053,168.577,95.658Z" transform="translate(56.593 44.719)"/><path class="b" d="M173.37,158.669c-11.222,0-22.3-2.015-29.676-6.689a29.978,29.978,0,0,1-14.324-25.244,1.048,1.048,0,0,1,.544-.866.967.967,0,0,1,.987,0c5.178,3.143,11.04,6.729,17.407,8.059,5.359,1.068,12.652.423,17.1-4.614,3.082-3.505,4.432-8.784,4.029-15.694-.141-2.015-.4-4.271-.665-6.346a61.686,61.686,0,0,1-.725-11.1,37.11,37.11,0,0,1,7.636-19.119c5.057-6.608,11.282-10.295,17.528-10.355h.322c18.132,0,27.379,16.943,30.482,24.176,5.863,13.841,7.313,26.009,4.332,36.264-3.425,11.705-13.136,21.678-25.989,26.694a83.65,83.65,0,0,1-28.991,4.835ZM131.4,128.57a28.205,28.205,0,0,0,13.337,21.7c13.74,8.683,40.978,7.857,56.834,1.672,12.269-4.775,21.537-14.264,24.78-25.385,2.861-9.691,1.41-21.416-4.251-34.834-2.962-6.971-11.685-23.229-28.931-23.028-12.571.141-22.564,16.561-23.169,27.561h0a59.881,59.881,0,0,0,.705,10.738c.262,2.015.544,4.311.685,6.487.463,7.454-1.068,13.236-4.513,17.145-5.017,5.681-13.115,6.447-19.018,5.258a52.624,52.624,0,0,1-16.46-7.313Zm37.634-32.376Z" transform="translate(56.132 44.182)"/><path class="b" d="M165.465,92.547A19.18,19.18,0,0,1,155.029,81a16.117,16.117,0,0,1,2.941-15.05,10.677,10.677,0,0,1,3.929-2.962,11.081,11.081,0,0,1,4.734-.665A18.132,18.132,0,0,1,182.59,74.8C186.055,86.342,177.513,97.966,165.465,92.547Z" transform="translate(81.423 39.711)"/><path class="b" d="M171.921,95.453a15.311,15.311,0,0,1-6.366-1.471h0a20.247,20.247,0,0,1-10.98-12.088,17.245,17.245,0,0,1,3.163-16.117,11.222,11.222,0,0,1,4.291-3.223,11.826,11.826,0,0,1,5.157-.745,19.039,19.039,0,0,1,16.863,13.176,16.9,16.9,0,0,1-4.19,17.467A11.806,11.806,0,0,1,171.921,95.453Zm-5.621-3.3a10.8,10.8,0,0,0,12.088-1.169,14.908,14.908,0,0,0,3.606-15.372,17,17,0,0,0-15.05-11.745,9.771,9.771,0,0,0-4.291.6,9.388,9.388,0,0,0-3.546,2.659,15.211,15.211,0,0,0-2.74,14.1,18.132,18.132,0,0,0,9.872,10.9Z" transform="translate(80.911 39.181)"/><path class="a" d="M202.047,32.328l-.262.181c-1.632,1.128-7.333,7.817-8.764,7.877-59.574,1.753-35.639,85-5.48,108.53,11.987,9.368,32.96,17.306,48.171,13.68,11.262-2.679,21.6-12.088,22.04-23.672,11.705-.927,24.337-2.256,33.02-10.073a39.609,39.609,0,0,0,10.416-18.132A66.484,66.484,0,0,0,296.8,60.493C282.432,33.9,244.416,17.5,215.364,25.982a46.217,46.217,0,0,0-13.317,6.346Z" transform="translate(83.442 0.586)"/><path class="b" d="M228.149,165.076c-14.1,0-30.583-6.91-40.676-14.767-20.65-16.117-38.279-59.251-29.253-86.63,4.916-14.989,17.125-23.209,35.317-23.733a36.868,36.868,0,0,0,4.976-4.553,33.32,33.32,0,0,1,3.264-3.123l.282-.181a47.446,47.446,0,0,1,13.6-6.648c29.313-8.562,67.914,7.8,82.6,34.995a67.29,67.29,0,0,1,4.452,51.051,40.051,40.051,0,0,1-10.7,18.676c-9.046,8.24-22.564,9.529-32.738,10.335-.987,12.269-12.088,21.194-22.786,23.733a36.265,36.265,0,0,1-8.341.846Zm4.211-139.918a57.418,57.418,0,0,0-16.117,2.216,45.229,45.229,0,0,0-13.015,6.366h0l-.242.181A36.707,36.707,0,0,0,200,36.783c-3.506,3.586-5.158,5.158-6.346,5.2-17.266.5-28.83,8.24-33.464,22.343-8.723,26.634,8.421,68.66,28.568,84.394,11.786,9.187,32.376,17.044,47.324,13.5,10.174-2.377,20.852-11.02,21.214-22.746a1.027,1.027,0,0,1,.927-.967c12.451-.987,24.3-2.5,32.436-9.892a38.118,38.118,0,0,0,10.073-17.769,65.356,65.356,0,0,0-4.332-49.46C284.781,39.744,257.5,25.158,232.359,25.158Zm-29.817,7.756Z" transform="translate(82.947)"/><path class="a" d="M212,80.774c3.062-17.89,32.9-21.98,31.187-.866a31.207,31.207,0,0,1-8.059,19.764c-5.158,5.137-13.418,7.495-20.026,4.452" transform="translate(139.973 43.122)"/><path class="b" d="M221.913,107.028a16.238,16.238,0,0,1-6.789-1.43,1.007,1.007,0,0,1-.5-1.35.987.987,0,0,1,1.33-.484c5.883,2.7,13.659.967,18.9-4.251,5.681-5.661,7.414-13.539,7.857-19.139.6-7.354-2.941-12.229-9.469-13.055-8.059-1.007-18.132,4.573-19.724,14.1a1.022,1.022,0,0,1-2.015-.343c1.833-10.738,13.035-16.943,21.96-15.835,6.044.745,12.088,5.137,11.222,15.211-.484,6.044-2.337,14.3-8.441,20.388a20.67,20.67,0,0,1-14.324,6.185Z" transform="translate(139.448 42.576)"/><path class="a" d="M190.9,80.593c-2.679-17.971-32.416-22.725-31.167-1.571a31.248,31.248,0,0,0,7.716,19.945c5.037,5.238,13.236,7.8,19.925,4.9" transform="translate(86.897 42.498)"/><path class="b" d="M181.864,106.59a20.63,20.63,0,0,1-14.606-6.407c-6.044-6.225-7.656-14.626-8.059-20.59-.584-10.073,5.581-14.344,11.564-14.969,8.945-.927,20.006,5.56,21.6,16.319a1.007,1.007,0,0,1-.846,1.148,1.027,1.027,0,0,1-1.148-.846c-1.31-9.731-11.383-15.432-19.341-14.606-6.548.685-10.194,5.48-9.751,12.833.322,5.621,1.874,13.539,7.434,19.3,5.117,5.339,12.854,7.253,18.8,4.674a1.007,1.007,0,0,1,.786,1.853A16.117,16.117,0,0,1,181.864,106.59Z" transform="translate(86.359 41.987)"/><path class="d" d="M192.843,282.155a.987.987,0,0,1-.947-.685c-.967-2.72-23.43-66.846-25.163-76.416-1.551-8.683,15.251-23.471,20.57-27.9-6.85-1.813-24.539-6.85-26.191-10.6-1.793-4.029,16.54-38.037,22.161-48.352a.987.987,0,0,1,1.37-.383.967.967,0,0,1,.383,1.35C173.6,140,162.2,163.128,162.865,165.768c.947,2.176,14.344,6.769,26.735,9.932a1.027,1.027,0,0,1,.725.766,1.007,1.007,0,0,1-.363,1.007c-6.386,5.077-22.685,19.844-21.355,27.238,1.692,9.408,24.841,75.429,25.062,76.094a1.007,1.007,0,0,1-.6,1.289Z" transform="translate(88.214 95.912)"/><path class="d" d="M207.3,283.295a1.068,1.068,0,0,1-.463-.121.987.987,0,0,1-.423-1.35c.3-.6,31.086-60.541,32.839-74.683,0-4.674-17.286-14.969-28.205-20.328a1.007,1.007,0,0,1-.564-.907,1.068,1.068,0,0,1,.584-.907c7.353-3.465,26.714-14.1,28.1-21.255s-12.793-35.8-18.374-46.136a1.007,1.007,0,0,1,.4-1.37,1.028,1.028,0,0,1,1.37.4c.826,1.551,20.388,37.956,18.575,47.486-1.592,8.3-21.174,18.7-27.379,21.8,6.789,3.445,27.6,14.586,27.5,21.335-1.793,14.626-31.771,73.011-33.04,75.489a1.027,1.027,0,0,1-.927.544Z" transform="translate(134.18 94.328)"/><path class="b" d="M241.194,197.111a3.022,3.022,0,0,1-2.619-1.511c-.443-.725-.484-1.189-.987-5.46-7.031-59.735-20.771-72.266-31.066-72.266h0a3.022,3.022,0,0,1-3.022-3.022,2.982,2.982,0,0,1,3.042-3.022c27.923,0,34.813,58.425,37.07,77.6.181,1.571.363,3.2.463,3.707a3.042,3.042,0,0,1-1.289,3.647,2.982,2.982,0,0,1-1.592.322ZM243.793,192.578ZM243.793,192.578Z" transform="translate(131.348 89.973)"/><path class="b" d="M161.172,254.977h0a3.022,3.022,0,0,1-2.941-3.1c1.048-40.495,4.634-82.42,23.692-114.534,10.859-18.333,19.119-27.3,25.244-27.42a5.54,5.54,0,0,1,4.614,2.236,3.022,3.022,0,0,1-4.614,3.828c-1.007.141-6.729,2.015-20.046,24.438-18.333,30.925-21.819,71.923-22.846,111.612A3.022,3.022,0,0,1,161.172,254.977Zm45.451-139.556Z" transform="translate(85.414 88.034)"/><path class="a" d="M180.506,150.9s16.5,15.452,27.984,15.191,24.176-13.5,24.176-13.5l-.725-12.551-1.692-29.172-1.511-27.258-46.76-.524-1.813,22.161-.544,7.212Z" transform="translate(107.118 60.812)"/><path class="b" d="M208.725,167.548c-11.725,0-27.7-14.848-28.387-15.493a.967.967,0,0,1-.322-.705l-.907-38.279.544-7.313L181.467,83.6a1.048,1.048,0,0,1,1.007-.927l46.78.524a.987.987,0,0,1,.987.947l4.029,68.982a.947.947,0,0,1-.282.745c-.524.564-13.2,13.579-24.941,13.821Zm-26.714-16.681c2.277,2.015,16.621,14.667,26.714,14.667h.262c9.973-.2,21.255-10.919,23.229-12.894l-3.929-67.592-44.887-.5-2.277,28.548Z" transform="translate(106.601 60.386)"/><path class="b" d="M179.61,101.3a43.98,43.98,0,0,0,15.19,15.634c10.073,6.507,24.982,13.841,37.211,11.846l-1.692-29.172a99.887,99.887,0,0,1-26.956,0c-7.9-.866-16-1.853-23.209-5.419Z" transform="translate(107.108 72.075)"/><path class="b" d="M228.209,130.578c-12.471,0-26.009-7.515-33.443-12.35a44.564,44.564,0,0,1-15.533-15.855.907.907,0,0,1-.121-.544l.544-7.233a1.048,1.048,0,0,1,.5-.786.987.987,0,0,1,.947,0c7.253,3.606,15.553,4.513,22.866,5.339a97.729,97.729,0,0,0,26.714,0,1.007,1.007,0,0,1,.786.222.947.947,0,0,1,.363.725l1.692,29.172a.987.987,0,0,1-.846,1.048,27.523,27.523,0,0,1-4.473.262Zm-47.062-28.971A42.872,42.872,0,0,0,195.854,116.6c7.918,5.158,22.907,13.418,35.619,11.826L229.9,101.265a101.96,101.96,0,0,1-26.191-.242c-7.031-.786-14.969-1.672-22.161-4.9Z" transform="translate(106.599 71.568)"/><path class="a" d="M211.9,157.407h4.795a41.119,41.119,0,0,0,41.562-40.575l.423-38.943s-22.967-5.6-37.855-11.222c-25-9.469-31.731-22.967-31.731-22.967a101.742,101.742,0,0,1-5.863,26.191c-2.679,6.044-11.161,17.145-11.161,17.145s-.725,20.267-.826,28.729A41.119,41.119,0,0,0,211.9,157.407Z" transform="translate(98.614 20.845)"/><path class="b" d="M217.6,159.129h-5.258a42.167,42.167,0,0,1-41.6-42.65c0-8.381.826-28.548.826-28.749a.967.967,0,0,1,.2-.584c.1,0,8.441-10.96,11.04-16.923a100.914,100.914,0,0,0,5.782-25.949,1.025,1.025,0,1,1,2.015-.383c0,.141,6.91,13.3,31.187,22.463,14.647,5.54,37.513,11.141,37.735,11.181a.987.987,0,0,1,.766,1.007l-.524,38.943A42.187,42.187,0,0,1,217.6,159.129ZM173.562,88.112c0,2.639-.725,20.63-.806,28.407a40.112,40.112,0,0,0,39.669,40.535H217.2a40.172,40.172,0,0,0,40.555-39.568l.423-38.138c-4.15-1.027-23.974-6.044-37.211-11.06-18.817-7.112-27.4-16.44-30.643-20.892a101.174,101.174,0,0,1-5.661,23.672C182.144,76.749,174.892,86.379,173.562,88.112Z" transform="translate(98.107 20.191)"/><path class="b" d="M197.051,102.18a58.423,58.423,0,0,1-6.91-.4,1.006,1.006,0,0,1,.262-1.995,54.657,54.657,0,0,0,11.685.121.524.524,0,0,0,.423-.3c2.015-3.223-2.921-19.562-6.467-29.112a1.048,1.048,0,0,1,.6-1.31,1.007,1.007,0,0,1,1.289.6c.967,2.619,9.429,25.768,6.306,30.865a2.639,2.639,0,0,1-2.015,1.269A48.069,48.069,0,0,1,197.051,102.18Z" transform="translate(116.905 46.637)"/><ellipse class="b" cx="6.971" cy="4.185" rx="6.971" ry="4.185" transform="translate(290.303 118.462) rotate(-89.37)"/><ellipse class="b" cx="6.971" cy="2.841" rx="6.971" ry="2.841" transform="translate(329.089 117.588) rotate(-89.37)"/><ellipse class="b" cx="6.971" cy="4.185" rx="6.971" ry="4.185" transform="translate(327.953 118.462) rotate(-89.37)"/><path class="b" d="M194.96,89.711a13.165,13.165,0,0,1-1.475-.055,21.8,21.8,0,0,1-13.707-6.382.4.4,0,0,1-.111-.481.569.569,0,0,1,.485-.29.611.611,0,0,1,.533.228,21.013,21.013,0,0,0,12.913,6c5.412.387,10.961-1.556,16.464-5.793a.655.655,0,0,1,.567-.137.519.519,0,0,1,.409.347.415.415,0,0,1-.193.454C205.581,87.657,200.248,89.711,194.96,89.711Z" transform="translate(118.036 74.368)"/><path class="a" d="M176.8,42.654c6.044,15.976,14.284,32.013,28.024,42.308a93.964,93.964,0,0,0,22.746,11.5c12.088,4.654,23.753,5.238,33.947,13.639a59.392,59.392,0,0,1,19.724,30.744,68.5,68.5,0,0,0-4.9-58.425c-9.61-16.3-25.526-27.742-41.24-38.279-8.582-5.762-17.951-11.6-28.205-11.423" transform="translate(104.257 9.702)"/><path class="b" d="M281.771,142.424h0a1.007,1.007,0,0,1-.907-.766,58.425,58.425,0,0,0-19.381-30.22c-6.729-5.54-14.1-7.615-22-9.791-3.808-1.068-7.736-2.156-11.685-3.687A95.756,95.756,0,0,1,204.73,86.235c-14.828-11.02-22.947-28.588-28.366-42.671a1.014,1.014,0,1,1,1.894-.725c5.319,13.821,13.256,31.066,27.681,41.784a92.413,92.413,0,0,0,22.524,11.463c3.868,1.491,7.736,2.559,11.5,3.606,8.059,2.256,15.694,4.372,22.725,10.194a60.621,60.621,0,0,1,19.18,28.205,67.934,67.934,0,0,0-5.863-54.718c-9.449-16.117-25.4-27.52-40.938-37.956-8.985-6.044-17.83-11.423-27.7-11.242a.987.987,0,0,1-1.027-.987,1.007,1.007,0,0,1,.987-1.027c10.4-.141,19.6,5.379,28.87,11.584,15.714,10.557,31.872,22.161,41.562,38.6a70.07,70.07,0,0,1,4.956,59.412A1.028,1.028,0,0,1,281.771,142.424Z" transform="translate(103.746 9.134)"/><path class="a" d="M144.247,219.37s23.289,23.43,25.687,30.6,1.189,51.575-2.377,53.953-28.447,17.87-33.786,12.491-14.808-19.6-10.073-19.018,11.846,6.527,11.846,6.527,8.744-4.513,11.786-9.368c0,0-14.747-13.76-6.447-29.757l-13.438-15.815" transform="translate(49.071 199.09)"/><path class="b" d="M137.728,319.026a5.6,5.6,0,0,1-4.17-1.39c-3.526-3.546-13.176-16.117-11.443-19.7a2.015,2.015,0,0,1,2.2-1.007c4.251.524,10.073,4.9,11.846,6.306a36.488,36.488,0,0,0,10.355-8.059c-2.72-2.881-13.277-15.412-6.326-29.716l-13.015-15.311a.987.987,0,0,1,0-1.41,1.027,1.027,0,0,1,1.43.1l13.438,15.815a1.007,1.007,0,0,1,.141,1.128c-7.857,15.15,6.044,28.427,6.225,28.548a.987.987,0,0,1,.161,1.269c-3.143,5.037-11.786,9.549-12.088,9.731a.987.987,0,0,1-1.108-.121s-6.93-5.742-11.322-6.286a.665.665,0,0,0-.242,0c-.564,1.491,5.7,11.806,11.161,17.306,3.808,3.848,23.048-6.326,32.517-12.632,2.82-2.478,4.432-45.411,2.015-52.784-2.277-6.81-25.2-29.978-25.425-30.22a1.011,1.011,0,1,1,1.43-1.43c.947.967,23.491,23.733,25.909,30.985,2.015,6.286,1.712,52.119-2.78,55.121C168.431,305.447,147.841,319.026,137.728,319.026Z" transform="translate(48.56 198.576)"/><path class="a" d="M198.311,130.74s-124.083,96.7-123.72,118.4c.242,15.593,99.2,102.022,99.2,102.022l31.691-35.841-48.976-59.694,69.385-47.183" transform="translate(0.548 109.161)"/><path class="b" d="M174.26,352.673a1.007,1.007,0,0,1-.665-.242c-4.029-3.546-99.282-86.912-99.544-102.748-.161-9.328,20.731-32.235,62.072-68.136,30.643-26.594,61.729-50.85,62.031-51.092a1.027,1.027,0,0,1,1.43.181,1.007,1.007,0,0,1-.181,1.41c-.3.242-31.368,24.458-61.971,51.031-50.91,44.182-61.467,60.581-61.367,66.484.2,12.31,70.151,76.154,98.094,100.632l30.462-34.451-48.352-59.03a1.007,1.007,0,0,1-.222-.786.987.987,0,0,1,.443-.685l69.385-47.2a1.014,1.014,0,0,1,1.148,1.672l-68.5,46.579,48.352,58.848a1.007,1.007,0,0,1,0,1.31L175.186,352.27a.967.967,0,0,1-.927.4Z" transform="translate(0 108.659)"/><path class="b" d="M256.1,281.492a30.71,30.71,0,0,1-4.553-.363,18.919,18.919,0,0,1-8.764-3.767,17.123,17.123,0,0,1-5.278,2.015c-18.736,4.029-26.513-5.44-26.835-5.843a.987.987,0,0,1,.161-1.41,1.007,1.007,0,0,1,1.41.161c.282.363,7.414,8.9,24.841,5.117a15.817,15.817,0,0,0,4.029-1.491c-9.852-9.066-13.337-27.843-15.855-41.3-3.425-18.454-5.742-56.672-3.344-67.894,1.551-7.253,4.211-11.967,7.918-13.982a11.222,11.222,0,0,1,9.691-.161c8.059,2.962,12.874,21.114,16.339,60.641,2.115,24.055,1.491,52.764-11.383,62.857a16.8,16.8,0,0,0,7.333,2.921,23.551,23.551,0,0,0,23.35-9.187,1.009,1.009,0,1,1,1.712,1.068A25.4,25.4,0,0,1,256.1,281.492Zm-21.557-127.77a7.6,7.6,0,0,0-3.707.907c-3.163,1.733-5.5,6.044-6.91,12.652-2.2,10.234-.342,47.244,3.364,67.108,3.082,16.561,6.87,32.94,15.594,40.555,12.571-9.167,13.1-37.614,11-61.407s-5.9-55.524-15.029-58.949a12.249,12.249,0,0,0-4.311-.866Z" transform="translate(138.399 130.279)"/><path class="b" d="M219.223,212.16a3,3,0,0,1-3-2.881c-.282-5.54-.584-10.778-.866-15.936-.383-6.366-.745-12.652-1.027-19.381-.383-8.8,2.438-16.117,7.777-19.965a14.848,14.848,0,0,1,14.1-1.793c14.949,5.54,16.117,27.9,16.963,45.854.181,3.606.342,7.011.625,10.073a3.033,3.033,0,0,1-6.044.524c-.282-3.163-.463-6.608-.645-10.275-.806-16.117-1.813-36.264-13.015-40.495a8.9,8.9,0,0,0-8.542,1.007c-3.647,2.68-5.581,8.059-5.278,14.828s.645,12.954,1.007,19.3c.3,5.178.6,10.416.866,16a3.022,3.022,0,0,1-2.861,3.163Z" transform="translate(142.299 129.904)"/><ellipse class="b" cx="3.405" cy="5.057" rx="3.405" ry="5.057" transform="matrix(0.446, -0.895, 0.895, 0.446, 345.65, 405.87)"/><ellipse class="b" cx="5.057" cy="3.405" rx="5.057" ry="3.405" transform="matrix(0.598, -0.802, 0.802, 0.598, 409.551, 401.494)"/><circle class="a" cx="13.418" cy="13.418" r="13.418" transform="translate(235.344 333.462)"/><path class="b" d="M168.035,205.53A14.425,14.425,0,1,1,182.46,191.1a14.425,14.425,0,0,1-14.425,14.425Zm0-26.835a12.41,12.41,0,1,0,12.41,12.41A12.41,12.41,0,0,0,168.035,178.695Z" transform="translate(80.727 155.774)"/><circle class="a" cx="3.405" cy="3.405" r="3.405" transform="translate(274.247 404.76)"/><circle class="a" cx="3.405" cy="3.405" r="3.405" transform="translate(265.604 450.453)"/><path class="d" d="M150.151,249.427a.987.987,0,0,1-.927-.625,1.028,1.028,0,0,1,.544-1.309C158.512,243.866,187.2,232,189.4,232a1.007,1.007,0,1,1,0,2.015c-2.015.222-24.861,9.529-38.863,15.332A.966.966,0,0,1,150.151,249.427Z" transform="translate(76.207 211.905)"/><path class="d" d="M262.372,253.847a.906.906,0,0,1-.322,0l-49.017-17.1a1.013,1.013,0,0,1,.665-1.914l49.017,17.125a.967.967,0,0,1,.6,1.269A.987.987,0,0,1,262.372,253.847Z" transform="translate(140.33 214.718)"/><circle class="d" cx="2.619" cy="2.619" r="2.619" transform="translate(272.414 397.487)"/><path class="b" d="M237.852,208.106h-.161a1.028,1.028,0,0,1-.846-1.148c0-.4,6.225-40.454,12.33-60.782a1.046,1.046,0,1,1,2.015.564c-6.044,20.147-12.209,60.117-12.269,60.44A1.007,1.007,0,0,1,237.852,208.106Z" transform="translate(165.172 124.046)"/><path class="b" d="M268.908,209.985a.887.887,0,0,1-.484-.141.987.987,0,0,1-.4-1.35l21.416-39.125a.987.987,0,0,1,1.37-.4.967.967,0,0,1,.383,1.35l-21.4,39.145A1.027,1.027,0,0,1,268.908,209.985Z" transform="translate(196.691 147.814)"/></g></svg>