<svg xmlns="http://www.w3.org/2000/svg" width="579.76" height="316.626" viewBox="0 0 579.76 316.626"><defs><style>.a{fill:#231f20;}.b{fill:#fff;}.c{fill:#686efd;}.d{fill:#d1d3d4;}</style></defs><g transform="translate(0)"><path class="a" d="M118.67,174.29c-5.279.951-42.984.325-42.233,7.831s19.115,82.565,24.319,102.706,19.34,37.53,32.726,45.036,54.043-25.17,63.1-27.522S118.67,174.29,118.67,174.29Z" transform="translate(-75.171 -18.291)"/><path class="a" d="M139.089,332.935a11.009,11.009,0,0,1-5.479-1.251c-12.51-7.056-27.522-23.944-33.326-45.811C95,265.482,76.689,190.648,75.939,182.992a3.553,3.553,0,0,1,.9-2.7c3.678-4.253,19.015-5.279,34.377-5.955,3.678-.175,6.83-.325,8.006-.525a1.251,1.251,0,0,1,1.226.525c13.736,20.016,82.09,119.569,78.612,128.777a2.077,2.077,0,0,1-1.426,1.276c-2.677.651-8.782,4.479-15.863,8.882C168.137,321.776,150.247,332.935,139.089,332.935ZM118.848,176.386c-1.551.175-4.153.3-7.506.425-10.233.475-29.3,1.326-32.526,5a1.076,1.076,0,0,0-.325.826c.751,7.381,19.165,82.765,24.294,102.581,5.479,21.142,20.016,37.53,32.125,44.26,8.507,4.779,30.824-9.132,45.611-18.364a95.528,95.528,0,0,1,16.313-9.107c1.2-7.431-46.812-80.438-77.987-125.624Z" transform="translate(-75.924 -19.036)"/><path class="b" d="M255.577,157.065s-175.514-7.131-176.264,5.379,86.743,196.931,99.529,199.633,14.111-9.458,19.015-8.231,54.393-14.011,70.055-27.522-26.371-115.641-24.544-128.3S269.988,158.866,255.577,157.065Z" transform="translate(-70.842 -47.202)"/><path class="a" d="M183.07,364.506a17.039,17.039,0,0,1-3.728-.425c-8.632-1.8-41.833-68.254-55.719-96.751-22.017-45.211-45.211-97.1-44.81-104.132.175-2.727.525-9.107,89.671-8.632,43.484.2,87.569,2,87.894,2.027h0a5.9,5.9,0,0,1,5,3c2.277,4.579-2.652,13.01-7.856,21.942-3.778,6.43-7.656,13.11-8.307,17.514-.626,4.128,4.2,19.841,9.783,38,11.184,36.454,25.02,81.815,14.311,91.047-15.762,13.511-65.727,29.023-71.106,27.647-1.1-.25-2.077.751-3.728,2.5a14.662,14.662,0,0,1-11.409,6.255ZM163.055,156.842c-52.066,0-81.414,2.627-81.639,6.38-.35,5.629,19.666,51.816,44.56,102.931,31.4,64.676,49.714,94.7,53.868,95.5,7.156,1.5,10.208-1.9,12.885-5,1.851-2.052,3.578-3.953,6.2-3.3,4.2,1.026,53.217-13.736,68.854-27.146,9.533-8.156-5.279-56.445-15.012-88.395-5.9-19.24-10.558-34.427-9.883-39.131s4.754-11.859,8.632-18.515c4.429-7.506,9.457-16.188,7.781-19.565a3.6,3.6,0,0,0-3.027-1.626c-36.179-1.376-67.528-2.027-93.324-2.027Z" transform="translate(-71.593 -47.955)"/><path class="b" d="M282.385,253.947s26.771-.751,30.249-2.5,23.544-27.772,28.247-33.977,5.955-13.386,9.182-14.862,5.2-3.978,6.43,0-5.454,32.526-10.008,48.088-9.658,36.454-13.386,38.931-13.636-.751-16.363-3.478a55.34,55.34,0,0,0-10.008-6.455s-32,.25-32.526-.475S282.385,253.947,282.385,253.947Z" transform="translate(221.852 21.021)"/><path class="a" d="M329.985,292.556a23.168,23.168,0,0,1-13.436-4.729,51.973,51.973,0,0,0-9.333-6.08c-32.35.25-32.751-.35-33.226-1.051s-.826-1.251,7.806-26.371a1.2,1.2,0,0,1,1.126-.851c10.258-.275,27.372-1.176,29.723-2.352s17.814-20.416,27.822-33.6a41.782,41.782,0,0,0,4.679-8.282c1.576-3.328,2.827-5.98,5-6.98a14.273,14.273,0,0,0,1.851-1c1.451-.826,2.8-1.6,4.178-1.076a4.178,4.178,0,0,1,2.127,2.852c1.5,4.8-6.38,36.429-10.008,48.814-.726,2.5-1.476,5.229-2.227,7.931-5,17.739-8.407,29.5-11.659,31.675a8.182,8.182,0,0,1-4.429,1.1ZM307.467,279.27a1.35,1.35,0,0,1,.551,0,55.24,55.24,0,0,1,10.233,6.68c2.5,2.5,11.759,5.329,14.787,3.3s7.306-18.264,10.658-30.274c.751-2.7,1.5-5.4,2.227-7.956,5.2-18.214,10.934-44.185,10.008-47.387-.35-1.1-.651-1.251-.651-1.251a19.113,19.113,0,0,0-2.027.926,22.245,22.245,0,0,1-2.052,1.1c-1.351.6-2.5,3-3.753,5.78a46.808,46.808,0,0,1-5,8.707c-1,1.326-24.544,32.251-28.7,34.327-3.378,1.676-24.745,2.5-30.024,2.5-2.677,7.831-6.555,19.515-7.506,23.043,4.278.325,20.666.35,31.049.275Z" transform="translate(221.265 20.343)"/><path class="a" d="M161.56,282.2s136.208-17.289,145.915-18.114S455.392,273.748,460.4,273s6.33-31.975,6.33-31.975-133.781-36.028-171.711-34.2c-21.942,1.051-93.073,0-93.073,0Z" transform="translate(52.699 30.468)"/><path class="a" d="M162.315,284.207a1.226,1.226,0,0,1-1.1-1.826l40.307-75.41a1.251,1.251,0,0,1,1.126-.65c.7,0,71.331,1.026,92.973,0,37.7-1.8,166.632,32.776,172.111,34.252a1.226,1.226,0,0,1,.926,1.251c-.45,9.708-2.1,32.351-7.381,33.176-2.3.35-27.221-1.3-67.7-3.978-37.53-2.5-80.063-5.329-85.242-5-9.507.726-144.489,17.939-145.865,18.114Zm41.132-75.385L164.642,281.38c18.84-2.5,134.581-17.139,143.588-17.814,5.229-.4,46.086,2.3,85.593,5,31.925,2.127,64.926,4.328,67.153,4s4.378-14.136,5.2-29.8c-12.21-3.253-134.756-35.628-170.359-33.9C275.255,209.8,211.129,208.923,203.448,208.823Z" transform="translate(51.943 29.717)"/><path class="b" d="M236.57,227.839s13.386,21.567,14.862,26.046,1.5,16.738,4.453,22.318,87.394,4.479,87.044,1.151-36.454-18.264-45.936-25.02S262.666,210,262.666,210Z" transform="translate(165.362 35.345)"/><path class="a" d="M299.655,282.03c-21.142,0-42.308-1.126-44.085-4.479s-2.652-9.558-3.278-14.812a48.186,48.186,0,0,0-1.276-7.731c-1.151-3.4-10.158-18.339-14.762-25.77a1.226,1.226,0,0,1,.35-1.676l26.046-17.839a1.251,1.251,0,0,1,1.726.3c.25.35,24.895,35.6,34.1,42.108a220.424,220.424,0,0,0,22.993,12.06c17.939,8.707,23.193,11.559,23.443,13.761q.15,1.351-1.8,1.952C339.487,281.029,319.6,282.03,299.655,282.03Zm-60.648-53.092c2.7,4.378,13.035,21.267,14.361,25.3a49.586,49.586,0,0,1,1.4,8.206,46.387,46.387,0,0,0,2.977,13.936c1.351,1.476,15.187,3.178,42.283,3.253,20.791.125,37.53-.926,41.858-1.952A209.773,209.773,0,0,0,320.4,266.443a222.692,222.692,0,0,1-23.368-12.285c-8.757-6.18-29.774-35.7-33.977-41.683Z" transform="translate(164.601 34.596)"/><path class="a" d="M139.85,345.156c2.252,1.5,12.085,15.913,54.318,17.389,21.328.745,58.941-29.146,81.915-61.5,22.149-31.192,29.874-64.851,29.874-64.851l73.408,86.168,33.7-21.317s-46.111-128.151-66.928-141.312-55.043-3.478-70.055,6.18S189.064,274.5,189.064,274.5Z" transform="translate(20.091 -49.771)"/><path class="a" d="M195.639,364.532h-.776c-37.88-1.326-50.04-12.935-54.018-16.738-.425-.4-.726-.7-.926-.851a1.226,1.226,0,0,1-.55-.8,1.376,1.376,0,0,1,.2-.951l49.339-70.656c2.977-4.078,72.557-99.253,87.369-108.936,13.936-9.057,49.139-20.166,71.256-6.18C368.5,172.656,413.111,296.1,415.087,301.357a1.251,1.251,0,0,1-.5,1.476L380.86,324.15a1.276,1.276,0,0,1-1.626-.25l-72.207-84.767a716.255,716.255,0,0,1-39.256,62.274C237.747,343.29,213.528,364.532,195.639,364.532Zm-53.367-18.865.3.275c3.828,3.653,15.437,14.762,52.366,16.063h.726c41.057,0,109.261-124.448,109.962-125.724a1.176,1.176,0,0,1,.951-.626,1.226,1.226,0,0,1,1.1.425L380.235,321.4l31.95-20.191c-4.253-11.709-46.787-127.6-66.077-139.71-10.433-6.605-41.283-11.584-68.554,6.155-14.511,9.432-85.968,107.285-86.693,108.286Z" transform="translate(19.345 -50.583)"/><path class="b" d="M169.475,234.322c0-1.476,18.339-25.645,22.918-27.9a140.4,140.4,0,0,0,12.785-7.806l-6.855-15.562s-5.429,2.177-4.3-2.652-8.582-11.584-8.582-11.584-12.66,11.259-12.96,24.219c-.25,10.433-28.3,27.146-28.3,27.146Z" transform="translate(26.594 -26.506)"/><path class="a" d="M170.216,236.186a1.351,1.351,0,0,1-.626-.15L144.321,221.9a1.251,1.251,0,0,1,0-2.177c7.506-4.554,27.522-18.114,27.672-26.1.325-13.336,12.86-24.669,13.386-25.02a1.276,1.276,0,0,1,1.551,0c1.051.726,10.333,7.381,9.057,12.885a2.684,2.684,0,0,0,0,1.476,7.413,7.413,0,0,0,2.5-.25,1.251,1.251,0,0,1,1.6.65l6.855,15.562a1.251,1.251,0,0,1-.425,1.526,138.574,138.574,0,0,1-12.935,7.906c-4.128,2.027-21.317,24.669-22.243,26.971a1.226,1.226,0,0,1-.6.876A1.175,1.175,0,0,1,170.216,236.186ZM147.4,220.749l22.318,12.51c3.553-6.18,18.815-25.32,22.893-27.3a130.106,130.106,0,0,0,11.734-7.156l-5.98-13.586a4.6,4.6,0,0,1-4-.525,3.778,3.778,0,0,1-.826-3.928c.626-2.7-3.828-7.131-7.256-9.708-2.627,2.5-11.584,12.16-11.809,22.643-.225,9.533-20.416,22.918-27.071,27.046Z" transform="translate(25.853 -27.22)"/><path class="b" d="M210.074,128.829c-24.72-30.4-65.777-15.012-77.786,17.889-4.754,13.085-9.332,25.02-18.189,35.878-7.906,9.783-20.266,18.415-20.741,32.175-.325,9.608,6.08,18.49,14.336,23.393s18.064,6.455,27.522,6.98a153.247,153.247,0,0,0,62.825-9.758c8.156-3.1,17.689-8.056,21.992-16.163,5.279-9.883-.5-17.389-2.7-27.522-1.8-8.382.926-16.938,2.727-25.32C223.11,152.523,218.931,139.813,210.074,128.829Z" transform="translate(-49.758 -111.164)"/><path class="a" d="M144.385,247.4c-2.777,0-5.579,0-8.357-.225-8.332-.475-19.04-1.7-28.222-7.156S92.544,224.8,92.794,215.5c.525-10.834,7.681-18.339,14.687-25.845,2.3-2.5,4.479-4.7,6.405-7.106,8.507-10.508,13.01-21.842,17.989-35.528,6.58-18.039,22.117-31.575,39.581-34.5,15.387-2.5,29.723,3.177,40.332,16.238h0c9.808,12.06,13.311,25.02,10.383,38.681-.3,1.376-.625,2.777-.951,4.153-1.576,6.83-3.228,13.911-1.776,20.616a70.058,70.058,0,0,0,2.277,7.656c2.252,6.68,4.378,13.01.3,20.666-3.6,6.755-11.209,12.385-22.643,16.738A155.572,155.572,0,0,1,144.385,247.4Zm34.152-132.955a40.609,40.609,0,0,0-6.68.575c-16.588,2.777-31.375,15.687-37.53,32.9-5,13.911-9.658,25.42-18.39,36.254a95.255,95.255,0,0,1-6.555,7.256C102.7,198.459,95.8,205.715,95.472,215.6c-.3,8.407,5,17.139,13.711,22.293s19.04,6.355,27.1,6.78a153.045,153.045,0,0,0,62.124-9.658c10.834-4.128,18.014-9.382,21.317-15.587,3.578-6.705,1.7-12.26-.475-18.69a68.7,68.7,0,0,1-2.327-7.931c-1.576-7.256.125-14.612,1.776-21.692.325-1.376.651-2.752.951-4.128,2.752-12.835-.575-25.02-9.883-36.6h0c-8.382-10.408-19.315-15.938-31.225-15.938Z" transform="translate(-50.597 -111.94)"/><path class="c" d="M120.02,162.887c-7.746,9.992-13.431,44.756-6.452,75.972,1.941,8.685,15.6,35.249,20.978,42.306,13.015,17.08,26.215,33.552,37.359,47.557,6.495,8.164,15.969,15.476,27.814,22.577,3.9,2.342,4.011,4.627,10.548,7.145l41.014-77.278s-34.2-32.373-35.627-42.306,4.929-21.838,0-35c-4.638-12.242-20.07-20.126-30.35-25.52-1.019-.533-8.526-10.214-9.594-10.976C149.959,148.967,127.45,153.248,120.02,162.887Z" transform="translate(-35.939 -51.748)"/><path class="b" d="M153.09,191.629l-.125,24.244s1.977,10.008-14.211,6.2-23.393-23.744-23.393-23.744l1.451-35.428s25.32-13.561,21.717-39.606a33.176,33.176,0,0,0,33.927,17.314s.4,23.268-1.526,35.8S153.09,191.629,153.09,191.629Z" transform="translate(-16.693 -94.876)"/><path class="a" d="M145.951,224.951a28.751,28.751,0,0,1-6.755-.926c-16.663-3.953-23.994-23.669-24.294-24.519a1.45,1.45,0,0,1,0-.475l1.451-35.428a1.226,1.226,0,0,1,.676-1.051c.225-.125,24.494-13.486,21.042-38.33a1.251,1.251,0,0,1,.876-1.351,1.226,1.226,0,0,1,1.5.625,31.65,31.65,0,0,0,32.526,16.638,1.251,1.251,0,0,1,.976.3,1.276,1.276,0,0,1,.45.926c0,.951.375,23.494-1.526,35.978-1.751,11.509-14.136,15.212-17.839,16.063l-.125,23.218h0a7.08,7.08,0,0,1-1.977,6.055,9.633,9.633,0,0,1-6.98,2.277ZM117.329,198.88c.851,2.152,7.981,19.29,22.518,22.743,5.6,1.326,9.583,1.076,11.459-.751a4.854,4.854,0,0,0,1.226-4.028V192.375a1.276,1.276,0,0,1,1.051-1.226c.15,0,15.012-2.7,16.813-14.186a273.621,273.621,0,0,0,1.526-34.2A33.977,33.977,0,0,1,140.8,128.825c.15,21.192-18.39,33.351-22.067,35.553Z" transform="translate(-17.41 -95.622)"/><path class="b" d="M130.49,143.888a12.51,12.51,0,0,0-13.085-8.757c-7.031,1.1-6.93,9.057-4.729,14.186a12.835,12.835,0,0,0,16.988,6.63" transform="translate(-22.716 -77.184)"/><path class="a" d="M125.167,159.045a14.011,14.011,0,0,1-12.91-8.507,14.561,14.561,0,0,1-.225-11.934,7.856,7.856,0,0,1,5.93-3.953,13.686,13.686,0,0,1,14.461,9.683,1.286,1.286,0,1,1-2.5.6,11.434,11.434,0,0,0-11.684-7.831,5.3,5.3,0,0,0-4.1,2.7,11.984,11.984,0,0,0,.325,9.758,11.534,11.534,0,0,0,15.337,5.98,1.276,1.276,0,0,1,1.651.625,1.251,1.251,0,0,1-.651,1.651,14.212,14.212,0,0,1-5.629,1.226Z" transform="translate(-23.447 -77.93)"/><path class="b" d="M132.285,135.23s8.957,12.31,7.031,14.587-7.506,1.051-7.506,1.051" transform="translate(8.015 -76.958)"/><path class="a" d="M135.763,153.212a20.014,20.014,0,0,1-3.5-.35,1.278,1.278,0,0,1,.525-2.5c1.626.35,5.329.651,6.405-.625.4-1.151-2.9-7.281-7.081-13.06a1.2,1.2,0,0,1,.275-1.726,1.251,1.251,0,0,1,1.726.275c4.353,5.98,9.107,13.636,6.98,16.113A6.855,6.855,0,0,1,135.763,153.212Z" transform="translate(7.165 -77.726)"/><ellipse class="a" cx="1.977" cy="4.579" rx="1.977" ry="4.579" transform="translate(130.967 47.217) rotate(-1.68)"/><ellipse class="a" cx="1.977" cy="4.579" rx="1.977" ry="4.579" transform="translate(147.805 49.175) rotate(-1.68)"/><path class="a" d="M142.546,153.914s-9.207,1.676-20.166-5.5c0,0,4.053,17.038,20.016,18.615Z" transform="translate(-6.149 -57.162)"/><path class="a" d="M143.155,169.02h0c-16.763-1.651-21.142-19.415-21.192-19.59a1.2,1.2,0,0,1,.5-1.3,1.251,1.251,0,0,1,1.4,0,28.823,28.823,0,0,0,19.24,5.329,1.351,1.351,0,0,1,1.026.275,1.251,1.251,0,0,1,.45.976v13.11a1.2,1.2,0,0,1-.4.9,1.276,1.276,0,0,1-1.026.3Zm-17.839-17.089c1.851,4.579,6.53,12.785,16.613,14.436V156.06a31.549,31.549,0,0,1-16.613-4.128Z" transform="translate(-6.832 -57.906)"/><path class="b" d="M126.41,138.6s0,24.594,21.592,16.663" transform="translate(-0.096 -71.896)"/><path class="a" d="M12.226,10.373A15.4,15.4,0,0,1,6.053,9.234,9.921,9.921,0,0,1,0,.626C.011.283.456.007,1.009,0h0c.557,0,1.009.28,1.009.626A8.618,8.618,0,0,0,7.1,8.208c2.683,1.164,6.376,1.251,10.976.163a1.24,1.24,0,0,1,1.265.381c.186.318-.071.671-.579.795A29.983,29.983,0,0,1,12.226,10.373Z" transform="matrix(0.899, -0.438, 0.438, 0.899, 128.086, 80.601)"/><path class="b" d="M203.513,240.932c-1.1-.375-29.373-7.506-29.373-7.506s47.237-74.734,48.338-75.059,40.532-8.257,40.532-8.257Z" transform="translate(71.593 -54.608)"/><path class="a" d="M204.259,242.932h-.4c-.851-.3-17.989-4.6-29.273-7.506a1.251,1.251,0,0,1-.751-1.876c47.538-75.059,48.463-75.435,48.989-75.635,1.151-.375,34.1-6.955,40.707-8.282a1.251,1.251,0,0,1,1.276,1.927l-59.5,90.822a1.3,1.3,0,0,1-1.051.55Zm-27.4-9.482c5.755,1.451,22.518,5.68,26.846,6.805l57.4-87.569c-14.762,2.952-34.452,6.93-37.2,7.506-2.827,3.653-29.1,44.885-47.037,73.258Z" transform="translate(70.848 -55.358)"/><path class="b" d="M194.372,234.117,160.67,215.8l45.611-66.1,36.429,9.307Z" transform="translate(51.362 -55.224)"/><path class="a" d="M195.119,236.113a1.328,1.328,0,0,1-.6-.15l-33.7-18.314a1.226,1.226,0,0,1-.6-.8,1.176,1.176,0,0,1,.175-1L206,149.744a1.226,1.226,0,0,1,1.326-.5l36.429,9.282a1.251,1.251,0,0,1,.876.751,1.351,1.351,0,0,1-.125,1.151L196.17,235.487A1.276,1.276,0,0,1,195.119,236.113ZM163.244,216.1l31.525,17.114,46.787-72.682-33.927-8.657Z" transform="translate(50.615 -55.969)"/><path class="b" d="M119,222.82s33.326,55.043,59.622,65.051,101.155-66.853,101.155-66.853,9.157,4.2,18.59-8.181a95.952,95.952,0,0,0,13.586-25.17s4.879-10.008,3.027-16.038c-1.576-5.229-6.555,5-6.555,5s-8.382,13.035-13.361,11.809-.726-14.511-2.227-18.415-8.857,10.008-10.583,15.938-10.909,16.863-14.887,20.316-63.3,44.06-68.3,43.685-41.057-44.235-41.057-44.235Z" transform="translate(-11.225 -25.713)"/><path class="a" d="M184.54,290.542a15.788,15.788,0,0,1-5.654-.951c-26.371-10.008-58.872-63.2-60.248-65.477a1.226,1.226,0,0,1,0-1.026,1.251,1.251,0,0,1,.676-.751l38.881-17.113a1.276,1.276,0,0,1,1.476.35c17.264,21.142,37.029,43.309,40.182,43.81,5,0,62.349-38.706,67.553-43.209,4.028-3.528,12.91-14.261,14.511-19.741,1.2-4.178,7.181-17.364,10.934-17.514a2,2,0,0,1,2.027,1.5,20.868,20.868,0,0,1,.125,7.756c-.35,3.953-.826,9.357,1.251,9.883,2.777.65,8.707-6.18,11.984-11.284,1.276-2.652,3.928-7.356,6.48-7.156.751,0,1.751.525,2.3,2.352,1.977,6.53-2.877,16.538-3.1,16.963a94.575,94.575,0,0,1-13.711,25.37c-8.357,11.009-16.613,9.683-19.24,8.882C273.835,230.245,213.512,290.542,184.54,290.542Zm-63-66.377c5,8.106,34.8,54.368,58.221,63.225,10.308,3.878,30.774-6.28,59.2-29.423,21.692-17.664,40.432-36.779,40.632-36.979a1.226,1.226,0,0,1,1.4-.25c.35.15,8.432,3.578,17.089-7.806a95.9,95.9,0,0,0,13.411-24.82c0-.25,4.679-9.683,3-15.287a1.427,1.427,0,0,0-.3-.651,20.19,20.19,0,0,0-3.928,5.955c-1.551,2.5-9.232,13.836-14.787,12.51-4.128-1.026-3.578-7.131-3.1-12.51a27.746,27.746,0,0,0,.125-6.355c-2.052,1.551-6.855,10.383-8.357,15.512-1.8,6.2-11.034,17.214-15.237,20.917-3.278,2.877-62.549,43.81-69.23,43.81h0c-5.229-.375-32.2-32.8-41.333-43.96Z" transform="translate(-11.939 -26.357)"/><path class="a" d="M146.945,210.048a1.251,1.251,0,0,1-1.126-.7L126.4,169.065a1.237,1.237,0,0,1,2.227-1.076l19.44,40.282a1.226,1.226,0,0,1-.575,1.651A1.1,1.1,0,0,1,146.945,210.048Z" transform="translate(-0.29 -28.803)"/><path class="a" d="M137.245,226.444a1.251,1.251,0,0,1-1.126-.7c-.225-.5-24.169-49.839-29-55.944a1.251,1.251,0,0,1,.2-1.751,1.226,1.226,0,0,1,1.751.2c5,6.33,28.3,54.368,29.3,56.42a1.251,1.251,0,0,1-.575,1.651,1.1,1.1,0,0,1-.55.125Z" transform="translate(-29.471 -28.086)"/><path class="b" d="M164.972,282.883a1.265,1.265,0,1,1-.375-2.5c29.173-9.533,72.857-72.757,73.308-73.408a1.251,1.251,0,0,1,1.726-.3,1.226,1.226,0,0,1,.325,1.726c-1.8,2.627-44.61,64.551-74.584,74.359Z" transform="translate(60.63 31.262)"/><path class="b" d="M162.412,173.591a50.042,50.042,0,0,1,10.008-5.7c8.181-3.6,19.09-2.727,16.363.8S167.566,179.9,167.566,179.9s1.6,8.432-8.056,12.16" transform="translate(49.62 -31.378)"/><path class="a" d="M160.368,194.092a1.271,1.271,0,1,1-.45-2.5c8.532-3.278,7.356-10.458,7.281-10.758a1.276,1.276,0,0,1,.751-1.376c7.306-3.027,18.84-8.432,20.691-10.809a1,1,0,0,0,.175-.3c-.7-1.051-8.231-1.6-15.012,1.376a52.663,52.663,0,0,0-9.532,5.454,1.276,1.276,0,0,1-1.751,0,1.226,1.226,0,0,1,0-1.726,49.415,49.415,0,0,1,10.283-5.98c6.78-2.977,15.888-3.253,18.014-.55a2.5,2.5,0,0,1-.175,3.253c-2.5,3.378-16.913,9.583-20.866,11.259a12.51,12.51,0,0,1-8.932,12.51,1.451,1.451,0,0,1-.475.15Z" transform="translate(48.661 -32.162)"/><path class="d" d="M169.283,330.725a1.276,1.276,0,0,1-1.2-.876c-14.036-44.16-81.589-165.756-82.315-166.982a1.251,1.251,0,0,1,2.177-1.2c.7,1.226,68.379,123.047,82.565,167.432a1.251,1.251,0,0,1-.826,1.551,1,1,0,0,1-.4.075Z" transform="translate(-61.283 -38.043)"/></g></svg>