<svg xmlns="http://www.w3.org/2000/svg" width="360.328" height="446.835" viewBox="0 0 360.328 446.835"><defs><style>.a{fill:#686efd;}.b{fill:#fff;}.c{fill:#231f20;}.d{fill:#d1d3d4;}</style></defs><g transform="translate(-90.288 -27.05)"><path class="a" d="M170.176,213.476c-47.421,24.158-46.366,70.685-46.366,70.685L383.984,330.24s-4.366-24.3-66.211-68.9C264.948,223.318,199.9,198.355,170.176,213.476Z" transform="translate(26.464 143.645)"/><path class="b" d="M263.1,149.47s23.353,45.4,16.606,53.541-25.357.215-25.357.215" transform="translate(129.525 96.649)"/><path class="c" d="M270.237,208.1a46.938,46.938,0,0,1-15.891-3.579.895.895,0,0,1,.7-1.646c.2,0,18.074,7.57,24.319,0,5.243-6.317-10.29-40.084-16.714-52.557a.913.913,0,0,1,.429-1.271.9.9,0,0,1,1.2.394c2.416,4.688,23.442,46.169,16.5,54.526C278.29,207,274.371,208.1,270.237,208.1Z" transform="translate(129.116 96.236)"/><path class="b" d="M167.015,124.082c-7.784,41.731,20.1,116.692,20.1,116.692l-.823,75.266s6.621,13.69,39.369,28.22,43.968,2.094,43.968,2.094l.483-71.2c7.57,6.21,53.685,10.88,56.655-6.836q6.872-41.874,11.811-84.106c2.058-17.591,8.947-43.109-.573-60.2Z" transform="translate(59.492 76.549)"/><path class="c" d="M254.118,352.62c-6.872,0-16.105-1.789-28.417-7.158-32.73-14.513-39.583-28.077-39.87-28.632a.966.966,0,0,1,0-.394l.823-75.158c-.68-1.789-7.283-20.06-12.938-42.643-5.494-21.939-11.184-52.665-7.158-74.371a.9.9,0,0,1,.877-.734H338.421a.859.859,0,0,1,.769.465c7.838,14.083,4.742,34,2.255,49.909-.608,3.847-1.181,7.48-1.575,10.826-3.275,27.97-7.158,56.244-11.793,84.106-.752,4.6-4.169,8.089-10.164,10.343-13.833,5.207-38.349,2.505-46.527-2l-.447,69.557a1.02,1.02,0,0,1-.233.591C270.421,347.663,265.732,352.62,254.118,352.62ZM187.532,316.2c.913,1.611,8.84,14.316,38.9,27.63,29.222,12.956,40.979,4.062,42.715,2.523l.465-70.828a.859.859,0,0,1,.519-.805.913.913,0,0,1,.948.107c5.261,4.331,31.513,8.2,46.169,2.666,5.368-2,8.393-5.028,9.037-8.947,4.563-27.791,8.518-56.047,11.793-84,.394-3.382.966-7.033,1.575-10.9,2.416-15.5,5.368-34.77-1.789-48.316H168.116c-7.158,41.158,19.9,114.742,20.185,115.493a.931.931,0,0,1,0,.322Z" transform="translate(59.143 76.17)"/><path class="c" d="M314.986,150.789h-127.5a.895.895,0,0,1,0-1.789h127.5a.895.895,0,1,1,0,1.789Z" transform="translate(76.029 96.278)"/><ellipse class="c" cx="3.132" cy="9.001" rx="3.132" ry="9.001" transform="translate(377.612 225.289)"/><path class="b" d="M270.918,198.527s-23.263,11.041-32.408-12.777" transform="translate(117.019 125.292)"/><path class="c" d="M259.352,202.342a22.423,22.423,0,0,1-8.411-1.557c-5.762-2.308-10.111-7.158-12.884-14.316a.895.895,0,0,1,1.664-.644c2.595,6.746,6.585,11.238,11.882,13.35,9.144,3.668,19.219-1,19.309-1.056a.913.913,0,0,1,1.2.429.895.895,0,0,1-.429,1.2,31.566,31.566,0,0,1-12.33,2.595Z" transform="translate(116.631 124.948)"/><path class="c" d="M243.661,216.365A175.924,175.924,0,0,1,199.21,198.47s7.695,47.332,42.8,52.951Z" transform="translate(85.992 135.334)"/><path class="c" d="M242.407,252.693h-.143c-35.324-5.637-43.467-53.219-43.538-53.685a.895.895,0,0,1,1.342-.913,176.066,176.066,0,0,0,44.182,17.823.9.9,0,0,1,.7.913L243.3,251.87a.948.948,0,0,1-.322.662A.931.931,0,0,1,242.407,252.693Zm-41.534-52.074c1.9,8.751,11.417,44.737,40.693,50.106l1.557-33.284a180.165,180.165,0,0,1-42.25-16.821Z" transform="translate(85.6 134.938)"/><path class="c" d="M226.167,163.809,105.538,73.69s-37.955,55.349,7.623,98.977S226.167,163.809,226.167,163.809Z" transform="translate(0.34 36.822)"/><path class="c" d="M156.843,191.21a61.523,61.523,0,0,1-43.968-17.465C67.3,130.1,104.733,74.177,105.108,73.533a.931.931,0,0,1,.591-.376.841.841,0,0,1,.68.161l120.665,90.119a.895.895,0,0,1,0,1.414C226.579,165.316,192.74,191.21,156.843,191.21Zm-50.768-115.8c-4.295,6.872-33.535,57.264,8.035,97.044s102.591-2.147,110.948-8.214Z" transform="translate(0 36.388)"/><path class="c" d="M188.755,240.742s23.424-47.851,36.022-52.7,29.043-63.992,29.043-63.992H168.659S148.366,179.041,188.755,240.742Z" transform="translate(57.848 76.58)"/><path class="c" d="M189.1,242.032a.9.9,0,0,1-.752-.394c-40.156-61.379-20.382-116.943-20.168-117.5a.877.877,0,0,1,.823-.591h85.162a.859.859,0,0,1,.716.358.805.805,0,0,1,.143.769c-.68,2.434-16.75,59.644-29.616,64.583-12.133,4.671-35.307,51.806-35.539,52.271a.9.9,0,0,1-.752.5ZM169.648,125.34c-1.968,6.031-17.018,57.264,19.344,113.99,4.062-8.124,24.1-47.242,35.79-51.734,11.095-4.277,25.858-54.06,28.22-62.256Z" transform="translate(57.504 76.185)"/><path class="b" d="M228.852,175.948c.662-7.051-2.595-13.815-5.78-20.15a54.239,54.239,0,0,0-8.786-13.869c-3.812-3.973-9.18-6.818-14.656-6.281a17.215,17.215,0,0,0-11.972,7.516,32.64,32.64,0,0,0-5.046,13.564A60.681,60.681,0,0,0,204.6,213.277" transform="translate(72.331 85.686)"/><path class="c" d="M204.987,214.547a.9.9,0,0,1-.555-.179,61.9,61.9,0,0,1-22.315-57.407,33.249,33.249,0,0,1,5.19-13.94,18.235,18.235,0,0,1,12.634-7.892,19.2,19.2,0,0,1,15.372,6.549,55.151,55.151,0,0,1,8.947,14.1c2.935,5.834,6.567,13.1,5.852,20.633a.877.877,0,0,1-.966.805.9.9,0,0,1-.805-.966c.662-7.033-2.863-14.047-5.673-19.684a54.6,54.6,0,0,0-8.643-13.654A17.752,17.752,0,0,0,200.1,136.9a16.392,16.392,0,0,0-11.327,7.158,31.333,31.333,0,0,0-4.9,13.188,60.073,60.073,0,0,0,21.671,55.707.877.877,0,0,1,.143,1.253A.841.841,0,0,1,204.987,214.547Z" transform="translate(71.948 85.31)"/><path class="c" d="M270.17,186.564c-6.907,0-12.33-11.31-12.33-25.733s5.368-25.751,12.33-25.751,12.312,11.31,12.312,25.751S277.059,186.564,270.17,186.564Zm0-49.694c-5.708,0-10.54,10.97-10.54,23.961s4.832,23.943,10.54,23.943,10.522-10.97,10.522-23.943S275.86,136.869,270.17,136.869Z" transform="translate(132.28 85.288)"/><path class="b" d="M138.89,86.957c.591-1.789,1.163-3.436,1.789-5.154.322-.895.68-1.789,1.038-2.648a2.523,2.523,0,0,1,2.738-1.593c1.4.143,2.774.447,4.17.662a13.976,13.976,0,0,0,2.237.3,2.523,2.523,0,0,0,1.557-.5c1.593-1.521,3.114-3.114,4.635-4.724a2.4,2.4,0,0,0,.465-2.2c-.358-1.682-.769-3.346-1.109-5.028a6.925,6.925,0,0,1-.179-2,1.79,1.79,0,0,1,.644-1.271,30.547,30.547,0,0,1,8.339-3.794,2.022,2.022,0,0,1,2.362.859c1.074,1.449,2.183,2.881,3.2,4.366a3.4,3.4,0,0,0,3.293,1.664c1.789-.143,3.686-.179,5.53-.268a2.076,2.076,0,0,0,1.664-1c.662-.966,1.271-1.968,1.915-2.953s1.109-1.682,1.682-2.505a2.13,2.13,0,0,1,2.559-.877c2.541.877,5.1,1.79,7.623,2.756a2.255,2.255,0,0,1,1.378,2.469c-.143,1.414-.465,2.809-.7,4.205,0,.662-.2,1.342-.251,2a2.774,2.774,0,0,0,.859,2.344c1.342,1.271,2.7,2.523,3.991,3.83a3.024,3.024,0,0,0,3.006.859c1.789-.394,3.579-.841,5.458-1.235a2.434,2.434,0,0,1,3.06,1.449c1.038,2.183,2.04,4.366,3.006,6.585a2.577,2.577,0,0,1-.948,3.579c-.931.752-1.951,1.4-2.917,2.112-.68.5-1.36,1.038-2,1.611a2.308,2.308,0,0,0-.859,1.789c0,1.915,0,3.829.161,5.726a2.97,2.97,0,0,0,1.539,2.541l3.132,1.79a19.194,19.194,0,0,1,1.879,1.271,2.255,2.255,0,0,1,.859,2.738c-.841,2.291-1.7,4.6-2.577,6.89a5.369,5.369,0,0,1-.573.966,2.04,2.04,0,0,1-2.147,1.02l-4.957-.823h-.376a3.579,3.579,0,0,0-3.794,1.342c-.931,1.092-1.986,2.094-3.006,3.15a3.579,3.579,0,0,0-.913,3.579c.412,1.593.805,3.2,1.127,4.832a2.38,2.38,0,0,1-1.557,3.221c-2.237,1.074-4.527,2.094-6.818,3.06a2.273,2.273,0,0,1-3.024-.787,37.732,37.732,0,0,1-2.523-3.454c-1.789-2.505-2.237-2.72-5.368-2.577l-3.579.215a3.311,3.311,0,0,0-2.827,1.628c-.716,1.217-1.414,2.434-2.183,3.579a11.362,11.362,0,0,1-1.378,1.789,1.789,1.789,0,0,1-1.9.483l-7.158-2.7a4.83,4.83,0,0,1-.931-.537,2.04,2.04,0,0,1-1.02-2.13l.805-4.921c0-.5.107-1,.143-1.5a2.613,2.613,0,0,0-.823-2.219q-1.986-1.789-3.919-3.579a2.9,2.9,0,0,0-2.863-.7c-1.611.394-3.221.752-4.832,1.127h-.179c-2.129.394-2.81.125-3.722-1.789s-1.95-4.313-2.881-6.6a2.183,2.183,0,0,1,.931-3.078c1.288-.966,2.595-1.915,3.955-2.792a3.883,3.883,0,0,0,1.933-3.812c-.107-1.789-.161-3.454-.25-5.172a2.147,2.147,0,0,0-1-1.789c-1.432-.913-2.881-1.789-4.295-2.738a4.778,4.778,0,0,1-2.273-2.362Zm54.723,9.61a16.32,16.32,0,0,0-16.445-16.356,16.589,16.589,0,0,0-16.105,16.374,16.338,16.338,0,0,0,16.195,16.249,16.105,16.105,0,0,0,16.356-16.266Z" transform="translate(38.371 24.557)"/><path class="c" d="M168.356,136.367a2.863,2.863,0,0,1-.931-.179l-2.022-.752-5.225-1.933a4.709,4.709,0,0,1-.984-.555,3.006,3.006,0,0,1-1.521-3.1l.34-2.165c.161-.913.3-1.789.447-2.738a12.917,12.917,0,0,0,.143-1.432,1.789,1.789,0,0,0-.537-1.5c-1.2-1.092-2.362-2.183-3.579-3.293l-.376-.358a2.04,2.04,0,0,0-2.04-.483c-1.145.286-2.308.537-3.472.805l-1.378.322h-.233c-2.559.465-3.579,0-4.671-2.344-.895-1.789-1.789-3.919-2.863-6.621a3.06,3.06,0,0,1,1.163-4.08c1.5-1.127,2.774-2.04,4.008-2.827a3.024,3.024,0,0,0,1.521-3.006c0-1.074-.107-2.147-.161-3.221V94.958a1.271,1.271,0,0,0-.591-1.092l-1.789-1.109-2.559-1.628a5.547,5.547,0,0,1-2.613-2.827.733.733,0,0,1,0-.286v-.626a.805.805,0,0,1,0-.286l.5-1.485,1.271-3.686c.322-.913.68-1.789,1.056-2.684a3.418,3.418,0,0,1,3.579-2.219c.948.107,1.879.268,2.81.447l1.4.233.573.107a9.27,9.27,0,0,0,1.5.179,1.789,1.789,0,0,0,.948-.251c1.682-1.593,3.257-3.257,4.6-4.688a1.485,1.485,0,0,0,.251-1.4c-.161-.752-.322-1.5-.5-2.255s-.412-1.789-.608-2.792a8.412,8.412,0,0,1-.2-2.273,2.738,2.738,0,0,1,1.074-1.933,31.281,31.281,0,0,1,8.572-3.9,2.971,2.971,0,0,1,3.328,1.181c.376.519.752,1.038,1.145,1.539.7.948,1.4,1.9,2.058,2.863a2.505,2.505,0,0,0,2.487,1.271c1.217,0,2.416-.143,3.579-.179l1.915-.089a1.127,1.127,0,0,0,.966-.608c.394-.573.769-1.145,1.145-1.789l1.056-1.628c.465-.716.931-1.432,1.432-2.112a2.988,2.988,0,0,1,3.579-1.2c3.1,1.074,5.368,1.915,7.659,2.756a3.114,3.114,0,0,1,1.933,3.382,16.938,16.938,0,0,1-.429,2.881c-.089.465-.179.931-.251,1.4s-.2,1.288-.251,1.933a1.9,1.9,0,0,0,.573,1.628l.895.823c1.056,1,2.112,1.986,3.132,3.024a2.13,2.13,0,0,0,2.165.608l2.613-.591q1.414-.34,2.845-.644a3.346,3.346,0,0,1,4.062,1.933c1.038,2.183,2.058,4.4,3.006,6.621a3.436,3.436,0,0,1-1.2,4.688,21.639,21.639,0,0,1-1.789,1.288l-1.181.841c-.662.5-1.324,1.02-1.968,1.557a1.539,1.539,0,0,0-.537,1.2v1.163c0,1.521,0,3.024.125,4.545a2.058,2.058,0,0,0,1.109,1.79l1.288.769,1.789,1.109a22,22,0,0,1,1.968,1.306,3.167,3.167,0,0,1,1.145,3.758c-.859,2.308-1.789,4.6-2.595,6.907a5.082,5.082,0,0,1-.591,1.074,2.917,2.917,0,0,1-3.1,1.467l-4.706-.716h-.43a2.7,2.7,0,0,0-2.917,1.038c-.68.805-1.432,1.557-2.147,2.273l-.895.913a2.738,2.738,0,0,0-.7,2.756c.394,1.557.805,3.221,1.145,4.885a3.257,3.257,0,0,1-2.04,4.205c-2.076.984-4.331,2-6.872,3.078a3.114,3.114,0,0,1-4.062-1.056c-.734-.931-1.432-1.9-2.112-2.863l-.447-.626c-1.611-2.255-1.789-2.326-4.527-2.2l-3.579.215a2.416,2.416,0,0,0-2.094,1.2l-.716,1.2c-.483.823-.966,1.646-1.485,2.434a11.366,11.366,0,0,1-1.485,1.789A2.612,2.612,0,0,1,168.356,136.367Zm-15.569-20.382a3.687,3.687,0,0,1,2.577,1.056l.376.358c1.181,1.092,2.344,2.2,3.579,3.275a3.579,3.579,0,0,1,1.127,2.935,15.473,15.473,0,0,1-.161,1.593c-.143.913-.286,1.789-.447,2.756l-.358,2.147a1.163,1.163,0,0,0,.626,1.253,5.228,5.228,0,0,0,.752.447l5.225,1.951,2.022.752a.787.787,0,0,0,.931-.268,9.808,9.808,0,0,0,1.271-1.575c.5-.787.984-1.575,1.449-2.38l.734-1.2a4.223,4.223,0,0,1,3.579-2.076l3.579-.215c3.382-.161,4.116.2,6.066,2.953l.465.626c.662.948,1.324,1.9,2.04,2.792a1.4,1.4,0,0,0,1.968.519c2.523-1.074,4.742-2.058,6.782-3.042,1.181-.573,1.342-.913,1.074-2.237-.322-1.628-.734-3.275-1.127-4.8a4.492,4.492,0,0,1,1.145-4.438l.913-.931c.7-.716,1.414-1.414,2.058-2.183a4.474,4.474,0,0,1,4.671-1.628h.322l4.957.823a1.163,1.163,0,0,0,1.271-.608,5.189,5.189,0,0,0,.465-.805q1.324-3.436,2.577-6.872a1.4,1.4,0,0,0-.555-1.789,19.687,19.687,0,0,0-1.789-1.2c-.591-.376-1.2-.716-1.79-1.074l-1.324-.787a3.9,3.9,0,0,1-1.968-3.257c0-1.539-.089-3.06-.125-4.6V93.1a3.221,3.221,0,0,1,1.163-2.577,26.17,26.17,0,0,1,2.076-1.646c.394-.3.805-.591,1.217-.877s1.127-.787,1.664-1.217a1.789,1.789,0,0,0,.68-2.577c-.966-2.2-1.968-4.4-2.988-6.55a1.575,1.575,0,0,0-2.076-.966l-2.809.626-2.792.716a3.9,3.9,0,0,1-3.812-1.109c-1-1.02-2.058-1.986-3.1-2.971l-.895-.841a3.579,3.579,0,0,1-1.127-3.06,13.735,13.735,0,0,1,.268-2.076c.107-.7.161-.948.251-1.432.179-.948.34-1.789.429-2.72a1.36,1.36,0,0,0-.805-1.539c-2.183-.841-4.527-1.682-7.605-2.756a1.235,1.235,0,0,0-1.5.608c-.483.68-.931,1.36-1.378,2.058L183.549,63.8c-.376.591-.769,1.2-1.163,1.789a2.881,2.881,0,0,1-2.362,1.4l-1.933.089a26.621,26.621,0,0,0-3.579.161,4.241,4.241,0,0,1-4.08-2.04c-.644-.948-1.342-1.789-2.022-2.792l-1.163-1.557a1.2,1.2,0,0,0-1.432-.519,29.778,29.778,0,0,0-8.071,3.686,1.235,1.235,0,0,0-.233.608,6.352,6.352,0,0,0,.161,1.789c.2.913.394,1.789.608,2.756s.34,1.521.5,2.273a3.2,3.2,0,0,1-.7,2.988c-1.36,1.449-2.971,3.149-4.671,4.76a3.579,3.579,0,0,1-2.147.752,10.4,10.4,0,0,1-1.789-.215h-.537l-1.432-.251c-.895-.161-1.79-.322-2.684-.412a1.646,1.646,0,0,0-1.79,1.127q-.537,1.288-1.02,2.577c-.429,1.217-.841,2.452-1.253,3.579l-.465,1.342v.34a4.152,4.152,0,0,0,1.789,1.789l2.541,1.628,1.789,1.127a2.989,2.989,0,0,1,1.414,2.505v1.968c0,1.056.089,2.112.161,3.167a4.778,4.778,0,0,1-2.344,4.635c-1.181.769-2.434,1.646-3.9,2.756-.877.662-.966,1.02-.591,1.986,1.092,2.666,1.968,4.688,2.827,6.532.734,1.521.984,1.664,2.756,1.324l1.521-.34c1.145-.268,2.308-.519,3.436-.805a4.83,4.83,0,0,1,1.092-.322ZM177.68,114.2h0a17.179,17.179,0,0,1-17.09-17.143,16.982,16.982,0,0,1,5.082-12.114,17.5,17.5,0,0,1,11.865-5.118A17.161,17.161,0,0,1,194.93,97a16.3,16.3,0,0,1-4.6,11.829A17.125,17.125,0,0,1,177.68,114.2Zm-.215-32.587a15.5,15.5,0,0,0-10.576,4.635,15.193,15.193,0,0,0-4.545,10.844,15.372,15.372,0,0,0,15.3,15.354h0a15.336,15.336,0,0,0,11.292-4.814,14.441,14.441,0,0,0,4.116-10.5h0a15.39,15.39,0,0,0-15.515-15.515Z" transform="translate(38.001 24.089)"/><path class="b" d="M226.351,140.193c-2.648,0-5.368-.125-7.963,0a7.265,7.265,0,0,1-8.214-5.977,43.2,43.2,0,0,0-8.947-16.642A35.307,35.307,0,0,1,193.389,91.9c1.789-19.165,17.143-30.779,36.828-28.864,29.043,2.792,37.311,32.873,22.118,53.685-4.1,5.637-8.035,11.131-9.771,18-.966,3.829-3.812,5.547-7.8,5.368C231.934,140.086,229.142,140.193,226.351,140.193Z" transform="translate(81.274 28.244)"/><path class="c" d="M218.172,141.568a8.106,8.106,0,0,1-8.446-6.693,43.091,43.091,0,0,0-8.822-16.284,36.4,36.4,0,0,1-8.035-26.377,32.211,32.211,0,0,1,11.274-22.351,35.79,35.79,0,0,1,26.538-7.319c12.741,1.235,22.78,7.963,27.5,18.467,5.172,11.489,3.346,25.554-4.76,36.7-3.865,5.368-7.874,10.844-9.627,17.716-1.038,4.08-4.134,6.21-8.7,6.066H218.835Zm8.321-77.4a32.909,32.909,0,0,0-21.205,7.158,30.278,30.278,0,0,0-10.63,21.134,34.2,34.2,0,0,0,7.659,25.053,44.736,44.736,0,0,1,9.144,16.982,6.388,6.388,0,0,0,7.283,5.368h16.428c3.74.143,6.066-1.449,6.89-4.724,1.789-7.158,5.941-12.849,9.914-18.306,7.731-10.63,9.484-24.015,4.581-34.931C252.03,71.85,242.778,65.676,230.5,64.477A23.4,23.4,0,0,0,226.494,64.173Z" transform="translate(80.863 27.8)"/><rect class="b" width="28.435" height="8.071" rx="1.95" transform="translate(293.345 168.473)"/><path class="c" d="M229.118,115.456H207.644a4.384,4.384,0,0,1-4.384-4.366v-1.163a4.384,4.384,0,0,1,4.384-4.366h21.474a4.384,4.384,0,0,1,4.384,4.366v1.127a4.384,4.384,0,0,1-4.384,4.4Zm-21.474-8.071a2.6,2.6,0,0,0-2.595,2.577v1.127a2.577,2.577,0,0,0,2.595,2.577h21.474a2.577,2.577,0,0,0,2.595-2.577v-1.163a2.6,2.6,0,0,0-2.595-2.577Z" transform="translate(89.19 61.983)"/><rect class="b" width="28.435" height="8.071" rx="1.95" transform="translate(293.345 176.544)"/><path class="c" d="M229.118,119.968H207.644a4.384,4.384,0,0,1-4.384-4.384v-1.109a4.384,4.384,0,0,1,4.384-4.384h21.474a4.384,4.384,0,0,1,4.384,4.384v1.109a4.384,4.384,0,0,1-4.384,4.384Zm-21.474-8.088a2.6,2.6,0,0,0-2.595,2.595v1.109a2.6,2.6,0,0,0,2.595,2.595h21.474a2.6,2.6,0,0,0,2.595-2.595v-1.109a2.6,2.6,0,0,0-2.595-2.595Z" transform="translate(89.19 65.559)"/><path class="b" d="M227.6,115.11c0,3.042-4.939,5.512-11.023,5.512s-11.023-2.469-11.023-5.512Z" transform="translate(90.998 69.522)"/><path class="c" d="M216.968,121.911c-6.693,0-11.918-2.809-11.918-6.406a.9.9,0,0,1,.895-.895h22.046a.9.9,0,0,1,.895.895C228.886,119.1,223.661,121.911,216.968,121.911Zm-9.914-5.512c.948,1.9,4.742,3.722,9.914,3.722s8.947-1.789,9.914-3.722Z" transform="translate(90.603 69.127)"/><path class="c" d="M216.412,123.175h0a.895.895,0,0,1-.823-.966v-.787a99.226,99.226,0,0,0,.376-19,25.053,25.053,0,0,1-11.023-4.581,13.583,13.583,0,0,1-4.635-5.512,7.5,7.5,0,0,1,.591-7.355,7.158,7.158,0,0,1,10.5-.5,29.186,29.186,0,0,1,5.261,11.739,41.258,41.258,0,0,1,.913,4.617,24.641,24.641,0,0,0,8.947-.752V98.928c.608-5.225,1.36-11.739,5.136-15.873.626-.7,2.863-2.917,5.261-2.666a3.579,3.579,0,0,1,2.756,2.022,10.737,10.737,0,0,1,0,9.824,17.269,17.269,0,0,1-6.8,7,23.869,23.869,0,0,1-4.814,2.2,84.7,84.7,0,0,0,.877,20.507.9.9,0,0,1-1.772.268,86.36,86.36,0,0,1-.841-20.239,26.305,26.305,0,0,1-8.607.662,102.676,102.676,0,0,1-.412,18.915v.805A.9.9,0,0,1,216.412,123.175Zm-10-38.975h-.268a4.957,4.957,0,0,0-3.812,1.789,5.852,5.852,0,0,0-.376,5.6,11.864,11.864,0,0,0,4.062,4.76,23.263,23.263,0,0,0,9.717,4.17c-.215-1.306-.465-2.613-.805-3.9a27.272,27.272,0,0,0-4.867-11.005,4.9,4.9,0,0,0-3.722-1.414Zm30.278-2.04a5.816,5.816,0,0,0-3.579,2.094c-3.382,3.722-4.1,9.914-4.671,14.888v.322a20.686,20.686,0,0,0,3.7-1.789,15.479,15.479,0,0,0,6.1-6.227,8.947,8.947,0,0,0,0-8.178,1.79,1.79,0,0,0-1.378-1.109Z" transform="translate(86.309 42.095)"/><path class="c" d="M275.1,127.172c-11.65,0-20.776-21.975-20.776-50.106S263.446,27.05,275.1,27.05s20.776,21.975,20.776,50.016S286.746,127.172,275.1,127.172Zm0-98.261c-10.469,0-18.986,21.635-18.986,48.227s8.518,48.316,18.986,48.316,18.986-21.635,18.986-48.316S285.564,28.929,275.1,28.929Z" transform="translate(129.501 0)"/><path class="c" d="M314.568,96.434c-1.02,0-2.076,0-3.185-.107-10.093-.644-22.225-4.152-34.161-9.878s-22.243-13.01-29.061-20.49-9.5-14.763-7.033-19.9,9.538-7.605,19.935-6.943c10.093.644,22.225,4.152,34.161,9.878S317.467,62,324.285,69.413s9.484,14.763,7.015,19.9C329.1,93.964,323.212,96.434,314.568,96.434ZM257.931,40.781c-7.856,0-13.314,2.147-15.175,6.048h0c-2.112,4.366.34,10.9,6.728,17.895,6.657,7.319,16.785,14.441,28.524,20.078s23.621,9.073,33.5,9.7c9.448.608,16.105-1.557,18.181-5.941s-.34-10.9-6.729-17.895c-6.657-7.319-16.785-14.441-28.524-20.078s-23.621-9.073-33.5-9.7Q259.381,40.781,257.931,40.781Zm-16,5.655Z" transform="translate(118.374 9.443)"/><path class="c" d="M257.891,96.434c-8.643,0-14.531-2.469-16.75-7.051-2.47-5.136,0-12.2,7.033-19.9s17.143-14.763,29.061-20.49S301.3,39.761,311.4,39.117c10.379-.662,17.465,1.789,19.935,6.943h0c2.452,5.136,0,12.2-7.033,19.9s-17.143,14.763-28.99,20.49-24.14,9.234-34.233,9.806A24.61,24.61,0,0,1,257.891,96.434Zm56.637-55.653q-1.449,0-3.006.107c-9.878.626-21.778,4.062-33.5,9.7S256.155,63.346,249.5,70.665c-6.388,7.015-8.84,13.546-6.746,17.895s8.751,6.55,18.2,5.941c9.878-.626,21.778-4.062,33.5-9.7s21.867-12.759,28.524-20.078c6.388-7.015,8.84-13.546,6.729-17.895h0C327.842,42.946,322.384,40.781,314.528,40.781Z" transform="translate(118.361 9.443)"/><circle class="c" cx="10.826" cy="10.826" r="10.826" transform="translate(393.771 66.329)"/><path class="c" d="M180.844,76.1a.913.913,0,0,1-.859-1.163L191.742,35.87a.948.948,0,0,1,.752-.644l5.726-.662a.877.877,0,0,1,.877.429l20.418,35.271a.877.877,0,0,1,0,.841.841.841,0,0,1-.68.483l-7.57.913a.859.859,0,0,1-.877-.465l-4.187-7.57L191.3,66.255l-2.2,8.321a.913.913,0,0,1-.769.644l-7.391.877Zm12.526-39.154-11.2,37.2,5.368-.644,2.2-8.3a.877.877,0,0,1,.752-.662L206.6,62.623a.877.877,0,0,1,.895.465l4.187,7.552,5.6-.662L197.934,36.407Zm-1.2,23.46a.859.859,0,0,1-.662-.3.93.93,0,0,1-.2-.823l4.044-15.8a.877.877,0,0,1,.752-.662.859.859,0,0,1,.895.465l7.516,14.441a.877.877,0,0,1,0,.841.931.931,0,0,1-.68.465l-11.56,1.36ZM196.5,46.088l-3.132,12.294,8.947-1.074Z" transform="translate(70.787 5.926)"/><path class="b" d="M244.462,97.378l1.127.215a16.733,16.733,0,0,0,1.79.233,5.117,5.117,0,0,0,1.682-.179,3.167,3.167,0,0,0,1.324-.841,3.579,3.579,0,0,0,.769-1.789,3.149,3.149,0,0,0-.573-2.595,3.758,3.758,0,0,0-2.452-1.432,4.008,4.008,0,0,0-2.47.3,4.259,4.259,0,0,0-1.79,1.789l-4.366-2.076a7.891,7.891,0,0,1,1.611-2.147,7.032,7.032,0,0,1,2.183-1.378,8.7,8.7,0,0,1,2.577-.555,11.936,11.936,0,0,1,5.834,1.181,7.874,7.874,0,0,1,2.362,1.789,6.3,6.3,0,0,1,1.4,2.452,6.442,6.442,0,0,1,.125,3.114,6.263,6.263,0,0,1-1.789,3.454,5.512,5.512,0,0,1-3.579,1.521h0a5.368,5.368,0,0,1,3.293,2.738,6.854,6.854,0,0,1,.5,4.348,7.158,7.158,0,0,1-1.288,3.132,7.462,7.462,0,0,1-2.344,2.022,8.661,8.661,0,0,1-3.024.931A11.829,11.829,0,0,1,244,113.5a13.367,13.367,0,0,1-2.935-.895,8.59,8.59,0,0,1-2.344-1.539,7.158,7.158,0,0,1-1.628-2.219,8.338,8.338,0,0,1-.769-2.971l4.85-.376a4.653,4.653,0,0,0,.966,2.72,4.205,4.205,0,0,0,2.577,1.378,4.527,4.527,0,0,0,1.789,0,4.3,4.3,0,0,0,1.521-.555,3.811,3.811,0,0,0,1.181-1.092,3.865,3.865,0,0,0,.644-1.575,3.7,3.7,0,0,0-.161-2.112,3.579,3.579,0,0,0-1.109-1.432,6.013,6.013,0,0,0-1.789-.895,13.937,13.937,0,0,0-1.968-.519l-1.056-.179Z" transform="translate(115.29 47.259)"/><path class="c" d="M246.435,115.051a13.455,13.455,0,0,1-2.219-.2,14.513,14.513,0,0,1-3.132-.966,9.27,9.27,0,0,1-2.595-1.682,8.446,8.446,0,0,1-1.79-2.487,9.4,9.4,0,0,1-.859-3.275.877.877,0,0,1,.215-.662.913.913,0,0,1,.608-.3l4.85-.394a.984.984,0,0,1,.662.215.948.948,0,0,1,.3.626,3.972,3.972,0,0,0,.769,2.219,3.275,3.275,0,0,0,2.058,1.038,3.973,3.973,0,0,0,1.378,0,3.579,3.579,0,0,0,1.217-.447,3.328,3.328,0,0,0,.895-.841,2.971,2.971,0,0,0,.5-1.217,2.845,2.845,0,0,0-.107-1.593,2.523,2.523,0,0,0-.841-1.074,5.083,5.083,0,0,0-1.449-.77q-.882-.286-1.789-.483l-1.056-.179a.9.9,0,0,1-.716-1.038l.716-3.919a.9.9,0,0,1,1.038-.716l1.127.215a14.821,14.821,0,0,0,1.789.215,3.7,3.7,0,0,0,1.36-.143,1.9,1.9,0,0,0,.931-.591,2.523,2.523,0,0,0,.555-1.324,2.255,2.255,0,0,0-.412-1.9,2.845,2.845,0,0,0-1.9-1.092,3.114,3.114,0,0,0-1.933.251,3.346,3.346,0,0,0-1.485,1.432.9.9,0,0,1-1.163.358l-4.348-2.058a.859.859,0,0,1-.465-.537.806.806,0,0,1,0-.7,8.7,8.7,0,0,1,1.789-2.47,7.623,7.623,0,0,1,2.47-1.539,9.4,9.4,0,0,1,2.845-.626,12.043,12.043,0,0,1,2.988.179,12.275,12.275,0,0,1,3.293,1.092,9.216,9.216,0,0,1,2.631,1.968,7.158,7.158,0,0,1,1.593,2.792,7.552,7.552,0,0,1,.143,3.579,7.159,7.159,0,0,1-2.094,3.937,6.423,6.423,0,0,1-1.789,1.217,5.781,5.781,0,0,1,1.789,2.112,7.838,7.838,0,0,1,.591,4.9,8.393,8.393,0,0,1-1.467,3.579,8.2,8.2,0,0,1-2.631,2.273,9.753,9.753,0,0,1-3.346,1.038A12.259,12.259,0,0,1,246.435,115.051Zm-8.715-7.874a6.5,6.5,0,0,0,.555,1.789,6.264,6.264,0,0,0,1.432,1.951,7.552,7.552,0,0,0,2.112,1.378,11.756,11.756,0,0,0,2.72.823,10.057,10.057,0,0,0,3.1.107,7.427,7.427,0,0,0,2.72-.823,6.639,6.639,0,0,0,2.04-1.789,6.406,6.406,0,0,0,1.127-2.756,5.887,5.887,0,0,0-.43-3.794,4.474,4.474,0,0,0-2.827-2.255.913.913,0,0,1-.591-1.02,1,1,0,0,1,.841-.787,4.6,4.6,0,0,0,3.042-1.288,5.19,5.19,0,0,0,1.575-2.953,5.565,5.565,0,0,0-.107-2.684,5.369,5.369,0,0,0-1.2-2.129,7.033,7.033,0,0,0-2.112-1.557,10.737,10.737,0,0,0-5.368-1.092,7.373,7.373,0,0,0-2.291.5,6.1,6.1,0,0,0-1.933,1.2,7.265,7.265,0,0,0-1,1.181l2.774,1.324a5.136,5.136,0,0,1,1.789-1.485,4.885,4.885,0,0,1,3.024-.376,4.671,4.671,0,0,1,3.024,1.789,4.08,4.08,0,0,1,.716,3.293,4.313,4.313,0,0,1-.984,2.219,3.758,3.758,0,0,1-1.789,1.074,5.19,5.19,0,0,1-1.986.215A14.5,14.5,0,0,1,245.738,99h-.251l-.394,2.13h.179a14.156,14.156,0,0,1,2.076.537,6.979,6.979,0,0,1,1.986,1.038,4.277,4.277,0,0,1,1.611,4.42,4.688,4.688,0,0,1-2.237,3.275,5.745,5.745,0,0,1-1.79.68,5.905,5.905,0,0,1-2.022,0,4.993,4.993,0,0,1-3.114-1.789,5.153,5.153,0,0,1-1.038-2.308Z" transform="translate(114.91 46.837)"/><path class="b" d="M251.357,100.29l4.4.805-4.814,8.947-3.865-.716Z" transform="translate(123.785 57.822)"/><path class="c" d="M251.342,111.359h-.161l-3.865-.716a.841.841,0,0,1-.644-.465.877.877,0,0,1,0-.787l4.277-9.073a.877.877,0,0,1,.966-.5l4.4.805a.841.841,0,0,1,.644.5.913.913,0,0,1,0,.805l-4.832,8.947A.913.913,0,0,1,251.342,111.359Zm-2.559-2.255,2.076.376,3.937-7.319-2.523-.465Z" transform="translate(123.389 57.436)"/><path class="b" d="M263.659,95.431,258.04,99.01,256,95.521l8.947-5.011,3.937.734L264.2,116.815l-4.331-.787Z" transform="translate(130.827 50.101)"/><path class="c" d="M264.562,118.1H264.4l-4.331-.805a.895.895,0,0,1-.734-1.038l3.418-18.593-3.883,2.469a.877.877,0,0,1-.7.107.859.859,0,0,1-.573-.412l-1.968-3.472a.823.823,0,0,1,0-.68.805.805,0,0,1,.43-.537l8.947-5.011a.859.859,0,0,1,.591-.107l3.937.716a.931.931,0,0,1,.734,1.038l-4.706,25.59a.913.913,0,0,1-.877.734Zm-3.293-2.4,2.577.465,4.366-23.818-2.738-.573-7.856,4.4,1.074,1.789,4.832-3.078a.931.931,0,0,1,.984,0,.9.9,0,0,1,.376.913Z" transform="translate(130.479 49.708)"/><path class="b" d="M276.8,113.34l-10.88-1.986.787-4.313L279.95,92.85l4.921.913-3.024,16.481,3.722.68-.716,3.9-3.722-.68-.948,5.207-4.348-.805Zm2.613-14.316h0l-8.3,9.162,6.478,1.181Z" transform="translate(138.659 51.948)"/><path class="c" d="M280.588,120.614h-.161l-4.348-.805a.9.9,0,0,1-.716-1.038l.787-4.331-9.985-1.789a.841.841,0,0,1-.573-.376.805.805,0,0,1-.143-.662l.787-4.313a.894.894,0,0,1,.233-.447l13.242-14.191a.966.966,0,0,1,.805-.268l4.921.913a.9.9,0,0,1,.716,1.038l-2.863,15.6,2.845.519a.9.9,0,0,1,.716,1.038l-.716,3.9a.841.841,0,0,1-.376.573.877.877,0,0,1-.662.143l-2.845-.519-.787,4.331a.966.966,0,0,1-.376.573A.984.984,0,0,1,280.588,120.614ZM277.3,118.2l2.577.465.787-4.313a.9.9,0,0,1,1.038-.716l2.845.519.394-2.147-2.845-.519a.9.9,0,0,1-.716-1.038l2.863-15.6-3.579-.644-12.705,13.6-.591,3.167,10,1.789a.9.9,0,0,1,.716,1.038Zm.626-7.5h-.161l-6.478-1.109a.877.877,0,0,1-.68-.591.913.913,0,0,1,.179-.895l8.3-9.252a.9.9,0,0,1,.805-.268,1,1,0,0,1,.626.376,1.038,1.038,0,0,1,.179.68l-1.9,10.325a.913.913,0,0,1-.877.734Zm-4.724-2.666,4.008.734,1.181-6.478Z" transform="translate(138.271 51.581)"/><path class="d" d="M190.6,113.886a7.963,7.963,0,1,1,7.963-7.963,7.963,7.963,0,0,1-7.963,7.963Zm0-14.137a6.138,6.138,0,1,1,0,.072Z" transform="translate(72.911 55.983)"/><path class="c" d="M151.685,58.134a.913.913,0,0,1-.895-.895V46.395a.913.913,0,0,1,.895-.895.9.9,0,0,1,.895.895V57.329a.9.9,0,0,1-.895.805Z" transform="translate(47.765 14.566)"/><path class="c" d="M159.569,50.289H148.635a.895.895,0,1,1,0-1.789h10.934a.913.913,0,0,1,.895.895A.9.9,0,0,1,159.569,50.289Z" transform="translate(45.358 16.934)"/><path class="c" d="M237.934,83.882a.966.966,0,0,1-.376,0,.877.877,0,0,1-.43-1.181l3.794-8.16a.895.895,0,1,1,1.611.752l-3.776,8.071A.931.931,0,0,1,237.934,83.882Z" transform="translate(115.86 37.009)"/><path class="c" d="M244.833,80.674a.966.966,0,0,1-.376,0l-8.16-3.794a.895.895,0,0,1,.752-1.611l8.16,3.776a.895.895,0,0,1,.429,1.2A.877.877,0,0,1,244.833,80.674Z" transform="translate(114.937 38.033)"/><circle class="d" cx="2.129" cy="2.129" r="2.129" transform="translate(266.61 94.8)"/><path class="d" d="M172.948,42.07c-4.617,0-4.617,7.158,0,7.158S177.565,42.07,172.948,42.07Z" transform="translate(62.525 11.858)"/><path class="d" d="M176.519,114.11a1.789,1.789,0,1,0,1.789,1.789A1.789,1.789,0,0,0,176.519,114.11Z" transform="translate(66.666 68.733)"/><path class="d" d="M236.812,108.65c-4.6,0-4.6,7.158,0,7.158S241.429,108.65,236.812,108.65Z" transform="translate(112.955 64.422)"/><rect class="d" width="14.584" height="14.584" transform="matrix(0.955, -0.298, 0.298, 0.955, 305.898, 60.664)"/><rect class="d" width="12.544" height="12.544" transform="translate(395.929 176.593) rotate(19.51)"/><path class="d" d="M225.179,34.878a2.559,2.559,0,1,1,2.559-2.559,2.559,2.559,0,0,1-2.559,2.559Zm0-3.328a.769.769,0,1,0,.769.769.769.769,0,0,0-.769-.769Z" transform="translate(104.474 2.14)"/></g></svg>